<svg data-v-423bf9ae="" xmlns="http://www.w3.org/2000/svg" viewBox="0 0 524 112" class="iconLeft"><!----><!----><!----><g data-v-423bf9ae="" id="5ad4d3e8-f1ce-46cc-ab66-90307779e600" fill="white" transform="matrix(5.917159562968884,0,0,5.917159562968884,119.25167677770693,3.187795672620844)"><path d="M7.66 6.92L7.66 6.92L7.66 6.92Q7.66 7.87 7.15 8.64L7.15 8.64L7.15 8.64Q6.64 9.41 5.67 9.73L5.67 9.73L7.64 13.75L5.80 13.75L3.89 9.91L2.73 9.91L2.73 13.75L1.06 13.75L1.06 3.95L4.45 3.95L4.45 3.95Q5.32 3.95 5.96 4.19L5.96 4.19L5.96 4.19Q6.61 4.44 6.96 4.87L6.96 4.87L6.96 4.87Q7.32 5.29 7.49 5.80L7.49 5.80L7.49 5.80Q7.66 6.31 7.66 6.92ZM4.48 5.52L2.73 5.52L2.73 8.34L4.48 8.34L4.48 8.34Q5.26 8.34 5.61 7.95L5.61 7.95L5.61 7.95Q5.95 7.55 5.95 6.93L5.95 6.93L5.95 6.93Q5.95 6.34 5.61 5.93L5.61 5.93L5.61 5.93Q5.28 5.52 4.48 5.52L4.48 5.52ZM16.20 9.81L16.20 9.81L16.20 9.81Q16.20 10.43 16.14 10.79L16.14 10.79L11.27 10.79L11.27 10.79Q11.42 11.58 11.89 12.03L11.89 12.03L11.89 12.03Q12.36 12.49 13.10 12.49L13.10 12.49L13.10 12.49Q14.04 12.49 14.69 11.79L14.69 11.79L15.65 12.81L15.65 12.81Q14.64 13.92 13.09 13.92L13.09 13.92L13.09 13.92Q11.51 13.92 10.59 12.89L10.59 12.89L10.59 12.89Q9.67 11.87 9.67 10.16L9.67 10.16L9.67 10.16Q9.67 8.43 10.60 7.43L10.60 7.43L10.60 7.43Q11.52 6.43 13.09 6.43L13.09 6.43L13.09 6.43Q14.46 6.43 15.33 7.29L15.33 7.29L15.33 7.29Q16.20 8.15 16.20 9.81ZM11.26 9.42L11.26 9.42L14.62 9.42L14.62 9.42Q14.55 8.64 14.12 8.24L14.12 8.24L14.12 8.24Q13.69 7.84 13.09 7.84L13.09 7.84L13.09 7.84Q12.32 7.84 11.85 8.26L11.85 8.26L11.85 8.26Q11.38 8.68 11.26 9.42ZM23.51 6.43L23.51 6.43L23.51 6.43Q24.40 6.43 24.83 7.05L24.83 7.05L24.83 7.05Q25.26 7.67 25.26 9.14L25.26 9.14L25.26 13.75L23.79 13.75L23.79 9.38L23.79 9.38Q23.79 8.62 23.65 8.30L23.65 8.30L23.65 8.30Q23.51 7.97 23.13 7.97L23.13 7.97L23.13 7.97Q22.76 7.97 22.55 8.34L22.55 8.34L22.55 8.34Q22.33 8.72 22.33 9.39L22.33 9.39L22.33 13.75L20.86 13.75L20.86 9.34L20.86 9.34Q20.86 7.97 20.19 7.97L20.19 7.97L20.19 7.97Q19.80 7.97 19.57 8.34L19.57 8.34L19.57 8.34Q19.33 8.72 19.33 9.39L19.33 9.39L19.33 13.75L17.86 13.75L17.86 6.59L19.24 6.59L19.24 7.55L19.24 7.55Q19.63 6.43 20.65 6.43L20.65 6.43L20.65 6.43Q21.10 6.43 21.44 6.73L21.44 6.73L21.44 6.73Q21.78 7.04 21.92 7.46L21.92 7.46L21.92 7.46Q22.57 6.43 23.51 6.43ZM29.71 13.92L29.71 13.92L29.71 13.92Q28.52 13.92 27.78 13.21L27.78 13.21L27.78 13.21Q27.05 12.50 27.05 10.95L27.05 10.95L27.05 6.59L28.66 6.59L28.66 10.60L28.66 10.60Q28.66 12.38 30.13 12.38L30.13 12.38L30.13 12.38Q31.71 12.38 31.71 10.63L31.71 10.63L31.71 6.59L33.32 6.59L33.32 13.75L31.71 13.75L31.71 13.06L31.71 13.06Q31.02 13.92 29.71 13.92ZM39.31 6.43L39.31 6.43L39.31 6.43Q40.49 6.43 41.22 7.13L41.22 7.13L41.22 7.13Q41.96 7.84 41.96 9.38L41.96 9.38L41.96 13.75L40.35 13.75L40.35 9.72L40.35 9.72Q40.35 8.79 39.94 8.37L39.94 8.37L39.94 8.37Q39.54 7.95 38.86 7.95L38.86 7.95L38.86 7.95Q37.28 7.95 37.28 9.69L37.28 9.69L37.28 13.75L35.67 13.75L35.67 6.59L37.16 6.59L37.16 7.48L37.16 7.48Q37.37 7.06 37.98 6.74L37.98 6.74L37.98 6.74Q38.58 6.43 39.31 6.43ZM50.69 9.81L50.69 9.81L50.69 9.81Q50.69 10.43 50.64 10.79L50.64 10.79L45.77 10.79L45.77 10.79Q45.92 11.58 46.39 12.03L46.39 12.03L46.39 12.03Q46.86 12.49 47.60 12.49L47.60 12.49L47.60 12.49Q48.54 12.49 49.18 11.79L49.18 11.79L50.15 12.81L50.15 12.81Q49.14 13.92 47.59 13.92L47.59 13.92L47.59 13.92Q46.00 13.92 45.09 12.89L45.09 12.89L45.09 12.89Q44.17 11.87 44.17 10.16L44.17 10.16L44.17 10.16Q44.17 8.43 45.09 7.43L45.09 7.43L45.09 7.43Q46.02 6.43 47.59 6.43L47.59 6.43L47.59 6.43Q48.96 6.43 49.83 7.29L49.83 7.29L49.83 7.29Q50.69 8.15 50.69 9.81ZM45.75 9.42L45.75 9.42L49.11 9.42L49.11 9.42Q49.04 8.64 48.62 8.24L48.62 8.24L48.62 8.24Q48.19 7.84 47.59 7.84L47.59 7.84L47.59 7.84Q46.82 7.84 46.35 8.26L46.35 8.26L46.35 8.26Q45.88 8.68 45.75 9.42ZM57.92 6.43L57.92 6.43L57.92 6.43Q58.88 6.43 59.60 6.80L59.60 6.80L59.60 9.45L58.03 9.45L58.03 7.92L57.89 7.92L57.89 7.92Q56.78 7.92 56.18 8.44L56.18 8.44L56.18 8.44Q55.58 8.96 55.58 10.00L55.58 10.00L55.58 12.33L57.58 12.33L57.58 13.75L52.46 13.75L52.46 12.33L53.97 12.33L53.97 8.01L52.46 8.01L52.46 6.59L55.47 6.59L55.47 7.74L55.47 7.74Q55.76 7.13 56.43 6.78L56.43 6.78L56.43 6.78Q57.11 6.43 57.92 6.43ZM64.67 13.92L64.67 13.92L64.67 13.92Q63.07 13.92 62.10 13.06L62.10 13.06L62.10 13.06Q61.12 12.21 61.12 10.84L61.12 10.84L61.12 10.84Q61.12 10.00 61.59 9.35L61.59 9.35L61.59 9.35Q62.06 8.71 62.87 8.37L62.87 8.37L62.87 8.37Q62.29 8.09 61.91 7.57L61.91 7.57L61.91 7.57Q61.53 7.04 61.53 6.36L61.53 6.36L61.53 6.36Q61.53 5.22 62.39 4.50L62.39 4.50L62.39 4.50Q63.25 3.78 64.67 3.78L64.67 3.78L64.67 3.78Q66.09 3.78 66.96 4.50L66.96 4.50L66.96 4.50Q67.83 5.22 67.83 6.36L67.83 6.36L67.83 6.36Q67.83 7.04 67.45 7.57L67.45 7.57L67.45 7.57Q67.06 8.09 66.46 8.36L66.46 8.36L66.46 8.36Q67.27 8.69 67.75 9.35L67.75 9.35L67.75 9.35Q68.24 10.01 68.24 10.84L68.24 10.84L68.24 10.84Q68.24 12.21 67.26 13.06L67.26 13.06L67.26 13.06Q66.28 13.92 64.67 13.92ZM63.59 7.34L63.59 7.34L63.59 7.34Q63.99 7.69 64.67 7.69L64.67 7.69L64.67 7.69Q65.34 7.69 65.76 7.34L65.76 7.34L65.76 7.34Q66.18 7.00 66.18 6.48L66.18 6.48L66.18 6.48Q66.18 5.94 65.76 5.60L65.76 5.60L65.76 5.60Q65.34 5.26 64.67 5.26L64.67 5.26L64.67 5.26Q63.99 5.26 63.59 5.60L63.59 5.60L63.59 5.60Q63.18 5.94 63.18 6.48L63.18 6.48L63.18 6.48Q63.18 7.00 63.59 7.34ZM63.32 11.96L63.32 11.96L63.32 11.96Q63.84 12.42 64.67 12.42L64.67 12.42L64.67 12.42Q65.49 12.42 66.02 11.96L66.02 11.96L66.02 11.96Q66.56 11.51 66.56 10.78L66.56 10.78L66.56 10.78Q66.56 10.08 66.02 9.62L66.02 9.62L66.02 9.62Q65.49 9.16 64.67 9.16L64.67 9.16L64.67 9.16Q63.84 9.16 63.32 9.62L63.32 9.62L63.32 9.62Q62.79 10.08 62.79 10.78L62.79 10.78L62.79 10.78Q62.79 11.51 63.32 11.96Z"></path></g><!----><g data-v-423bf9ae="" id="478fcfcd-543d-483b-8b2b-75458e26694e" transform="matrix(1.1111021253797744,0,0,1.1111021253797744,-2.041292265476379,0.4453648804580439)" stroke="none" fill="white"><path d="M37.039 20.894h26.345l2.408-3.436c1.967-2.965 4.134-5.805 6.009-8.83.89-1.437 2.558-3.789 1.901-5.609-.469-1.3-1.669-1.743-2.955-1.969-.93-.163-5.684-1.364-7.603-.972-1.703.349-3.276 1.157-4.91 1.725-2.301.8-4.848 1.471-7.372 1.333-2.181-.119-4.659-.398-6.715-1.141-1.704-.617-3.35-1.525-5.153-1.834-1.557-.267-7.228.519-8.369.715-8.031 1.382-2.192 7.493 4.006 16.582l2.408 3.436zm58.042 48.181c-6.754-15.562-18.983-32.532-31.794-40.719h-26.58C23.899 36.545 11.672 53.516 4.92 69.075c-6.77 15.598 1.351 30.924 16.825 30.924h56.511c15.474 0 23.595-15.326 16.825-30.924zM52.47 83.203v6.316h-5.029v-5.948c-3.863-.122-7.726-1.226-9.935-2.698l1.657-5.765c2.392 1.411 5.826 2.698 9.567 2.698 3.863 0 6.5-1.901 6.5-4.844 0-2.76-2.147-4.539-6.685-6.194-6.44-2.331-10.61-5.274-10.61-10.978 0-5.274 3.679-9.321 9.873-10.425v-6.01h5.029v5.703c3.863.123 6.5 1.042 8.463 2.024l-1.655 5.641c-1.473-.675-4.171-2.085-8.341-2.085-4.292 0-5.825 2.208-5.825 4.294 0 2.514 2.208 3.923 7.419 6.009 6.869 2.576 9.936 5.888 9.936 11.345 0 5.215-3.618 9.814-10.364 10.917z"></path></g><!----></svg>