<?xml version="1.0" standalone="no"?>
<!DOCTYPE svg PUBLIC "-//W3C//DTD SVG 1.1//EN" "http://www.w3.org/Graphics/SVG/1.1/DTD/svg11.dtd" >
<svg xmlns="http://www.w3.org/2000/svg" xmlns:xlink="http://www.w3.org/1999/xlink" version="1.1">
<metadata>
Created by FontForge 20170731 at Wed Jul 15 01:06:18 2015
 By Aleksey,,,
Copyright (c) 2015 by Kosal Sen, Philatype. All rights reserved.
</metadata>
<defs>
<font id="Sen-Regular" horiz-adv-x="622" >
  <font-face 
    font-family="Sen"
    font-weight="400"
    font-stretch="normal"
    units-per-em="1024"
    panose-1="0 0 5 0 0 0 0 0 0 0"
    ascent="819"
    descent="-205"
    x-height="500"
    cap-height="670"
    bbox="-225 -255 1002 940"
    underline-thickness="50"
    underline-position="-200"
    unicode-range="U+0020-263A"
  />
<missing-glyph horiz-adv-x="480" 
d="M394 720v-960h-305v960h305zM320 656h-159v-32h63v-36h-64v-31h160v31h-64v36h64v32zM256 532h-96v-100h160v33h-64v67zM224 499v-34h-32v34h32zM320 406h-160v-32h64v-35h-64v-32h96v67h64v32zM320 348h-32v-63h-128v-33h160v96zM320 231h-96v-53h32v22h32v-45h-96v76
h-32v-108h160v108zM320 65h-160v-108h160v108zM288 34v-46h-96v46h96zM320 -65h-160v-32h68l-68 -45v-32h160v32h-98l67 45h31v32z" />
    <glyph glyph-name="smileface" unicode="&#x3a;D" horiz-adv-x="579" 
d="M544 335q36 -105 -13 -205t-155 -136q-105 -36 -205 13t-136 154t13 205t154 136q106 36 205.5 -13t136.5 -154zM370 14q96 33 141.5 125.5t11.5 188.5q-33 96 -125 141t-188 13q-13 -4 -30 -13v-1q2 -6 -3 -8t-7 4q-3 -1 -6 -3t-6.5 -4.5t-6.5 -3.5q-2 -2 -3 -2l-11 -8
q5 0 6 -4q2 -5 -4 -7q-5 -2 -7 4v3q-5 -4 -28 -27q3 -5 -3 -7q-1 -1 -3 0q-4 -6 -6 -8q3 -3 3 -4q2 -5 -3 -7q-4 -1 -7 2q0 -1 -5 -8q5 0 6 -5q2 -5 -4 -7q-4 -1 -7 3l-6 -11q5 2 7 -4q2 -5 -3 -7t-7 4q-2 -4 -4 -10q4 0 5 -3q2 -6 -4 -8q-4 0 -5 2l-3 -11l3 -3q2 -5 -5 -7
q-1 -1 -3 -1q-7 -27 -8 -51q4 -2 5 -4q2 -5 -4 -7l-1 -1q0 -21 2 -33q2 -2 2 -3q2 -3 -1 -6q3 -13 4 -17q5 3 7 -3t-4 -7v-1q0 -1 1.5 -5t2.5 -6l3 -8q5 2 7 -4q2 -5 -3 -7l3.5 -7t3.5 -8q5 0 5 -4q2 -2 0 -4q7 -15 18 -28q1 1 2 1q5 2 7 -3t-2 -7q4 -4 12.5 -13t12.5 -13
q4 0 6 -4v-1q3 -2 7 -6q2 3 4 3q5 2 7 -3q0 -5 -2 -6q4 -4 11 -7q-2 5 3 7q6 2 8 -4q2 -5 -4 -7q15 -9 30 -15q0 1 -1 2q-2 5 4 7q5 2 7 -3q2 -6 -3 -9h-2q5 -2 13 -4q-2 7 4 9q5 2 7 -5q1 -4 -3 -7l11 -3q0 4 4 4q5 2 7 -3v-3q1 -1 4 -1t5 -1l1 1q5 2 7 -2q24 -2 37 -1
q0 4 3 4q6 2 8 -3v-1l20 3q-2 0 -2 2q-2 6 4 8q5 2 7 -4q0 -3 -1 -5q15 3 34 9zM271 463q-5 -2 -7 3t3 7t7 -3t-3 -7zM224 460q-5 -2 -7 4q-2 5 4 7q5 2 7 -3q2 -6 -4 -8zM242 453q-5 -2 -7 4q-2 5 4 7q5 2 7 -4q2 -5 -4 -7zM290 453q-6 -2 -8 4q-2 5 4 7q5 2 7 -4
q2 -5 -3 -7zM196 451q-6 -2 -8 4q-2 5 4 7q5 2 7 -4q2 -5 -3 -7zM307 446q-5 -3 -7 3t4 8t8 -4q2 -5 -5 -7zM214 444q-4 -2 -8 3q-2 5 5 7q5 2 7 -3t-4 -7zM262 444q-6 -2 -8 3t3 7q7 2 9 -3t-4 -7zM166 441q-5 0 -5 6t5 6q6 0 6 -6t-6 -6zM273 440q-2 5 3 7t7 -3
q2 -6 -3 -8t-7 4zM327 436q-5 -2 -7 4q-2 5 4 7q5 2 7 -3q1 -4 -4 -8zM186 434q-5 -2 -7 4q-2 5 3 7t7 -4q2 -5 -3 -7zM226 438q-2 5 4 7q5 2 7 -4q2 -5 -4 -7q-5 -2 -7 4zM345 429q-5 -2 -7 4q-2 5 3 7q6 2 8 -4q2 -5 -4 -7zM244 430q-2 6 3 8q6 2 8 -4q1 -4 -4 -8
q-6 -2 -7 4zM291 431q-2 5 4 7q5 2 7 -4q2 -5 -3 -8q-6 -2 -8 5zM197 430q0 6 6 6t6 -6t-6 -6t-6 6zM158 424q-7 -2 -8 4q-2 5 3 7q7 2 9 -3q2 -6 -4 -8zM310 422q-4 5 4 8q6 2 7 -4q2 -5 -4 -7q-5 -2 -7 3zM365 419q-6 -2 -8 3q-2 6 4 8t7 -4q2 -5 -3 -7zM267 428q6 2 7 -4
q2 -5 -3 -7t-7 3t3 8zM222 428q5 0 5 -6t-5 -6q-6 0 -6 6t6 6zM347 407q-2 4 3 6q3 0 5 -1q9 6 20 9q1 0 1 0.5t1 0.5q34 12 69 -8q34 -19 48 -65q3 -9 5 -23q0 -8 -6 -9q-5 -2 -9 0q-4 4 -4 6q-1 10 -5 20q-13 41 -44 57q-23 11 -48 3q-10 -4 -15 -7q1 0 2 -1
q9 -4 12.5 -14.5t-1.5 -18.5q-3 -7 -12 -11q-10 -3 -21 2q-2 1 -10 9q-8 -28 3 -65q3 -7 -3 -13v-1q2 -5 -3 -7q-6 -2 -8 4v4q-3 3 -5 7q-5 16 -7 38q-3 0 -7 4q-2 5 5 7q1 1 2 1q2 43 32 66zM130 414q-6 -2 -8 4q-2 5 4 7q5 2 7 -4q2 -5 -3 -7zM169 420q0 5 6 5t6 -5
q0 -6 -6 -6t-6 6zM285 420q5 2 7 -4q2 -5 -3 -7t-7 4q-2 5 3 7zM329 413q-2 5 4 7q5 2 7 -3q2 -6 -4 -8q-5 -2 -7 4zM191 418q5 2 7 -4q2 -5 -3 -7t-7 3q-2 6 3 8zM239 418q5 2 7 -4q2 -5 -4 -7q-5 -2 -7 4q-2 5 4 7zM148 405q-5 -2 -7 3q-2 6 3 8q6 2 8 -4q2 -5 -4 -7z
M304 411q6 2 8 -4t-4 -7q-6 -2 -8 3q-2 6 4 8zM256 410q7 2 9 -3t-4 -7t-8 3t3 7zM206 403q0 6 7 6q5 0 5 -6t-5 -6q-7 0 -7 6zM163 408q6 2 8 -3q2 -6 -4 -8q-5 -2 -7 4q-2 5 3 7zM120 395q-5 -2 -7 4q-2 5 4 7q5 2 7 -3q2 -6 -4 -8zM326 392q-5 -2 -7 4q-2 5 4 7q5 2 7 -3
q2 -6 -4 -8zM229 401q5 2 7 -4q2 -5 -4 -7q-5 -2 -7 4q-2 5 4 7zM276 401q5 2 7 -3q2 -6 -3 -8t-7 4q-2 5 3 7zM131 392q-2 5 4 7q5 2 7 -4q2 -5 -4 -7q-5 -2 -7 4zM178 394q0 5 6 5t6 -5q0 -6 -6 -6t-6 6zM294 394q5 2 7 -4q2 -5 -3 -7t-7 3q-2 6 3 8zM248 392q5 2 7 -4
q2 -5 -4 -7q-5 -2 -7 3q-2 6 4 8zM200 391q5 2 8 -3q2 -6 -4 -7q-5 -2 -7 3t3 7zM111 379q-6 -2 -8 3q-2 6 4 7q5 2 7 -3t-3 -7zM153 389q6 2 8 -3q3 -5 -3 -7t-8 3t3 7zM274 381q2 -7 -4 -9q-5 -2 -7 5q-2 5 3 7q6 2 8 -3zM314 384q5 2 7 -3q2 -6 -3 -8q-6 -2 -8 4
q-3 5 4 7zM306 266q-5 -2 -7 3l-1 1q-5 -2 -9 1q-3 1 -3 7q-1 8 -5 19q-11 32 -39 46q-25 13 -51 5l-1 -1q-8 -3 -17 -8q2 0 6 -2q21 -11 12 -31q-4 -8 -13 -11q-10 -3 -18 1t-13 12q-7 -22 0 -51q14 -1 26 -10q0 -1 1 -1q4 0 5 -4q2 -5 -4 -7h-3h-1q-4 -2 -6 1q-10 7 -24 7
q-8 0 -12 -2q-5 -1 -13 -7q0 -1 -2 -1q-5 -2 -8 2q-2 1 -2 5q0 2 2 3q-4 0 -4 3q-2 6 4 7q5 2 7 -3v-1l11 6h3q-3 12 -3 24q-2 2 -3 4q-2 5 4 7q1 13 8 30q9 20 27 34v1q-2 5 3 7q4 1 7 -2q8 4 15 6l2 1q2 4 4 5q4 1 7 -2q12 1 22 0q-3 1 -4 4q-2 6 4 8q5 2 7 -3q2 -7 -3 -9
h-1l11 -3q0 6 4 7q5 2 7 -4q1 -3 -2 -6q6 -2 10 -4q0 4 4 4q6 2 8 -3q1 -4 -2 -7q14 -9 23 -23q5 0 5 -4q1 -1 1 -2.5t-1 -2.5q6 -9 9 -19q1 -4 4 -23v-2q6 0 6 -5q2 -6 -4 -7zM172 382q6 2 8 -4t-4 -8q-5 -2 -7 4t3 8zM126 380q5 2 7 -5q2 -5 -4 -7q-5 -2 -7 4t4 8z
M289 363q-5 -2 -7 4q-2 5 3 7t7 -4q2 -5 -3 -7zM144 372q5 2 7 -4q2 -5 -4 -7q-5 -2 -7 3q-2 6 4 8zM99 358q-6 0 -6 6t6 6q5 0 5 -6t-5 -6zM311 363q2 -6 -4 -7q-6 -2 -8 3t4 7t8 -3zM116 362q5 2 7 -3q2 -6 -3 -8t-7 4q-2 5 3 7zM279 346q-5 -2 -7 4q-2 5 3 7q6 2 8 -4
q2 -5 -4 -7zM91 342q-5 -2 -7 3q-2 6 3 8q6 2 8 -4q2 -5 -4 -7zM135 353q5 2 7 -4q2 -5 -4 -7q-5 -2 -7 4q-2 5 4 7zM298 337q-5 -2 -7 4q-3 5 3 7q5 2 7 -4q2 -5 -3 -7zM107 343q5 2 7 -3t-3 -7q-7 -4 -9 3q-2 5 5 7zM129 324q-5 -2 -7 5q-2 5 3 7t7 -4q2 -5 -3 -8zM82 322
q-5 -2 -7 5q-2 5 3 7t7 -4t-3 -8zM96 326q6 2 8 -4q3 -5 -4 -7q-5 -2 -7 3t3 8zM303 321q6 2 8 -4t-4 -7q-5 -2 -7 3q-2 6 3 8zM72 305q-5 -2 -7 4q-2 5 4 7q5 2 7 -4q2 -5 -4 -7zM123 313q2 -6 -3 -8q-6 -2 -8 4q-2 5 4 7q5 2 7 -3zM420 305q-6 -2 -8 3q-3 5 4 7q5 2 7 -3
t-3 -7zM467 305q-6 -2 -8 3q-2 6 4 7q6 2 8 -3t-4 -7zM87 307q5 2 7 -4q2 -5 -3 -7t-7 3q-2 6 3 8zM391 295q-5 -2 -7 4q-2 5 3 7t7 -4q2 -5 -3 -7zM438 295q-5 -2 -7 4q-2 5 4 7q5 2 7 -4q2 -5 -4 -7zM110 289q-6 -2 -8 3q-2 6 4 7q6 2 8 -3t-4 -7zM477 292q20 10 29 -3
t8 -50q-2 -38 -13.5 -73.5t-44 -73t-81.5 -54.5q0 -5 -4 -6q-5 -2 -7 3q-7 -2 -19 -4l1 -1q2 -5 -4 -7q-5 -2 -7 3v4q-17 -1 -38 2l2 -3q2 -5 -4 -7q-5 -2 -7 3q-2 6 3 8h1q-5 0 -11 2q0 -3 -4 -5q-5 -2 -7 3q-2 3 0 6l-7 3q-2 -4 -4 -5q-6 -2 -8 4q-1 3 1 5l-9 5
q-2 -4 -4 -4q-5 -2 -7 3q-2 4 2 6q-2 1 -5.5 4t-4.5 3q0 -1 0.5 -1t0.5 -1q2 -5 -4 -7q-5 -2 -7 4q-2 5 4 7h3q-17 14 -28 26q-6 -2 -8 3q0 3 1 4q-12 13 -20 27q-5 -2 -7 4q-2 4 2 6q-1 3 -5 8.5t-5 8.5q-2 0 -2 3q-1 1 0 3q-2 4 -2 6q-3 7 -1 14q-5 0 -6 4q-2 5 3 7t7 -3
l1 -1q4 5 17 9q0 3 4 5q3 1 7 -3q3 1 9 2.5t8 1.5v1q-2 5 4 7q5 2 8 -3v-2q7 1 21 5q-3 0 -5 4q-2 5 4 7q5 2 7 -4q2 -4 -2 -6q19 5 25 7q-4 0 -6 4q-2 6 4 8t8 -3t-2 -8q30 9 39 12q0 1 2 1q2 2 2 0l23 7l3 3h4l21 6q2 3 3 3q4 1 5 0q3 1 10 3.5t11 3.5q0 2 3 3h4l10.5 3.5
t11.5 3.5l2 2h3q11 4 24 9.5t21 9t13 5.5zM63 286q-5 -2 -7 4q-2 5 4 7q5 3 7 -3t-4 -8zM410 286q-5 -2 -7 3q-2 6 3 8q6 2 8 -4t-4 -7zM363 286q-6 -2 -8 3t4 7t8 -3t-4 -7zM454 295q5 2 7 -3q3 -5 -4 -7q-5 -2 -7 3t4 7zM310 287q-3 5 3 7q5 2 7 -3t-3 -7t-7 3zM78 290
q5 2 7 -4q2 -5 -4 -7q-5 -2 -7 4q-2 5 4 7zM382 276q-5 -2 -7 4q-2 5 3 7q6 2 8 -3q2 -6 -4 -8zM430 275q-5 -4 -8 4q-2 5 4 7q5 2 7 -4q2 -5 -3 -7zM53 269q-6 -2 -8 3q-2 6 4 8t8 -3q2 -7 -4 -8zM103 277q2 -6 -3 -8t-7 3q-2 6 3 8t7 -3zM353 266q-5 -2 -7 3q-2 7 4 9
q5 2 7 -5q2 -5 -4 -7zM401 265q-5 -2 -7 3q-2 6 3 8q6 2 7 -4q2 -5 -3 -7zM119 261q-5 -2 -7 4q-2 5 3 7t7 -3q2 -6 -3 -8zM68 270q6 2 8 -4q2 -5 -4 -7q-5 -2 -7 4q-2 5 3 7zM278 256q-5 -2 -7 4q-2 5 4 7q5 2 7 -4q2 -5 -4 -7zM326 256q-4 -1 -8 4q-2 5 4 7q5 2 7 -3
q2 -6 -3 -8zM373 255q-5 -2 -7 4q-2 5 4 7q5 2 7 -4q2 -5 -4 -7zM232 254q-5 -2 -7 4q-3 5 3 7q5 2 7 -4q2 -5 -3 -7zM90 252q-5 -2 -7 3q-2 6 4 8q5 2 7 -4q2 -5 -4 -7zM250 247q-6 -2 -8 3q-1 4 4 8q5 2 7 -4q2 -5 -3 -7zM297 247q-5 -2 -7 3q-2 6 3 8q6 2 8 -4
q2 -5 -4 -7zM341 256q5 2 7 -3t-3 -7q-6 -2 -8 3t4 7zM203 245q-5 -2 -7 3t3 7t7 -3q3 -5 -3 -7zM61 253q5 0 5 -5q0 -6 -5 -6q-6 0 -6 6q0 5 6 5zM222 237q-5 -2 -7 4q-2 5 3 7t7 -3q2 -6 -3 -8zM266 248q5 2 7 -3q2 -6 -4 -8q-5 -2 -7 4q-2 5 4 7zM317 236q-5 -2 -7 4
q-3 5 3 7q5 2 7 -4q3 -5 -3 -7zM77 244q6 2 8 -4q2 -5 -4 -7q-5 -2 -7 4q-3 5 3 7zM193 228q-5 -2 -7 3q-2 6 4 8q5 2 7 -4q2 -5 -4 -7zM241 228q-6 -2 -8 4q-2 5 4 7q5 2 7 -4q2 -5 -3 -7zM288 227q-5 -2 -7 3q-2 6 4 8q5 2 7 -4q2 -5 -4 -7zM96 236q5 2 7 -3t-4 -7
q-5 -2 -7 3t4 7zM57 231q2 -5 -5 -7q-5 -2 -7 3t4 7t8 -3zM166 217q-6 -2 -8 4t4 8q5 2 7 -3q2 -7 -3 -9zM213 218q-7 -2 -9 3q-2 6 5 8q5 2 7 -3q2 -6 -3 -8zM72 215q-6 -2 -8 4t4 8q5 2 7 -4t-3 -8zM140 215q2 -5 -3 -7t-7 3q-2 6 3 8t7 -4zM180 219q5 2 7 -4q2 -5 -3 -7
t-7 4q-2 5 3 7zM90 206q-5 -2 -7 3q-2 6 3 8q6 2 8 -4q2 -5 -4 -7zM106 209q5 3 7 -3t-4 -8t-8 4q-2 5 5 7zM152 209q6 2 8 -3t-5 -7q-5 -2 -7 3t4 7zM66 204q2 -6 -4 -8q-5 -2 -7 4q-3 5 4 7q5 2 7 -3zM81 189q-6 -2 -8 4q-2 5 4 7q5 2 7 -4q2 -5 -3 -7zM128 189
q-6 -2 -8 4q-2 5 4 7q5 2 7 -4q2 -5 -3 -7zM99 180q-5 -2 -7 3t3 7t7 -3t-3 -7zM75 177q2 -6 -4 -8q-5 -2 -7 5q-2 5 4 7q5 2 7 -4zM116 180q5 2 7 -4t-4 -8q-5 -2 -7 5q-2 5 4 7zM133 172q6 2 8 -4q2 -5 -4 -7q-5 -2 -7 3t3 8zM91 159q-6 -2 -8 3t4 7q5 2 7 -3t-3 -7z
M109 151q-6 -2 -8 4q-2 5 5 7q5 2 7 -4q2 -5 -4 -7zM128 142q-5 -2 -7 3q-2 6 4 8q5 2 7 -4q2 -5 -4 -7zM84 149q2 -5 -3 -7t-7 3t3 7t7 -3zM144 145q6 0 6 -5q0 -6 -6 -6q-5 0 -5 6q0 5 5 5zM103 138q0 -6 -5 -6q-6 0 -6 6q0 5 6 5q5 0 5 -5zM118 125q-5 -2 -7 4q-2 5 4 7
q5 2 7 -4q2 -5 -4 -7zM86 126q5 2 7 -3q2 -6 -3 -8q-6 -2 -8 3q-2 6 4 8zM137 115q-5 -2 -7 3q-1 6 3 8q6 2 8 -3q2 -6 -4 -8zM148 111q-2 5 3 7t9 -4q2 -5 -5 -7q-5 -2 -7 4zM113 112q2 -5 -4 -7q-6 -3 -8 4q-2 5 5 7q5 2 7 -4zM131 105q2 -5 -4 -7q-5 -2 -7 3q-2 6 4 8
q5 2 7 -4zM171 109q5 2 7 -4q2 -5 -3 -7t-7 3q-2 6 3 8zM373 59q9 3 11 4q-24 29 -62 37t-56 -13q-24 3 -34 0q13 -13 25 -20q17 -8 29 -12q18 -5 38 -5q22 0 49 9zM150 96q1 -4 -4 -8q-5 -2 -7 4q-2 5 3 7q6 2 8 -3zM168 88q2 -5 -3 -7t-7 4q-2 5 3 7t7 -4zM115 90
q5 2 7 -4q2 -5 -4 -7q-5 -2 -7 4q-2 5 4 7zM133 82q5 2 7 -3t-4 -7q-5 -2 -7 3t4 7zM177 75q-2 5 3 7t7 -3t-3 -7t-7 3zM205 72q2 -7 -3 -9q-6 -2 -8 4t4 8q5 2 7 -3zM151 73q7 2 9 -5q3 -5 -5 -7q-5 -2 -7 4t3 8zM177 61q2 -5 -3 -7t-7 3q-2 6 3 8t7 -4zM189 55q5 2 7 -3
t-3 -7t-7 3q-3 5 3 7zM208 48q5 2 7 -4q2 -5 -3 -7q-7 -2 -9 4q-2 5 5 7zM227 39q5 2 7 -4q2 -5 -4 -7q-5 -2 -7 3q-2 6 4 8zM179 38q5 2 7 -3t-3 -7t-7 3t3 7zM244 31q6 2 8 -3q2 -6 -4 -8q-5 -2 -7 4q-2 5 3 7zM311 24q5 2 7 -4t-3 -8q-6 -2 -8 4q-2 7 4 8zM264 22
q5 2 7 -5q3 -5 -3 -7q-5 -2 -7 4t3 8zM282 13q5 2 7 -3t-3 -7t-7 3t3 7z" />
    <glyph glyph-name="tt" unicode="tt" horiz-adv-x="786" 
d="M641 63q45 0 85 24v-67q-23 -18 -45.5 -26.5t-57.5 -8.5q-62 0 -95.5 38t-33.5 103v297h-271v-293q0 -67 65 -67q45 0 85 24v-67q-23 -18 -45.5 -26.5t-57.5 -8.5q-62 0 -95.5 38t-33.5 103v297h-96v24q87 39 140 197h38v-144h197q48 0 80.5 32.5t57.5 101.5h18v-134h146
v-77h-146v-293q0 -67 65 -67z" />
    <glyph glyph-name=".notdef" horiz-adv-x="480" 
d="M394 720v-960h-305v960h305zM320 656h-159v-32h63v-36h-64v-31h160v31h-64v36h64v32zM256 532h-96v-100h160v33h-64v67zM224 499v-34h-32v34h32zM320 406h-160v-32h64v-35h-64v-32h96v67h64v32zM320 348h-32v-63h-128v-33h160v96zM320 231h-96v-53h32v22h32v-45h-96v76
h-32v-108h160v108zM320 65h-160v-108h160v108zM288 34v-46h-96v46h96zM320 -65h-160v-32h68l-68 -45v-32h160v32h-98l67 45h31v32z" />
    <glyph glyph-name=".null" horiz-adv-x="0" 
 />
    <glyph glyph-name="nonmarkingreturn" horiz-adv-x="341" 
 />
    <glyph glyph-name="space" unicode=" " horiz-adv-x="300" 
 />
    <glyph glyph-name="exclam" unicode="!" horiz-adv-x="300" 
d="M191 670v-450h-82v450h82zM150 122q29 0 49.5 -20.5t20.5 -49.5t-21 -49.5t-49 -20.5q-29 0 -49.5 20.5t-20.5 49.5t20.5 49.5t49.5 20.5z" />
    <glyph glyph-name="quotedbl" unicode="&#x22;" horiz-adv-x="442" 
d="M162 695v-254h-82v254h82zM362 695v-254h-82v254h82z" />
    <glyph glyph-name="numbersign" unicode="#" horiz-adv-x="770" 
d="M690 408h-125l-51 -168h106v-70h-128l-52 -170h-68l52 170h-164l-52 -170h-68l52 170h-112v70h133l51 168h-114v80h138l55 182h71l-56 -182h162l55 182h71l-56 -182h100v-80zM445 240l51 168h-163l-51 -168h163z" />
    <glyph glyph-name="dollar" unicode="$" horiz-adv-x="550" 
d="M472 190q0 -63 -47.5 -108.5t-119.5 -57.5v-84h-72v83q-73 8 -145 57v85q91 -64 186 -64q48 0 81 23.5t33 62.5q0 52 -87 87l-111 46q-63 26 -88 64.5t-25 93.5q0 60 44.5 106.5t111.5 59.5v66h72v-62q69 -6 134 -48v-84q-13 10 -30 19t-36.5 17t-42 12.5t-42.5 4.5
q-47 0 -86.5 -24.5t-39.5 -69.5q0 -34 22.5 -54t67.5 -38l93 -38q66 -27 96.5 -63t30.5 -92z" />
    <glyph glyph-name="percent" unicode="%" horiz-adv-x="824" 
d="M588 690l56 -27l-411 -683l-53 27zM192 685q44 0 79 -20.5t54 -55.5t19 -77q0 -65 -42.5 -109t-109.5 -44t-109.5 44t-42.5 109q0 64 42.5 108.5t109.5 44.5zM193 617q-35 0 -59 -25t-24 -60q0 -36 24 -61t59 -25q34 0 58 25.5t24 60.5t-24 60t-58 25zM632 291
q66 0 109 -44.5t43 -108.5q0 -65 -42.5 -109t-109.5 -44t-109.5 44t-42.5 109q0 42 19 77t54 55.5t79 20.5zM633 223q-35 0 -59 -25t-24 -60q0 -17 6.5 -33t17.5 -27.5t26.5 -18.5t32.5 -7q23 0 41.5 11.5t29.5 31.5t11 43q0 35 -24 60t-58 25z" />
    <glyph glyph-name="ampersand" unicode="&#x26;" horiz-adv-x="709" 
d="M659 0h-111q-27 27 -79 81q-84 -96 -199 -96q-98 0 -159 51.5t-61 133.5q0 29 9.5 54t24 43t38 35.5t44 29.5t49.5 26q-40 42 -61 77.5t-21 80.5q0 81 53.5 125t129.5 44q72 0 128.5 -44.5t56.5 -118.5q0 -55 -31.5 -92t-92.5 -76q-15 -10 -29 -17q50 -58 114 -127
q18 27 84 140h98q-69 -123 -124 -202zM232 512q0 -28 16 -54.5t46 -60.5q52 27 80 55.5t28 69.5q0 36 -26.5 55.5t-59.5 19.5q-34 0 -59 -20.5t-25 -64.5zM273 73q48 0 79 17.5t59 51.5q-94 105 -139 156q-60 -30 -91.5 -58.5t-31.5 -69.5q0 -45 34.5 -71t89.5 -26z" />
    <glyph glyph-name="quotesingle" unicode="'" horiz-adv-x="242" 
d="M162 670v-254h-82v254h82z" />
    <glyph glyph-name="parenleft" unicode="(" horiz-adv-x="363" 
d="M323 690q-40 -44 -75 -120.5t-55.5 -163.5t-20.5 -161q0 -118 44.5 -247t106.5 -198h-91q-66 68 -114 191.5t-48 253.5q0 124 48.5 251t113.5 194h91z" />
    <glyph glyph-name="parenright" unicode=")" horiz-adv-x="393" 
d="M70 690h91q42 -43 78.5 -113.5t60 -159.5t23.5 -172q0 -130 -48 -253.5t-114 -191.5h-91q62 69 106.5 198t44.5 247q0 112 -45 244.5t-106 200.5z" />
    <glyph glyph-name="asterisk" unicode="*" horiz-adv-x="494" 
d="M283 705l-6 -122l104 44l23 -68l-108 -31l76 -95l-58 -42l-67 103l-67 -103l-58 42l76 95l-108 31l23 68l104 -44l-6 122h72z" />
    <glyph glyph-name="plus" unicode="+" horiz-adv-x="550" 
d="M470 358v-90h-150v-151h-90v151h-150v90h150v150h90v-150h150z" />
    <glyph glyph-name="comma" unicode="," horiz-adv-x="282" 
d="M120 118l82 -28l-90 -267l-62 16z" />
    <glyph glyph-name="hyphen" unicode="-" horiz-adv-x="421" 
d="M361 298v-90h-301v90h301z" />
    <glyph glyph-name="period" unicode="." horiz-adv-x="300" 
d="M150 122q29 0 49.5 -20.5t20.5 -49.5q0 -28 -21 -49t-49 -21q-29 0 -49.5 20.5t-20.5 49.5t20.5 49.5t49.5 20.5z" />
    <glyph glyph-name="slash" unicode="/" horiz-adv-x="414" 
d="M374 705l-266 -905h-68l263 905h71z" />
    <glyph glyph-name="zero" unicode="0" horiz-adv-x="550" 
d="M278 685q62 0 111.5 -30t80 -80.5t46 -112t15.5 -127.5t-15.5 -127.5t-46 -112t-80 -80.5t-111.5 -30t-111.5 30t-80 80.5t-46 112t-15.5 127.5t15.5 127.5t46 112t80 80.5t111.5 30zM278 597q-32 0 -59.5 -15t-47 -40t-33.5 -58.5t-21 -71.5t-7 -77q0 -67 18.5 -125.5
t57.5 -97.5t92 -39q40 0 72.5 22.5t53 60t31.5 83.5t11 96q0 67 -18.5 125.5t-57.5 97.5t-92 39z" />
    <glyph glyph-name="one" unicode="1" horiz-adv-x="550" 
d="M331 80h140v-80h-363v80h133v436q-19 -16 -42.5 -27t-40 -15.5t-43.5 -9.5v86q103 27 172 120h44v-590z" />
    <glyph glyph-name="two" unicode="2" horiz-adv-x="550" 
d="M256 685q100 0 161 -53.5t61 -144.5q0 -28 -5 -53t-21 -54.5t-27 -48.5t-43 -56.5t-47 -54.5t-61.5 -67t-65.5 -70h275v-83h-420v36q35 39 81.5 89.5t73.5 80t59.5 66.5t50.5 60.5t34.5 49t23.5 46t7 39.5q0 63 -41 96.5t-104 33.5q-84 0 -165 -75v94q31 28 76 48.5
t97 20.5z" />
    <glyph glyph-name="three" unicode="3" horiz-adv-x="550" 
d="M246 685q99 0 163.5 -55t64.5 -138q0 -26 -9 -49t-23 -39t-32 -29t-35 -20.5t-34 -12.5q48 -13 90.5 -55.5t42.5 -103.5q0 -85 -63.5 -141.5t-161.5 -56.5q-55 0 -102 18.5t-76 45.5v99q7 -5 27 -20.5t32 -23t32 -18t42 -15.5t47 -5q61 0 99.5 32.5t38.5 89.5
q0 48 -43 81.5t-100 33.5h-60v80h60q31 0 57.5 7t45.5 20.5t29.5 33t10.5 43.5q0 51 -42.5 84t-103.5 33q-47 0 -82.5 -19.5t-69.5 -54.5v99q13 12 30.5 22t37.5 18t42.5 12t44.5 4z" />
    <glyph glyph-name="four" unicode="4" horiz-adv-x="550" 
d="M423 670v-446h105v-76h-105v-148h-90v148h-306v33q110 118 201.5 236t161.5 253h33zM333 450q-90 -141 -166 -226h166v226z" />
    <glyph glyph-name="five" unicode="5" horiz-adv-x="550" 
d="M463 670v-83h-264v-179q35 14 85 14q55 0 102 -26.5t75.5 -74t28.5 -104.5q0 -102 -70 -167t-177 -65q-51 0 -100.5 21t-79.5 48v99q2 -2 7 -6q28 -23 47 -36.5t55.5 -29t70.5 -15.5q69 0 115.5 40t46.5 103q0 59 -49 96t-118 37q-50 0 -129 -30v358h354z" />
    <glyph glyph-name="six" unicode="6" horiz-adv-x="550" 
d="M441 670q-11 -10 -55.5 -50.5t-70.5 -66t-63 -63.5t-60.5 -72t-34.5 -64q65 81 148 81q94 0 152.5 -62t58.5 -146q0 -59 -26.5 -114t-79.5 -91.5t-121 -36.5q-67 0 -121.5 30.5t-87 90t-32.5 137.5q0 26 6 54t14 52t23.5 52.5t27.5 48.5t33.5 47.5t33.5 43t36 41l32 34
t30.5 31l23.5 23.5h133zM284 354q-59 0 -105 -39t-46 -98q0 -66 46 -108.5t105 -42.5t103 42.5t44 108.5q0 39 -21 71t-54.5 49t-71.5 17z" />
    <glyph glyph-name="seven" unicode="7" horiz-adv-x="550" 
d="M514 670v-42q-69 -99 -112.5 -169.5t-80 -148.5t-53 -153t-16.5 -157h-103q0 38 4 74t14.5 73t19.5 66t29 67.5t31 60.5t37.5 63.5t38 59t43 63t41.5 60.5h-356v83h463z" />
    <glyph glyph-name="eight" unicode="8" horiz-adv-x="550" 
d="M275 685q85 0 143 -50t58 -128q0 -98 -97 -154q50 -23 83.5 -67.5t33.5 -98.5q0 -86 -62 -144t-159 -58t-159 58t-62 144q0 54 33.5 98.5t83.5 67.5q-97 56 -97 154q0 78 58 128t143 50zM275 604q-45 0 -80.5 -31t-35.5 -76q0 -44 35.5 -72.5t80.5 -28.5t80.5 28.5
t35.5 72.5q0 45 -35.5 76t-80.5 31zM275 312q-52 0 -94 -35.5t-42 -84.5q0 -51 39.5 -88.5t96.5 -37.5t96.5 37.5t39.5 88.5q0 32 -20 60t-51.5 44t-64.5 16z" />
    <glyph glyph-name="nine" unicode="9" horiz-adv-x="550" 
d="M121 0q13 12 46 42t56 51.5t55.5 54t54.5 58t42.5 55.5t29.5 55q-65 -81 -148 -81q-94 0 -152.5 62t-58.5 146q0 59 26.5 114t79.5 91.5t121 36.5q67 0 121.5 -30.5t87 -90t32.5 -137.5q0 -40 -12 -82t-35 -82.5t-45 -73t-55 -70t-51 -56.5t-46 -47l-16 -16h-133z
M278 316q59 0 105 39t46 98q0 66 -46 108.5t-105 42.5t-103 -42.5t-44 -108.5q0 -59 44.5 -98t102.5 -39z" />
    <glyph glyph-name="colon" unicode=":" horiz-adv-x="300" 
d="M150 522q29 0 49.5 -20.5t20.5 -49.5t-21 -49.5t-49 -20.5q-29 0 -49.5 20.5t-20.5 49.5t20.5 49.5t49.5 20.5zM150 122q29 0 49.5 -20.5t20.5 -49.5t-21 -49.5t-49 -20.5q-29 0 -49.5 20.5t-20.5 49.5t20.5 49.5t49.5 20.5z" />
    <glyph glyph-name="semicolon" unicode=";" horiz-adv-x="352" 
d="M191 522q29 0 49.5 -20.5t20.5 -49.5t-20.5 -49.5t-49.5 -20.5t-49.5 20.5t-20.5 49.5t20.5 49.5t49.5 20.5zM150 118l82 -28l-90 -267l-62 16z" />
    <glyph glyph-name="less" unicode="&#x3c;" horiz-adv-x="500" 
d="M460 592v-98l-306 -191l306 -205v-98l-400 276v51z" />
    <glyph glyph-name="equal" unicode="=" horiz-adv-x="551" 
d="M471 448v-90h-391v90h391zM471 263v-90h-391v90h391z" />
    <glyph glyph-name="greater" unicode="&#x3e;" horiz-adv-x="500" 
d="M40 592l400 -265v-51l-400 -276v98l306 205l-306 191v98z" />
    <glyph glyph-name="question" unicode="?" horiz-adv-x="560" 
d="M265 685q91 0 153 -55.5t62 -139.5q0 -34 -19 -65.5t-46 -54.5t-54 -44.5t-45 -43.5t-17 -43l1 -21h-97v40q0 20 18 42t43.5 42.5t51.5 41t44 45t18 48.5q0 33 -14 58t-42 40t-67 15q-58 0 -97.5 -22.5t-77.5 -70.5v109q28 34 78.5 56.5t106.5 22.5zM256 122
q29 0 49.5 -20.5t20.5 -49.5t-21 -49.5t-49 -20.5q-29 0 -49.5 20.5t-20.5 49.5t20.5 49.5t49.5 20.5z" />
    <glyph glyph-name="at" unicode="@" horiz-adv-x="824" 
d="M412 612q98 0 179.5 -39.5t132 -118t50.5 -181.5q0 -89 -58 -153t-138 -64q-42 0 -70.5 20t-36.5 53q-54 -73 -136 -73q-70 0 -109 55t-25 132q10 59 40.5 103.5t75 68.5t98.5 24q68 0 107 -56l9 49h72l-48 -208q-5 -22 -7.5 -36t-2 -28t5 -22t15 -13t26.5 -5q39 0 69 41
t30 112q0 122 -79 192.5t-200 70.5q-118 0 -198.5 -84t-80.5 -209q0 -124 77 -199.5t202 -75.5q70 0 121 15.5t115 51.5l36 -61q-150 -81 -272 -81q-76 0 -142.5 25t-115 70t-76.5 111t-28 144q0 104 50 189.5t133 132.5t179 47zM414 365q-56 0 -90.5 -33t-45.5 -89
q-11 -53 10 -85.5t68 -32.5q51 0 86.5 28t48.5 84l19 82q-40 46 -96 46z" />
    <glyph glyph-name="A" unicode="A" horiz-adv-x="691" 
d="M573 0l-70 160h-314l-71 -160h-108l313 670h45l313 -670h-108zM226 245h240l-119 273z" />
    <glyph glyph-name="B" unicode="B" horiz-adv-x="685" 
d="M491 348q51 -10 89 -51t38 -108q0 -86 -72.5 -142.5t-191.5 -56.5q-132 0 -244 25v646q108 25 236 25q109 0 176 -52.5t67 -135.5q0 -48 -27.5 -89t-70.5 -61zM340 601q-78 0 -140 -12v-210h157q65 0 102.5 33.5t37.5 81.5q0 51 -45 79t-112 28zM352 75q76 0 125 31
t49 83q0 53 -47 81.5t-120 28.5h-159v-212q64 -12 152 -12z" />
    <glyph glyph-name="C" unicode="C" horiz-adv-x="674" 
d="M403 685q47 0 85 -9.5t64.5 -24.5t51.5 -38v-99q-3 2 -27 19.5t-35.5 24t-35.5 18.5t-49 16.5t-54 4.5q-112 0 -186.5 -74.5t-74.5 -187.5t74.5 -187.5t186.5 -74.5q119 0 221 78v-90q-85 -76 -221 -76q-99 0 -180.5 47.5t-127 127.5t-45.5 175t45.5 175t127 127.5
t180.5 47.5z" />
    <glyph glyph-name="D" unicode="D" horiz-adv-x="759" 
d="M356 686q110 0 191 -46t121.5 -124t40.5 -178q0 -153 -94 -250.5t-259 -97.5q-111 0 -246 25v646q135 25 246 25zM356 601q-73 0 -156 -10v-506q83 -10 156 -10q119 0 190 74t71 189t-71 189t-190 74z" />
    <glyph glyph-name="E" unicode="E" horiz-adv-x="649" 
d="M569 585h-369v-199h326v-85h-326v-216h369v-85h-459v670h459v-85z" />
    <glyph glyph-name="F" unicode="F" horiz-adv-x="635" 
d="M548 585h-348v-224h288v-85h-288v-276h-90v670h438v-85z" />
    <glyph glyph-name="G" unicode="G" horiz-adv-x="701" 
d="M661 366v-275q-41 -44 -109 -75t-149 -31q-99 0 -180.5 47.5t-127 127.5t-45.5 175t45.5 175t127 127.5t180.5 47.5q47 0 85 -9.5t64.5 -24.5t51.5 -38v-99q-3 2 -27 19.5t-35.5 24t-35.5 18.5t-49 16.5t-54 4.5q-112 0 -186.5 -74.5t-74.5 -187.5t74.5 -187.5
t186.5 -74.5q16 0 31 1t27.5 4t22.5 5.5t20 7.5t16 7.5t14 8.5t11 8t10 8t8 7l1 156h-198v80h295z" />
    <glyph glyph-name="H" unicode="H" horiz-adv-x="782" 
d="M582 670h90v-670h-90v303h-382v-303h-90v670h90v-282h382v282z" />
    <glyph glyph-name="I" unicode="I" horiz-adv-x="536" 
d="M426 585h-113v-500h113v-85h-316v85h113v500h-113v85h316v-85z" />
    <glyph glyph-name="J" unicode="J" horiz-adv-x="315" 
d="M205 672v-638q0 -62 -15.5 -110t-46 -82t-67.5 -56.5t-87 -40.5l-44 87q170 61 170 184v656h90z" />
    <glyph glyph-name="K" unicode="K" horiz-adv-x="672" 
d="M537 0l-251 289l-86 -94v-195h-90v670h90v-352l306 352h126l-281 -309l311 -361h-125z" />
    <glyph glyph-name="L" unicode="L" horiz-adv-x="636" 
d="M200 670v-585h369v-85h-459v670h90z" />
    <glyph glyph-name="M" unicode="M" horiz-adv-x="843" 
d="M733 670v-670h-90v485l-207 -221h-24l-212 221v-485h-90v670h28l286 -307l281 307h28z" />
    <glyph glyph-name="N" unicode="N" horiz-adv-x="779" 
d="M669 670v-670h-34l-435 479v-479h-90v670h34l435 -485v485h90z" />
    <glyph glyph-name="O" unicode="O" horiz-adv-x="806" 
d="M403 685q99 0 180.5 -47.5t127 -127.5t45.5 -175t-45.5 -175t-127 -127.5t-180.5 -47.5t-180.5 47.5t-127 127.5t-45.5 175t45.5 175t127 127.5t180.5 47.5zM403 597q-74 0 -134 -34t-93.5 -94t-33.5 -134q0 -113 74.5 -187.5t186.5 -74.5t186.5 74.5t74.5 187.5
t-74.5 187.5t-186.5 74.5z" />
    <glyph glyph-name="P" unicode="P" horiz-adv-x="660" 
d="M377 670q59 0 111.5 -26t87 -77.5t34.5 -117.5q0 -89 -72.5 -154.5t-175.5 -65.5q-90 0 -162 33v-262h-90v670h267zM359 314q74 0 116.5 38.5t42.5 96.5q0 41 -23.5 72.5t-61 47.5t-81.5 16h-152v-241q72 -30 159 -30z" />
    <glyph glyph-name="Q" unicode="Q" horiz-adv-x="831" 
d="M506 -1q166 -63 258 -63v-90q-81 0 -181 39.5t-180 99.5q-99 0 -180.5 47.5t-127 127.5t-45.5 175t45.5 175t127 127.5t180.5 47.5t180.5 -47.5t127 -127.5t45.5 -175q0 -118 -69.5 -211t-180.5 -125zM142 335q0 -113 74.5 -187.5t186.5 -74.5t186.5 74.5t74.5 187.5
t-74.5 187.5t-186.5 74.5q-74 0 -134 -34t-93.5 -94t-33.5 -134z" />
    <glyph glyph-name="R" unicode="R" horiz-adv-x="636" 
d="M626 0h-138l-288 280v-280h-90v670h257q60 0 111.5 -20.5t86.5 -67.5t35 -113q0 -60 -36 -104.5t-89 -65.5t-113 -21q-10 0 -48 2zM352 585h-152v-215q70 -19 149 -19q75 0 117 31.5t42 86t-44.5 85.5t-111.5 31z" />
    <glyph glyph-name="S" unicode="S" horiz-adv-x="523" 
d="M272 680q28 0 52.5 -4.5t45.5 -13t34.5 -16t32.5 -19.5v-93q-79 58 -155 58q-33 0 -63.5 -10t-53 -34.5t-22.5 -58.5q0 -37 24 -57.5t75 -43.5l92 -42q73 -33 106 -71.5t33 -98.5q0 -80 -68 -133t-162 -53q-100 0 -192 65v93q101 -70 204 -70q52 0 89 25.5t37 68.5
q0 33 -27 55.5t-69 40.5l-111 50q-69 31 -96.5 72.5t-27.5 101.5q0 52 30.5 95.5t81.5 68t110 24.5z" />
    <glyph glyph-name="T" unicode="T" horiz-adv-x="611" 
d="M582 670v-85h-231v-582h-90v582h-231v85h552z" />
    <glyph glyph-name="U" unicode="U" horiz-adv-x="752" 
d="M652 672v-407q0 -128 -77.5 -203t-198.5 -75t-198.5 75t-77.5 203v407h90v-404q0 -96 52.5 -143t133.5 -46q82 1 134 47t52 142v404h90z" />
    <glyph glyph-name="V" unicode="V" horiz-adv-x="691" 
d="M681 670l-313 -670h-45l-313 670h108l226 -518l229 518h108z" />
    <glyph glyph-name="W" unicode="W" horiz-adv-x="944" 
d="M934 670l-235 -670h-51l-180 507l-182 -507h-51l-225 670h98l157 -498l177 498l58 -1l172 -497l164 498h98z" />
    <glyph glyph-name="X" unicode="X" horiz-adv-x="644" 
d="M634 670l-263 -345l263 -325h-120l-202 262l-192 -262h-110l251 335l-251 335h120l190 -273l194 273h120z" />
    <glyph glyph-name="Y" unicode="Y" horiz-adv-x="631" 
d="M621 670l-257 -395v-275h-97v262l-257 408h108l196 -316l199 316h108z" />
    <glyph glyph-name="Z" unicode="Z" horiz-adv-x="672" 
d="M605 670v-36l-404 -549h404v-85h-538v36l393 549h-370v85h515z" />
    <glyph glyph-name="bracketleft" unicode="[" horiz-adv-x="379" 
d="M339 690v-90h-162v-710h162v-90h-259v890h259z" />
    <glyph glyph-name="backslash" unicode="\" horiz-adv-x="364" 
d="M61 670l313 -870h-68l-316 870h71z" />
    <glyph glyph-name="bracketright" unicode="]" horiz-adv-x="379" 
d="M40 690h259v-890h-259v90h162v710h-162v90z" />
    <glyph glyph-name="asciicircum" unicode="^" horiz-adv-x="603" 
d="M322 670l221 -360h-88l-160 268l-147 -268h-88l211 360h51z" />
    <glyph glyph-name="underscore" unicode="_" horiz-adv-x="490" 
d="M490 -21v-90h-490v90h490z" />
    <glyph glyph-name="grave" unicode="`" horiz-adv-x="314" 
d="M19 720h114l110 -135h-82z" />
    <glyph glyph-name="a" unicode="a" 
d="M291 510q43 0 87.5 -20.5t76.5 -56.5v67h82v-500h-82v85q-29 -43 -73.5 -71.5t-98.5 -28.5q-98 0 -165.5 72.5t-67.5 184.5q0 122 68 195t173 73zM306 430q-52 0 -91.5 -27t-59.5 -69.5t-20 -91.5q0 -74 45 -125.5t116 -51.5q68 0 114 53t45 133l-1 96q-67 83 -148 83z
" />
    <glyph glyph-name="b" unicode="b" 
d="M331 510q105 0 173 -73t68 -195q0 -112 -67.5 -184.5t-165.5 -72.5q-54 0 -98.5 28.5t-73.5 71.5v-85h-82v720h82v-287q16 18 36 32.5t41 24t43.5 15t43.5 5.5zM316 429q-82 0 -148 -82l-1 -96q-1 -80 44.5 -132.5t114.5 -52.5q71 0 116 51t45 125q0 76 -47 131.5
t-124 55.5z" />
    <glyph glyph-name="c" unicode="c" horiz-adv-x="511" 
d="M311 510q49 0 90 -15.5t60 -33.5v-83q-71 52 -150 52q-78 0 -127 -54t-49 -129t49 -128.5t127 -53.5q79 0 150 52v-83q-18 -18 -59 -33.5t-91 -15.5q-74 0 -134.5 36t-93.5 95.5t-33 130.5q0 108 74.5 185.5t186.5 77.5z" />
    <glyph glyph-name="d" unicode="d" 
d="M537 720v-720h-82v85q-29 -43 -73.5 -71.5t-98.5 -28.5q-48 0 -91 19t-74 52.5t-49.5 81.5t-18.5 104q0 122 68 195t173 73q43 0 87.5 -20.5t76.5 -56.5v287h82zM306 428q-77 0 -124 -55t-47 -131q0 -74 45 -125.5t116 -51.5q69 0 114.5 53t44.5 133l-1 96
q-65 81 -148 81z" />
    <glyph glyph-name="e" unicode="e" horiz-adv-x="571" 
d="M521 267v-49h-384q9 -65 56.5 -109t117.5 -44q94 0 180 88l-1 -89q-24 -29 -74.5 -54t-104.5 -25q-112 0 -186.5 77t-74.5 185q0 109 68.5 186t172.5 77q111 0 170.5 -67.5t59.5 -175.5zM139 288h301q-7 69 -49.5 105.5t-99.5 36.5q-60 0 -100.5 -40t-51.5 -102z" />
    <glyph glyph-name="f" unicode="f" horiz-adv-x="368" 
d="M276 657q-78 -3 -78 -102v-55h146v-77h-146v-423h-82v423h-79v77h79v64q0 82 46.5 126.5t108.5 44.5q51 0 83 -27v-72q-35 23 -78 21z" />
    <glyph glyph-name="g" unicode="g" 
d="M291 510q43 0 87.5 -20.5t76.5 -56.5v67h82v-490q0 -86 -36.5 -147.5t-95 -89.5t-131.5 -28q-33 0 -60 5.5t-50.5 18t-33.5 19t-32 23.5v88q1 -1 14 -11t19 -14t21 -13t26.5 -14t27.5 -11t33 -8.5t35 -2.5q76 0 128.5 41.5t52.5 113.5v105q-29 -43 -73.5 -71.5
t-98.5 -28.5q-98 0 -165.5 72.5t-67.5 184.5q0 122 68 195t173 73zM306 429q-77 0 -124 -55.5t-47 -131.5q0 -74 45 -125t116 -51q69 0 114.5 52.5t44.5 132.5l-1 96q-66 82 -148 82z" />
    <glyph glyph-name="h" unicode="h" horiz-adv-x="585" 
d="M330 510q81 0 133 -53t52 -152v-305h-82l-1 297q0 133 -116 133q-37 0 -76.5 -27.5t-72.5 -70.5v-332h-82v720h82v-299q27 35 71.5 62t91.5 27z" />
    <glyph glyph-name="i" unicode="i" horiz-adv-x="308" 
d="M165 604q-29 0 -48.5 20.5t-19.5 47.5q0 28 19.5 48t48.5 20q28 0 48 -20.5t20 -47.5t-20 -47.5t-48 -20.5zM55 500h161v-500h-82v423h-79v77z" />
    <glyph glyph-name="j" unicode="j" horiz-adv-x="289" 
d="M151 604q-29 0 -48.5 20.5t-19.5 47.5q0 28 19.5 48t48.5 20q28 0 48 -20.5t20 -47.5t-20 -47.5t-48 -20.5zM204 500v-498q0 -187 -172 -257l-37 74q67 32 97 71.5t30 99.5v433h-79v77h161z" />
    <glyph glyph-name="k" unicode="k" horiz-adv-x="545" 
d="M436 0l-198 228l-71 -66v-162h-82v720h82v-464l249 244h111l-232 -218l245 -282h-104z" />
    <glyph glyph-name="l" unicode="l" horiz-adv-x="252" 
d="M167 720v-720h-82v720h82z" />
    <glyph glyph-name="m" unicode="m" horiz-adv-x="927" 
d="M662 510q82 0 138.5 -53.5t56.5 -151.5v-305h-82l-1 297q0 43 -15 73t-43.5 45t-68 15t-70.5 -23.5t-65 -66.5v-340h-82l-1 297q0 64 -33 98.5t-93 34.5q-69 0 -136 -82v-348h-82v500h82v-64q66 74 150 74q56 0 102 -26t71 -76q42 49 81.5 75.5t90.5 26.5z" />
    <glyph glyph-name="n" unicode="n" horiz-adv-x="585" 
d="M330 510q81 0 133 -53t52 -152v-305h-82l-1 297q0 133 -116 133q-37 0 -76.5 -27.5t-72.5 -70.5v-332h-82v500h82v-79q27 35 71.5 62t91.5 27z" />
    <glyph glyph-name="o" unicode="o" 
d="M311 510q112 0 186.5 -77.5t74.5 -185.5t-74.5 -185t-186.5 -77q-74 0 -134.5 36t-93.5 95.5t-33 130.5q0 108 74.5 185.5t186.5 77.5zM311 430q-78 0 -127 -54t-49 -129t49 -128.5t127 -53.5t127 53.5t49 128.5t-49 129t-127 54z" />
    <glyph glyph-name="p" unicode="p" 
d="M339 510q99 0 166 -70t67 -182q0 -122 -68.5 -197.5t-172.5 -75.5q-42 0 -86.5 22.5t-77.5 59.5v-307h-82v740h82v-85q28 42 73 68.5t99 26.5zM326 430q-69 0 -114.5 -51t-44.5 -130l1 -96q34 -43 69.5 -65.5t78.5 -22.5q77 0 124 58t47 135q0 74 -44.5 123t-116.5 49z
" />
    <glyph glyph-name="q" unicode="q" 
d="M291 510q43 0 87.5 -20.5t76.5 -56.5v67h82v-740h-82v325q-29 -43 -73.5 -71.5t-98.5 -28.5q-98 0 -165.5 72.5t-67.5 184.5q0 122 68 195t173 73zM306 429q-52 0 -91.5 -26.5t-59.5 -69t-20 -91.5q0 -74 45 -125t116 -51q69 0 114.5 52.5t44.5 132.5l-1 96
q-66 82 -148 82z" />
    <glyph glyph-name="r" unicode="r" horiz-adv-x="393" 
d="M321 510q29 0 52 -10v-95q-32 19 -64 19q-46 0 -77.5 -31t-64.5 -91v-302h-82v500h82v-100q19 33 44 58t53.5 38.5t56.5 13.5z" />
    <glyph glyph-name="s" unicode="s" horiz-adv-x="428" 
d="M234 510q41 0 79 -11.5t58 -26.5v-88q-61 46 -131 46q-44 0 -69 -20.5t-25 -47.5q0 -49 61 -70l84 -30q97 -34 97 -124q0 -64 -52.5 -108.5t-131.5 -44.5q-41 0 -87.5 14.5t-66.5 29.5v88q24 -18 68.5 -35t79.5 -17q46 0 74 20.5t28 52.5q0 23 -17 37t-55 28l-74 27
q-55 20 -75.5 52.5t-20.5 79.5q0 65 48.5 106.5t127.5 41.5z" />
    <glyph glyph-name="t" unicode="t" horiz-adv-x="433" 
d="M223 644v-144h146v-77h-146v-293q0 -67 65 -67q45 0 85 24v-67q-45 -35 -103 -35q-62 0 -95.5 38t-33.5 103v297h-96v24q87 39 140 197h38z" />
    <glyph glyph-name="u" unicode="u" horiz-adv-x="564" 
d="M494 500v-296q0 -97 -60 -155.5t-152 -58.5t-152 58.5t-60 155.5v296h85v-296q0 -62 37 -98t90 -36t90 36t37 98v296h85z" />
    <glyph glyph-name="v" unicode="v" horiz-adv-x="541" 
d="M526 500l-235 -500h-51l-225 500h98l151 -368l164 368h98z" />
    <glyph glyph-name="w" unicode="w" horiz-adv-x="756" 
d="M741 500l-175 -500h-51l-137 353l-137 -353h-51l-175 500h98l111 -351l131 351h46l131 -351l111 351h98z" />
    <glyph glyph-name="x" unicode="x" horiz-adv-x="553" 
d="M535 500l-207 -240l210 -260h-106l-155 207l-156 -207h-106l210 260l-207 240h106l153 -180l152 180h106z" />
    <glyph glyph-name="y" unicode="y" horiz-adv-x="571" 
d="M458 500h98l-368 -740h-95l143 270l-221 470h98l175 -368z" />
    <glyph glyph-name="z" unicode="z" horiz-adv-x="549" 
d="M484 500v-27l-301 -396h311v-77h-439v27l291 396h-271v77h409z" />
    <glyph glyph-name="braceleft" unicode="{" horiz-adv-x="434" 
d="M394 690v-90h-44q-61 0 -79.5 -35t-18.5 -120v-105q0 -61 -65 -95q65 -34 65 -95v-105q0 -43 3.5 -69t13.5 -47t29.5 -30t51.5 -9h44v-90h-64q-77 0 -126 52.5t-49 129.5v136q0 47 -14.5 64.5t-60.5 17.5v90q46 0 60.5 17.5t14.5 64.5v136q0 50 21.5 91.5t62 66
t91.5 24.5h64z" />
    <glyph glyph-name="bar" unicode="|" horiz-adv-x="230" 
d="M150 705v-905h-70v905h70z" />
    <glyph glyph-name="braceright" unicode="}" horiz-adv-x="434" 
d="M40 690h64q77 0 126 -52.5t49 -129.5v-136q0 -32 5.5 -48.5t22 -25t47.5 -8.5v-90q-31 0 -47.5 -8.5t-22 -25t-5.5 -48.5v-136q0 -50 -21.5 -91.5t-62 -66t-91.5 -24.5h-64v90h44q61 0 79.5 35t18.5 120v105q0 61 65 95q-65 34 -65 95v105q0 85 -18.5 120t-79.5 35h-44
v90z" />
    <glyph glyph-name="asciitilde" unicode="~" horiz-adv-x="524" 
d="M464 416q0 -53 -36 -89t-90 -36q-30 0 -54 9.5t-36.5 21.5t-29 21.5t-32.5 9.5q-20 0 -32 -16t-12 -40h-82q0 26 9.5 49t26 40t40 26.5t50.5 9.5q21 0 38.5 -4.5t29 -11.5t22.5 -15t19.5 -15t19.5 -11.5t23 -4.5q21 0 32.5 16t11.5 40h82z" />
    <glyph glyph-name="exclamdown" unicode="&#xa1;" horiz-adv-x="300" 
d="M150 364q-29 0 -49.5 20.5t-20.5 49.5t20.5 49.5t49.5 20.5q28 0 49 -21t21 -49q0 -29 -20.5 -49.5t-49.5 -20.5zM191 -184h-82v450h82v-450z" />
    <glyph glyph-name="cent" unicode="&#xa2;" horiz-adv-x="511" 
d="M461 378q-65 48 -136 52v-365q71 4 136 52v-83q-17 -17 -54 -31.5t-82 -17.5v-65h-72v71q-60 13 -106 50t-71.5 91t-25.5 115q0 93 56.5 165.5t146.5 91.5v76h72v-70q45 -3 82 -18t54 -31v-83zM135 247q0 -59 32 -106.5t86 -66.5v347q-54 -19 -86 -67t-32 -107z" />
    <glyph glyph-name="sterling" unicode="&#xa3;" horiz-adv-x="513" 
d="M371 602q-49 -1 -83.5 -40t-34.5 -112v-72h156v-80h-156v-35q0 -110 -61 -173h289v-90h-391v70q40 14 60.5 71.5t20.5 121.5v35h-79v80h79v81q0 105 60 163t145 58q38 0 71.5 -14t51.5 -33v-80q-58 50 -128 49z" />
    <glyph glyph-name="currency" unicode="&#xa4;" horiz-adv-x="542" 
d="M492 85l-54 -51l-64 64q-49 -30 -103 -30t-103 30l-64 -64l-54 51l65 62q-35 46 -35 105t35 105l-62 62l48 51l66 -64q49 30 104 30t104 -30l66 64l48 -51l-62 -62q35 -46 35 -105q0 -58 -34 -105zM156 252q0 -33 16 -58.5t42 -38.5t57 -13q48 0 81.5 30t33.5 80
t-33.5 80t-81.5 30t-81.5 -30t-33.5 -80z" />
    <glyph glyph-name="yen" unicode="&#xa5;" horiz-adv-x="631" 
d="M621 670l-216 -332h122v-70h-163v-55h163v-70h-163v-143h-97v143h-162v70h162v49l-4 6h-158v70h114l-209 332h108l196 -316l199 316h108z" />
    <glyph glyph-name="brokenbar" unicode="&#xa6;" horiz-adv-x="230" 
d="M150 705v-416h-70v416h70zM150 216v-416h-70v416h70z" />
    <glyph glyph-name="section" unicode="&#xa7;" horiz-adv-x="523" 
d="M419 55q54 -45 54 -119q0 -80 -68 -133t-162 -53q-100 0 -192 65v93q101 -70 204 -70q52 0 89 25.5t37 68.5q0 33 -27 55.5t-69 40.5l-111 50q-69 31 -96.5 72.5t-27.5 101.5q0 64 47 116q-47 46 -47 124q0 52 30.5 95.5t81.5 68t110 24.5q28 0 52.5 -4.5t45.5 -13
t34.5 -16t32.5 -19.5v-93q-79 58 -155 58q-33 0 -63.5 -10t-53 -34.5t-22.5 -58.5q0 -37 24 -57.5t75 -43.5l92 -42q73 -33 106 -71.5t33 -98.5q0 -70 -54 -121zM242 148l92 -42q4 -1 8 -4q39 26 39 70q0 33 -27 55.5t-69 40.5l-109 49q-33 -26 -33 -68q0 -37 24 -57.5
t75 -43.5z" />
    <glyph glyph-name="dieresis" unicode="&#xa8;" horiz-adv-x="496" 
d="M143 719q26 0 44.5 -18.5t18.5 -44.5t-19 -44.5t-44 -18.5q-26 0 -44.5 18.5t-18.5 44.5t18.5 44.5t44.5 18.5zM353 719q26 0 44.5 -18.5t18.5 -44.5t-19 -44.5t-44 -18.5q-26 0 -44.5 18.5t-18.5 44.5t18.5 44.5t44.5 18.5z" />
    <glyph glyph-name="copyright" unicode="&#xa9;" horiz-adv-x="884" 
d="M442 723q166 0 279 -113.5t113 -274.5t-113 -274.5t-279 -113.5t-279 113.5t-113 274.5t113 274.5t279 113.5zM442 649q-138 0 -223.5 -87.5t-85.5 -226.5t85.5 -226.5t223.5 -87.5t223.5 87.5t85.5 226.5t-85.5 226.5t-223.5 87.5zM462 552q40 0 73 -12.5t48 -27.5v-67
q-57 42 -121 42q-63 0 -103 -43.5t-40 -104.5t40 -104.5t103 -43.5q64 0 121 42v-67q-14 -15 -47 -27.5t-74 -12.5q-92 0 -152 62t-60 151q0 88 60.5 150.5t151.5 62.5z" />
    <glyph glyph-name="registered" unicode="&#xae;" horiz-adv-x="884" 
d="M442 723q166 0 279 -113.5t113 -274.5t-113 -274.5t-279 -113.5t-279 113.5t-113 274.5t113 274.5t279 113.5zM442 21q138 0 223.5 87.5t85.5 226.5t-85.5 226.5t-223.5 87.5t-223.5 -87.5t-85.5 -226.5t85.5 -226.5t223.5 -87.5zM468 301q-4 0 -13.5 0.5t-15.5 0.5
l185 -166h-82l-170 166v-166h-54v397h153q56 0 97 -30.5t41 -88.5q0 -52 -42.5 -82.5t-98.5 -30.5zM462 483h-90v-127q39 -12 88 -12q45 0 69.5 18.5t24.5 51.5t-26 51t-66 18z" />
    <glyph glyph-name="macron" unicode="&#xaf;" horiz-adv-x="530" 
d="M440 718v-80h-350v80h350z" />
    <glyph glyph-name="degree" unicode="&#xb0;" horiz-adv-x="443" 
d="M222 685q74 0 122.5 -50.5t48.5 -121.5q0 -72 -48.5 -122.5t-122.5 -50.5q-49 0 -88.5 23.5t-61.5 63t-22 86.5q0 35 13 66.5t35.5 54.5t54.5 37t69 14zM222 608q-39 0 -66.5 -28.5t-27.5 -66.5q0 -40 27.5 -68.5t66.5 -28.5t66 28.5t27 68.5q0 18 -7.5 35.5t-19.5 30.5
t-29.5 21t-36.5 8z" />
    <glyph glyph-name="plusminus" unicode="&#xb1;" horiz-adv-x="531" 
d="M220 167v121h-140v90h140v120h90v-120h140v-90h-140v-121h-90zM80 90h371v-90h-371v90z" />
    <glyph glyph-name="acute" unicode="&#xb4;" horiz-adv-x="314" 
d="M294 720l-142 -135h-82l110 135h114z" />
    <glyph glyph-name="paragraph" unicode="&#xb6;" horiz-adv-x="663" 
d="M553 -210h-52v824h-120v-824h-55v502h-50q-44 0 -83 11t-71.5 32.5t-52 59t-19.5 86.5q0 50 19 87.5t52 59t72 32t83 10.5h277v-880z" />
    <glyph glyph-name="periodcentered" unicode="&#xb7;" horiz-adv-x="300" 
d="M150 403q29 0 49.5 -20.5t20.5 -49.5t-21 -49.5t-49 -20.5q-29 0 -49.5 20.5t-20.5 49.5t20.5 49.5t49.5 20.5z" />
    <glyph glyph-name="cedilla" unicode="&#xb8;" horiz-adv-x="353" 
d="M183 2l-6 -72q41 5 68.5 -17.5t27.5 -59.5q0 -41 -29.5 -67t-80.5 -26q-17 0 -40.5 6.5t-37.5 18.5l7 55q40 -21 74 -21q11 0 20 4t14 11t5 16q0 29 -39 29q-18 0 -35 -9l-16 12l14 120h54z" />
    <glyph glyph-name="questiondown" unicode="&#xbf;" horiz-adv-x="560" 
d="M304 364q-29 0 -49.5 20.5t-20.5 49.5q0 28 20.5 49t49.5 21t49.5 -20.5t20.5 -49.5t-20.5 -49.5t-49.5 -20.5zM295 -199q-91 0 -153 55.5t-62 139.5q0 34 19 65.5t46 54.5t54 44.5t45 43.5t17 43l-1 21h97v-40q0 -15 -9.5 -30.5t-25 -30t-34.5 -29t-37.5 -30t-34 -31
t-25 -33.5t-9.5 -35q0 -50 32.5 -81.5t90.5 -31.5t97.5 22.5t77.5 70.5v-109q-28 -34 -78.5 -56.5t-106.5 -22.5z" />
    <glyph glyph-name="Agrave" unicode="&#xc0;" horiz-adv-x="691" 
d="M391 755h-82l-142 135h114zM573 0l-70 160h-314l-71 -160h-108l313 670h45l313 -670h-108zM226 245h240l-119 273z" />
    <glyph glyph-name="Aacute" unicode="&#xc1;" horiz-adv-x="691" 
d="M518 890l-142 -135h-82l110 135h114zM573 0l-70 160h-314l-71 -160h-108l313 670h45l313 -670h-108zM226 245h240l-119 273z" />
    <glyph glyph-name="Acircumflex" unicode="&#xc2;" horiz-adv-x="691" 
d="M346 829l-80 -78h-82l140 139h44l140 -139h-82zM573 0l-70 160h-314l-71 -160h-108l313 670h45l313 -670h-108zM226 245h240l-119 273z" />
    <glyph glyph-name="Atilde" unicode="&#xc3;" horiz-adv-x="691" 
d="M290 822q-17 0 -26.5 -13t-9.5 -33h-68q0 44 29.5 73.5t74.5 29.5q25 0 44.5 -8t30 -17.5t24 -17.5t27.5 -8q17 0 26.5 13t9.5 33h68q0 -44 -29.5 -73.5t-74.5 -29.5q-31 0 -53.5 12.5t-39 25.5t-33.5 13zM573 0l-70 160h-314l-71 -160h-108l313 670h45l313 -670h-108z
M226 245h240l-119 273z" />
    <glyph glyph-name="Adieresis" unicode="&#xc4;" horiz-adv-x="691" 
d="M241 763q-26 0 -44.5 18.5t-18.5 44.5t18.5 44.5t44.5 18.5t44.5 -18.5t18.5 -44.5t-19 -44.5t-44 -18.5zM451 763q-26 0 -44.5 18.5t-18.5 44.5t18.5 44.5t44.5 18.5t44.5 -18.5t18.5 -44.5t-19 -44.5t-44 -18.5zM573 0l-70 160h-314l-71 -160h-108l313 670h45l313 -670
h-108zM226 245h240l-119 273z" />
    <glyph glyph-name="Aring" unicode="&#xc5;" horiz-adv-x="691" 
d="M346 729q-35 0 -59 24.5t-24 58.5t24 58.5t59 24.5t58.5 -24.5t23.5 -58.5t-23.5 -58.5t-58.5 -24.5zM346 854q-17 0 -29 -12.5t-12 -29.5t12 -29.5t29 -12.5q16 0 28 12.5t12 29.5t-12 29.5t-28 12.5zM573 0l-70 160h-314l-71 -160h-108l313 670h45l313 -670h-108z
M226 245h240l-119 273z" />
    <glyph glyph-name="AE" unicode="&#xc6;" horiz-adv-x="1082" 
d="M1002 585h-369v-199h326v-85h-326v-216h369v-85h-459v193h-278l-137 -193h-118l493 670h499v-85zM320 270h223v349l-11 -51z" />
    <glyph glyph-name="Ccedilla" unicode="&#xc7;" horiz-adv-x="674" 
d="M624 61q-79 -70 -202 -76l-5 -55q41 5 68.5 -17.5t27.5 -59.5q0 -27 -13 -48t-38 -33t-59 -12q-17 0 -40.5 6.5t-37.5 18.5l7 55q40 -21 74 -21q11 0 20 4t14 11t5 16q0 29 -39 29q-18 0 -35 -9l-16 12l12 105q-137 13 -227 112.5t-90 235.5q0 95 45.5 175t127 127.5
t180.5 47.5q47 0 85 -9.5t64.5 -24.5t51.5 -38v-99q-3 2 -27 19.5t-35.5 24t-35.5 18.5t-49 16.5t-54 4.5q-112 0 -186.5 -74.5t-74.5 -187.5t74.5 -187.5t186.5 -74.5q119 0 221 78v-90z" />
    <glyph glyph-name="Egrave" unicode="&#xc8;" horiz-adv-x="649" 
d="M385 755h-82l-142 135h114zM569 585h-369v-199h326v-85h-326v-216h369v-85h-459v670h459v-85z" />
    <glyph glyph-name="Eacute" unicode="&#xc9;" horiz-adv-x="649" 
d="M512 890l-142 -135h-82l110 135h114zM569 585h-369v-199h326v-85h-326v-216h369v-85h-459v670h459v-85z" />
    <glyph glyph-name="Ecircumflex" unicode="&#xca;" horiz-adv-x="649" 
d="M340 829l-80 -78h-82l140 139h44l140 -139h-82zM569 585h-369v-199h326v-85h-326v-216h369v-85h-459v670h459v-85z" />
    <glyph glyph-name="Edieresis" unicode="&#xcb;" horiz-adv-x="649" 
d="M235 763q-26 0 -44.5 18.5t-18.5 44.5t18.5 44.5t44.5 18.5t44.5 -18.5t18.5 -44.5t-19 -44.5t-44 -18.5zM445 763q-26 0 -44.5 18.5t-18.5 44.5t18.5 44.5t44.5 18.5t44.5 -18.5t18.5 -44.5t-19 -44.5t-44 -18.5zM569 585h-369v-199h326v-85h-326v-216h369v-85h-459v670
h459v-85z" />
    <glyph glyph-name="Igrave" unicode="&#xcc;" horiz-adv-x="536" 
d="M317 755h-82l-142 135h114zM426 585h-113v-500h113v-85h-316v85h113v500h-113v85h316v-85z" />
    <glyph glyph-name="Iacute" unicode="&#xcd;" horiz-adv-x="536" 
d="M444 890l-142 -135h-82l110 135h114zM426 670v-85h-113v-500h113v-85h-316v85h113v500h-113v85h316z" />
    <glyph glyph-name="Icircumflex" unicode="&#xce;" horiz-adv-x="536" 
d="M272 829l-80 -78h-82l140 139h44l140 -139h-82zM426 670v-85h-113v-500h113v-85h-316v85h113v500h-113v85h316z" />
    <glyph glyph-name="Idieresis" unicode="&#xcf;" horiz-adv-x="536" 
d="M167 763q-26 0 -44.5 18.5t-18.5 44.5t18.5 44.5t44.5 18.5t44.5 -18.5t18.5 -44.5t-19 -44.5t-44 -18.5zM377 763q-26 0 -44.5 18.5t-18.5 44.5t18.5 44.5t44.5 18.5t44.5 -18.5t18.5 -44.5t-19 -44.5t-44 -18.5zM426 670v-85h-113v-500h113v-85h-316v85h113v500h-113
v85h316z" />
    <glyph glyph-name="Eth" unicode="&#xd0;" horiz-adv-x="759" 
d="M356 686q110 0 191 -46t121.5 -124t40.5 -178q0 -153 -94 -250.5t-259 -97.5q-111 0 -246 25v278h-98v90h98v278q135 25 246 25zM356 75q119 0 190 74t71 189t-71 189t-190 74q-73 0 -156 -10v-208h113v-90h-113v-208q83 -10 156 -10z" />
    <glyph glyph-name="Ntilde" unicode="&#xd1;" horiz-adv-x="779" 
d="M561 874q0 -44 -29.5 -73.5t-74.5 -29.5q-25 0 -44.5 8t-30 17.5t-24 17.5t-27.5 8q-17 0 -26.5 -13t-9.5 -33h-68q0 44 29.5 73.5t74.5 29.5q25 0 44.5 -8t30 -17.5t24 -17.5t27.5 -8q12 0 20 6.5t12 16.5t4 23h68zM669 670v-670h-34l-435 479v-479h-90v670h34l435 -485
v485h90z" />
    <glyph glyph-name="Ograve" unicode="&#xd2;" horiz-adv-x="806" 
d="M224 890h114l110 -135h-82zM403 685q99 0 180.5 -47.5t127 -127.5t45.5 -175t-45.5 -175t-127 -127.5t-180.5 -47.5t-180.5 47.5t-127 127.5t-45.5 175t45.5 175t127 127.5t180.5 47.5zM403 597q-112 0 -186.5 -74.5t-74.5 -187.5t74.5 -187.5t186.5 -74.5t186.5 74.5
t74.5 187.5t-74.5 187.5t-186.5 74.5z" />
    <glyph glyph-name="Oacute" unicode="&#xd3;" horiz-adv-x="806" 
d="M575 890l-142 -135h-82l110 135h114zM403 685q150 0 251.5 -102.5t101.5 -247.5q0 -95 -45.5 -175t-127 -127.5t-180.5 -47.5t-180.5 47.5t-127 127.5t-45.5 175q0 145 101.5 247.5t251.5 102.5zM403 597q-112 0 -186.5 -74.5t-74.5 -187.5t74.5 -187.5t186.5 -74.5
t186.5 74.5t74.5 187.5t-74.5 187.5t-186.5 74.5z" />
    <glyph glyph-name="Ocircumflex" unicode="&#xd4;" horiz-adv-x="806" 
d="M425 890l140 -139h-82l-80 78l-80 -78h-82l140 139h44zM403 685q99 0 180.5 -47.5t127 -127.5t45.5 -175t-45.5 -175t-127 -127.5t-180.5 -47.5t-180.5 47.5t-127 127.5t-45.5 175t45.5 175t127 127.5t180.5 47.5zM403 597q-112 0 -186.5 -74.5t-74.5 -187.5t74.5 -187.5
t186.5 -74.5t186.5 74.5t74.5 187.5t-74.5 187.5t-186.5 74.5z" />
    <glyph glyph-name="Otilde" unicode="&#xd5;" horiz-adv-x="806" 
d="M577 874q0 -44 -29.5 -73.5t-74.5 -29.5q-25 0 -44.5 8t-30 17.5t-24 17.5t-27.5 8q-17 0 -26.5 -13t-9.5 -33h-68q0 44 29.5 73.5t74.5 29.5q25 0 44.5 -8t30 -17.5t24 -17.5t27.5 -8q12 0 20 6.5t12 16.5t4 23h68zM403 685q99 0 180.5 -47.5t127 -127.5t45.5 -175
t-45.5 -175t-127 -127.5t-180.5 -47.5t-180.5 47.5t-127 127.5t-45.5 175t45.5 175t127 127.5t180.5 47.5zM403 597q-112 0 -186.5 -74.5t-74.5 -187.5t74.5 -187.5t186.5 -74.5t186.5 74.5t74.5 187.5t-74.5 187.5t-186.5 74.5z" />
    <glyph glyph-name="Odieresis" unicode="&#xd6;" horiz-adv-x="806" 
d="M298 889q26 0 44.5 -18.5t18.5 -44.5t-19 -44.5t-44 -18.5q-26 0 -44.5 18.5t-18.5 44.5t18.5 44.5t44.5 18.5zM508 889q26 0 44.5 -18.5t18.5 -44.5t-19 -44.5t-44 -18.5q-26 0 -44.5 18.5t-18.5 44.5t18.5 44.5t44.5 18.5zM403 685q99 0 180.5 -47.5t127 -127.5
t45.5 -175t-45.5 -175t-127 -127.5t-180.5 -47.5t-180.5 47.5t-127 127.5t-45.5 175t45.5 175t127 127.5t180.5 47.5zM403 597q-112 0 -186.5 -74.5t-74.5 -187.5t74.5 -187.5t186.5 -74.5t186.5 74.5t74.5 187.5t-74.5 187.5t-186.5 74.5z" />
    <glyph glyph-name="multiply" unicode="&#xd7;" horiz-adv-x="500" 
d="M420 419l-106 -106l106 -106l-64 -64l-106 106l-106 -107l-64 64l107 107l-106 106l63 64l106 -106l106 106z" />
    <glyph glyph-name="Oslash" unicode="&#xd8;" horiz-adv-x="806" 
d="M653 584q49 -49 76 -113t27 -136q0 -95 -45.5 -175t-127 -127.5t-180.5 -47.5q-103 0 -188 52l-41 -52l-49 40l40 50q-55 49 -85 116.5t-30 143.5q0 95 45.5 175t127 127.5t180.5 47.5q112 0 200 -60l47 60l52 -40zM142 335q0 -116 78 -191l328 412q-65 41 -145 41
q-112 0 -186.5 -74.5t-74.5 -187.5zM403 73q112 0 186.5 74.5t74.5 187.5q0 106 -67 179l-326 -408q60 -33 132 -33z" />
    <glyph glyph-name="Ugrave" unicode="&#xd9;" horiz-adv-x="752" 
d="M197 890h114l110 -135h-82zM652 672v-407q0 -128 -77.5 -203t-198.5 -75t-198.5 75t-77.5 203v407h90v-404q0 -96 52.5 -143t133.5 -46q82 1 134 47t52 142v404h90z" />
    <glyph glyph-name="Uacute" unicode="&#xda;" horiz-adv-x="752" 
d="M548 890l-142 -135h-82l110 135h114zM652 672v-407q0 -128 -77.5 -203t-198.5 -75t-198.5 75t-77.5 203v407h90v-404q0 -96 52.5 -143t133.5 -46q82 1 134 47t52 142v404h90z" />
    <glyph glyph-name="Ucircumflex" unicode="&#xdb;" horiz-adv-x="752" 
d="M398 890l140 -139h-82l-80 78l-80 -78h-82l140 139h44zM652 672v-407q0 -128 -77.5 -203t-198.5 -75t-198.5 75t-77.5 203v407h90v-404q0 -96 52.5 -143t133.5 -46q82 1 134 47t52 142v404h90z" />
    <glyph glyph-name="Udieresis" unicode="&#xdc;" horiz-adv-x="752" 
d="M271 889q26 0 44.5 -18.5t18.5 -44.5t-19 -44.5t-44 -18.5q-26 0 -44.5 18.5t-18.5 44.5t18.5 44.5t44.5 18.5zM481 889q26 0 44.5 -18.5t18.5 -44.5q0 -25 -19 -44t-44 -19q-26 0 -44.5 18.5t-18.5 44.5t18.5 44.5t44.5 18.5zM652 672v-407q0 -128 -77.5 -203
t-198.5 -75t-198.5 75t-77.5 203v407h90v-404q0 -96 52.5 -143t133.5 -46q82 1 134 47t52 142v404h90z" />
    <glyph glyph-name="Yacute" unicode="&#xdd;" horiz-adv-x="631" 
d="M488 890l-142 -135h-82l110 135h114zM621 670l-257 -395v-275h-97v262l-257 408h108l196 -316l199 316h108z" />
    <glyph glyph-name="Thorn" unicode="&#xde;" horiz-adv-x="634" 
d="M207 670v-120h151q90 0 158 -55.5t68 -142.5q0 -86 -61 -145t-164 -59q-78 0 -152 24v-172h-97v670h97zM333 460h-126v-197q55 -30 146 -30q33 0 58.5 9t40.5 25.5t22.5 37.5t7.5 47q0 49 -41.5 78.5t-107.5 29.5z" />
    <glyph glyph-name="germandbls" unicode="&#xdf;" horiz-adv-x="648" 
d="M264 725q76 0 131 -45t55 -128q0 -35 -13.5 -63.5t-30 -44t-30 -35.5t-13.5 -40q0 -11 4.5 -20.5t15.5 -17.5t19 -12.5t24.5 -12.5t22.5 -11l57 -29q102 -52 102 -131q0 -68 -53 -106.5t-126 -38.5q-85 0 -148 45v87q66 -52 148 -52q42 0 70 17.5t28 48.5q0 17 -19 35
t-34 26t-28 14l-71 29q-93 39 -93 120q0 24 9 47t22 41t25.5 35t21.5 36t9 37q0 26 -15 47.5t-38 32.5t-47 11q-102 -2 -102 -112v-535h-82v544q0 48 15.5 84t42 56.5t57 30.5t64.5 10z" />
    <glyph glyph-name="agrave" unicode="&#xe0;" 
d="M132 720h114l110 -135h-82zM291 510q43 0 87.5 -20.5t76.5 -56.5v67h82v-500h-82v85q-29 -43 -73.5 -71.5t-98.5 -28.5q-98 0 -165.5 72.5t-67.5 184.5q0 122 68 195t173 73zM306 430q-52 0 -91.5 -27t-59.5 -69.5t-20 -91.5q0 -74 45 -125.5t116 -51.5q68 0 114 53
t45 133l-1 96q-67 83 -148 83z" />
    <glyph glyph-name="aacute" unicode="&#xe1;" 
d="M483 720l-142 -135h-82l110 135h114zM291 510q43 0 87.5 -20.5t76.5 -56.5v67h82v-500h-82v85q-29 -43 -73.5 -71.5t-98.5 -28.5q-98 0 -165.5 72.5t-67.5 184.5q0 122 68 195t173 73zM306 430q-52 0 -91.5 -27t-59.5 -69.5t-20 -91.5q0 -74 45 -125.5t116 -51.5
q68 0 114 53t45 133l-1 96q-67 83 -148 83z" />
    <glyph glyph-name="acircumflex" unicode="&#xe2;" 
d="M333 720l140 -139h-82l-80 78l-80 -78h-82l140 139h44zM291 510q43 0 87.5 -20.5t76.5 -56.5v67h82v-500h-82v85q-29 -43 -73.5 -71.5t-98.5 -28.5q-98 0 -165.5 72.5t-67.5 184.5q0 122 68 195t173 73zM306 430q-52 0 -91.5 -27t-59.5 -69.5t-20 -91.5q0 -74 45 -125.5
t116 -51.5q68 0 114 53t45 133l-1 96q-67 83 -148 83z" />
    <glyph glyph-name="atilde" unicode="&#xe3;" 
d="M485 704q0 -44 -29.5 -73.5t-74.5 -29.5q-25 0 -44.5 8t-30 17.5t-24 17.5t-27.5 8q-11 0 -19.5 -6.5t-12.5 -16.5t-4 -23h-68q0 44 29.5 73.5t74.5 29.5q25 0 44.5 -8t30 -17.5t24 -17.5t27.5 -8q17 0 26.5 13t9.5 33h68zM291 510q43 0 87.5 -20.5t76.5 -56.5v67h82
v-500h-82v85q-29 -43 -73.5 -71.5t-98.5 -28.5q-48 0 -91 19t-74 52.5t-49.5 81.5t-18.5 104q0 122 68 195t173 73zM306 430q-52 0 -91.5 -27t-59.5 -69.5t-20 -91.5q0 -74 45 -125.5t116 -51.5q69 0 114.5 53t44.5 133l-1 96q-67 83 -148 83z" />
    <glyph glyph-name="adieresis" unicode="&#xe4;" 
d="M206 719q26 0 44.5 -18.5t18.5 -44.5t-18.5 -44.5t-44.5 -18.5t-44.5 18.5t-18.5 44.5t18.5 44.5t44.5 18.5zM416 719q26 0 44.5 -18.5t18.5 -44.5t-18.5 -44.5t-44.5 -18.5t-44.5 18.5t-18.5 44.5t18.5 44.5t44.5 18.5zM291 510q43 0 87.5 -20.5t76.5 -56.5v67h82v-500
h-82v85q-29 -43 -73.5 -71.5t-98.5 -28.5q-98 0 -165.5 72.5t-67.5 184.5q0 122 68 195t173 73zM306 430q-52 0 -91.5 -27t-59.5 -69.5t-20 -91.5q0 -74 45 -125.5t116 -51.5q68 0 114 53t45 133l-1 96q-67 83 -148 83z" />
    <glyph glyph-name="aring" unicode="&#xe5;" 
d="M311 725q23 0 42 -11.5t29.5 -30.5t10.5 -41q0 -34 -23.5 -58.5t-58.5 -24.5t-59 24.5t-24 58.5t24 58.5t59 24.5zM311 684q-17 0 -29 -12.5t-12 -29.5t12 -29.5t29 -12.5q16 0 28 12.5t12 29.5q0 11 -5.5 20.5t-14.5 15.5t-20 6zM291 510q43 0 87.5 -20.5t76.5 -56.5v67
h82v-500h-82v85q-29 -43 -73.5 -71.5t-98.5 -28.5q-48 0 -91 19t-74 52.5t-49.5 81.5t-18.5 104q0 122 68 195t173 73zM306 430q-52 0 -91.5 -27t-59.5 -69.5t-20 -91.5q0 -74 45 -125.5t116 -51.5q69 0 114.5 53t44.5 133l-1 96q-67 83 -148 83z" />
    <glyph glyph-name="ae" unicode="&#xe6;" horiz-adv-x="987" 
d="M937 267v-49h-384q9 -65 56.5 -109t117.5 -44q94 0 180 88l-1 -89q-24 -29 -74.5 -54t-104.5 -25q-115 0 -190 80v-65h-82v85q-29 -43 -73.5 -71.5t-98.5 -28.5q-98 0 -165.5 72.5t-67.5 184.5q0 122 68 195t173 73q43 0 87.5 -20.5t76.5 -56.5v67h82v-65q68 75 170 75
q111 0 170.5 -67.5t59.5 -175.5zM296 65q69 0 114.5 53t44.5 133l-1 96q-67 83 -148 83q-77 0 -124 -55.5t-47 -132.5q0 -74 45 -125.5t116 -51.5zM555 288h301q-7 69 -49.5 105.5t-99.5 36.5q-60 0 -100.5 -40t-51.5 -102z" />
    <glyph glyph-name="ccedilla" unicode="&#xe7;" horiz-adv-x="511" 
d="M311 430q-78 0 -127 -54t-49 -129t49 -128.5t127 -53.5q79 0 150 52v-83q-17 -17 -56.5 -32.5t-86.5 -16.5l-5 -55q41 5 68.5 -17.5t27.5 -59.5q0 -41 -29.5 -67t-80.5 -26q-17 0 -40.5 6.5t-37.5 18.5l7 55q40 -21 74 -21q11 0 20 4t14 11t5 16q0 29 -39 29
q-18 0 -35 -9l-16 12l12 107q-94 16 -153.5 89t-59.5 169q0 108 74.5 185.5t186.5 77.5q49 0 90 -15.5t60 -33.5v-83q-71 52 -150 52z" />
    <glyph glyph-name="egrave" unicode="&#xe8;" horiz-adv-x="571" 
d="M341 585h-82l-142 135h114zM521 267v-49h-384q9 -65 56.5 -109t117.5 -44q94 0 180 88l-1 -89q-24 -29 -74.5 -54t-104.5 -25q-112 0 -186.5 77t-74.5 185q0 109 68.5 186t172.5 77q111 0 170.5 -67.5t59.5 -175.5zM139 288h301q-7 69 -49.5 105.5t-99.5 36.5
q-60 0 -100.5 -40t-51.5 -102z" />
    <glyph glyph-name="eacute" unicode="&#xe9;" horiz-adv-x="571" 
d="M468 720l-142 -135h-82l110 135h114zM521 267v-49h-384q9 -65 56.5 -109t117.5 -44q94 0 180 88l-1 -89q-24 -29 -74.5 -54t-104.5 -25q-112 0 -186.5 77t-74.5 185q0 109 68.5 186t172.5 77q111 0 170.5 -67.5t59.5 -175.5zM139 288h301q-7 69 -49.5 105.5t-99.5 36.5
q-60 0 -100.5 -40t-51.5 -102z" />
    <glyph glyph-name="ecircumflex" unicode="&#xea;" horiz-adv-x="571" 
d="M296 659l-80 -78h-82l140 139h44l140 -139h-82zM521 267v-49h-384q9 -65 56.5 -109t117.5 -44q94 0 180 88l-1 -89q-24 -29 -74.5 -54t-104.5 -25q-112 0 -186.5 77t-74.5 185q0 109 68.5 186t172.5 77q111 0 170.5 -67.5t59.5 -175.5zM139 288h301q-7 69 -49.5 105.5
t-99.5 36.5q-60 0 -100.5 -40t-51.5 -102z" />
    <glyph glyph-name="edieresis" unicode="&#xeb;" horiz-adv-x="571" 
d="M191 593q-26 0 -44.5 18.5t-18.5 44.5t18.5 44.5t44.5 18.5t44.5 -18.5t18.5 -44.5t-19 -44.5t-44 -18.5zM401 593q-26 0 -44.5 18.5t-18.5 44.5t18.5 44.5t44.5 18.5t44.5 -18.5t18.5 -44.5t-19 -44.5t-44 -18.5zM521 267v-49h-384q9 -65 56.5 -109t117.5 -44
q94 0 180 88l-1 -89q-24 -29 -74.5 -54t-104.5 -25q-112 0 -186.5 77t-74.5 185q0 109 68.5 186t172.5 77q111 0 170.5 -67.5t59.5 -175.5zM139 288h301q-7 69 -49.5 105.5t-99.5 36.5q-60 0 -100.5 -40t-51.5 -102z" />
    <glyph glyph-name="igrave" unicode="&#xec;" horiz-adv-x="301" 
d="M220 585h-82l-142 135h114zM55 500h161v-500h-82v423h-79v77z" />
    <glyph glyph-name="iacute" unicode="&#xed;" horiz-adv-x="301" 
d="M347 720l-142 -135h-82l110 135h114zM55 500h161v-500h-82v423h-79v77z" />
    <glyph glyph-name="icircumflex" unicode="&#xee;" horiz-adv-x="299" 
d="M232 581l-80 78l-80 -78h-82l140 139h44l140 -139h-82zM81 500h161v-500h-82v423h-79v77z" />
    <glyph glyph-name="idieresis" unicode="&#xef;" horiz-adv-x="301" 
d="M133 656q0 -26 -18.5 -44.5t-44.5 -18.5q-17 0 -31.5 8.5t-23 23t-8.5 31.5q0 26 18.5 44.5t44.5 18.5t44.5 -18.5t18.5 -44.5zM280 719q26 0 44.5 -18.5t18.5 -44.5t-18.5 -44.5t-44.5 -18.5t-44.5 18.5t-18.5 44.5t18.5 44.5t44.5 18.5zM55 500h161v-500h-82v423h-79
v77z" />
    <glyph glyph-name="eth" unicode="&#xf0;" horiz-adv-x="617" 
d="M452 594q115 -143 115 -318q0 -123 -72 -207t-184 -84t-186.5 77t-74.5 185t74.5 185.5t186.5 77.5q94 0 172 -94q-23 73 -92 152l-99 -42l-21 54l77 33q-36 33 -55 46l40 51q45 -36 78 -70l99 42l21 -54zM311 65q78 0 127 53.5t49 128.5t-49 129t-127 54t-127 -54
t-49 -129t49 -128.5t127 -53.5z" />
    <glyph glyph-name="ntilde" unicode="&#xf1;" horiz-adv-x="585" 
d="M250 652q-17 0 -26.5 -13t-9.5 -33h-68q0 44 29.5 73.5t74.5 29.5q25 0 44.5 -8t30 -17.5t24 -17.5t27.5 -8q17 0 26.5 13t9.5 33h68q0 -44 -29.5 -73.5t-74.5 -29.5q-25 0 -44.5 8t-30 17.5t-24 17.5t-27.5 8zM330 510q81 0 133 -53t52 -152v-305h-82l-1 297
q0 133 -116 133q-37 0 -76.5 -27.5t-72.5 -70.5v-332h-82v500h82v-79q27 34 71.5 61.5t91.5 27.5z" />
    <glyph glyph-name="ograve" unicode="&#xf2;" 
d="M132 720h114l110 -135h-82zM311 510q112 0 186.5 -77.5t74.5 -185.5t-74.5 -185t-186.5 -77t-186.5 77t-74.5 185t74.5 185.5t186.5 77.5zM311 430q-78 0 -127 -54t-49 -129t49 -128.5t127 -53.5t127 53.5t49 128.5t-49 129t-127 54z" />
    <glyph glyph-name="oacute" unicode="&#xf3;" 
d="M483 720l-142 -135h-82l110 135h114zM311 510q112 0 186.5 -77.5t74.5 -185.5t-74.5 -185t-186.5 -77t-186.5 77t-74.5 185t74.5 185.5t186.5 77.5zM311 430q-78 0 -127 -54t-49 -129t49 -128.5t127 -53.5t127 53.5t49 128.5t-49 129t-127 54z" />
    <glyph glyph-name="ocircumflex" unicode="&#xf4;" 
d="M333 720l140 -139h-82l-80 78l-80 -78h-82l140 139h44zM311 510q112 0 186.5 -77.5t74.5 -185.5t-74.5 -185t-186.5 -77t-186.5 77t-74.5 185t74.5 185.5t186.5 77.5zM311 430q-78 0 -127 -54t-49 -129t49 -128.5t127 -53.5t127 53.5t49 128.5t-49 129t-127 54z" />
    <glyph glyph-name="otilde" unicode="&#xf5;" 
d="M485 704q0 -44 -29.5 -73.5t-74.5 -29.5q-25 0 -44.5 8t-30 17.5t-24 17.5t-27.5 8q-11 0 -19.5 -6.5t-12.5 -16.5t-4 -23h-68q0 44 29.5 73.5t74.5 29.5q25 0 44.5 -8t30 -17.5t24 -17.5t27.5 -8q17 0 26.5 13t9.5 33h68zM311 510q112 0 186.5 -77.5t74.5 -185.5
t-74.5 -185t-186.5 -77q-74 0 -134.5 36t-93.5 95.5t-33 130.5q0 108 74.5 185.5t186.5 77.5zM311 430q-78 0 -127 -54t-49 -129t49 -128.5t127 -53.5t127 53.5t49 128.5t-49 129t-127 54z" />
    <glyph glyph-name="odieresis" unicode="&#xf6;" 
d="M206 719q26 0 44.5 -18.5t18.5 -44.5t-18.5 -44.5t-44.5 -18.5t-44.5 18.5t-18.5 44.5t18.5 44.5t44.5 18.5zM416 719q26 0 44.5 -18.5t18.5 -44.5t-18.5 -44.5t-44.5 -18.5t-44.5 18.5t-18.5 44.5t18.5 44.5t44.5 18.5zM311 510q112 0 186.5 -77.5t74.5 -185.5
t-74.5 -185t-186.5 -77q-74 0 -134.5 36t-93.5 95.5t-33 130.5q0 108 74.5 185.5t186.5 77.5zM311 430q-78 0 -127 -54t-49 -129t49 -128.5t127 -53.5t127 53.5t49 128.5t-49 129t-127 54z" />
    <glyph glyph-name="divide" unicode="&#xf7;" horiz-adv-x="551" 
d="M276 557q26 0 44.5 -18.5t18.5 -44.5t-18.5 -44.5t-44.5 -18.5t-44.5 18.5t-18.5 44.5t18.5 44.5t44.5 18.5zM471 358v-90h-391v90h391zM276 193q26 0 44.5 -18.5t18.5 -44.5t-19 -44.5t-44 -18.5q-26 0 -44.5 18.5t-18.5 44.5t18.5 44.5t44.5 18.5z" />
    <glyph glyph-name="oslash" unicode="&#xf8;" horiz-adv-x="612" 
d="M508 421q64 -73 64 -174q0 -108 -74.5 -185t-186.5 -77q-92 0 -163 55l-52 -55l-49 40l57 61q-54 70 -54 161q0 108 74.5 185.5t186.5 77.5q84 0 149 -46l43 46l52 -40zM135 247q0 -54 27 -100l242 257q-40 26 -93 26q-78 0 -127 -54t-49 -129zM311 65q78 0 127 53.5
t49 128.5q0 64 -36 113l-246 -260q45 -35 106 -35z" />
    <glyph glyph-name="ugrave" unicode="&#xf9;" horiz-adv-x="564" 
d="M108 720h114l110 -135h-82zM494 500v-296q0 -97 -60 -155.5t-152 -58.5t-152 58.5t-60 155.5v296h85v-296q0 -32 10.5 -57.5t28 -42t40.5 -25.5t48 -9q53 0 90 36t37 98v296h85z" />
    <glyph glyph-name="uacute" unicode="&#xfa;" horiz-adv-x="564" 
d="M459 720l-142 -135h-82l110 135h114zM494 500v-296q0 -97 -60 -155.5t-152 -58.5t-152 58.5t-60 155.5v296h85v-296q0 -32 10.5 -57.5t28 -42t40.5 -25.5t48 -9q53 0 90 36t37 98v296h85z" />
    <glyph glyph-name="ucircumflex" unicode="&#xfb;" horiz-adv-x="564" 
d="M309 720l140 -139h-82l-80 78l-80 -78h-82l140 139h44zM494 500v-296q0 -97 -60 -155.5t-152 -58.5t-152 58.5t-60 155.5v296h85v-296q0 -32 10.5 -57.5t28 -42t40.5 -25.5t48 -9q53 0 90 36t37 98v296h85z" />
    <glyph glyph-name="udieresis" unicode="&#xfc;" horiz-adv-x="564" 
d="M182 719q26 0 44.5 -18.5t18.5 -44.5t-18.5 -44.5t-44.5 -18.5t-44.5 18.5t-18.5 44.5t18.5 44.5t44.5 18.5zM392 719q26 0 44.5 -18.5t18.5 -44.5t-18.5 -44.5t-44.5 -18.5t-44.5 18.5t-18.5 44.5t18.5 44.5t44.5 18.5zM494 500v-296q0 -97 -60 -155.5t-152 -58.5
t-152 58.5t-60 155.5v296h85v-296q0 -32 10.5 -57.5t28 -42t40.5 -25.5t48 -9q53 0 90 36t37 98v296h85z" />
    <glyph glyph-name="yacute" unicode="&#xfd;" horiz-adv-x="571" 
d="M457 720l-142 -135h-82l110 135h114zM458 500h98l-368 -740h-95l143 270l-221 470h98l175 -368z" />
    <glyph glyph-name="thorn" unicode="&#xfe;" 
d="M85 720h82v-305q28 42 73 68.5t99 26.5q99 0 166 -70t67 -182q0 -122 -68 -195t-173 -73q-43 0 -87.5 20.5t-76.5 56.5v-307h-82v960zM326 429q-69 0 -114.5 -50.5t-44.5 -129.5l1 -96q66 -82 148 -82q77 0 124 55.5t47 131.5q0 74 -44.5 122.5t-116.5 48.5z" />
    <glyph glyph-name="ydieresis" unicode="&#xff;" horiz-adv-x="571" 
d="M180 593q-26 0 -44.5 18.5t-18.5 44.5t18.5 44.5t44.5 18.5t44.5 -18.5t18.5 -44.5t-18.5 -44.5t-44.5 -18.5zM390 593q-26 0 -44.5 18.5t-18.5 44.5t18.5 44.5t44.5 18.5t44.5 -18.5t18.5 -44.5t-18.5 -44.5t-44.5 -18.5zM458 500h98l-368 -740h-95l143 270l-221 470h98
l175 -368z" />
    <glyph glyph-name="Amacron" unicode="&#x100;" horiz-adv-x="691" 
d="M521 888v-80h-350v80h350zM573 0l-70 160h-314l-71 -160h-108l313 670h45l313 -670h-108zM226 245h240l-119 273z" />
    <glyph glyph-name="amacron" unicode="&#x101;" 
d="M486 718v-80h-350v80h350zM291 510q43 0 87.5 -20.5t76.5 -56.5v67h82v-500h-82v85q-29 -43 -73.5 -71.5t-98.5 -28.5q-98 0 -165.5 72.5t-67.5 184.5q0 122 68 195t173 73zM306 430q-52 0 -91.5 -27t-59.5 -69.5t-20 -91.5q0 -74 45 -125.5t116 -51.5q68 0 114 53
t45 133l-1 96q-67 83 -148 83z" />
    <glyph glyph-name="Abreve" unicode="&#x102;" horiz-adv-x="691" 
d="M346 740q-45 0 -81 18t-58 52.5t-23 79.5h72q5 -37 28 -59.5t62 -22.5q26 0 45.5 10.5t30.5 29t14 42.5h72q-2 -68 -47.5 -109t-114.5 -41zM573 0l-70 160h-314l-71 -160h-108l313 670h45l313 -670h-108zM226 245h240l-119 273z" />
    <glyph glyph-name="abreve" unicode="&#x103;" 
d="M473 720q-1 -45 -23 -79.5t-58 -52.5t-81 -18q-69 0 -114.5 41t-47.5 109h72q3 -24 14 -42.5t30.5 -29t45.5 -10.5q39 0 62 22.5t28 59.5h72zM291 510q43 0 87.5 -20.5t76.5 -56.5v67h82v-500h-82v85q-29 -43 -73.5 -71.5t-98.5 -28.5q-48 0 -91 19t-74 52.5t-49.5 81.5
t-18.5 104q0 122 68 195t173 73zM306 430q-52 0 -91.5 -27t-59.5 -69.5t-20 -91.5q0 -74 45 -125.5t116 -51.5q69 0 114.5 53t44.5 133l-1 96q-67 83 -148 83z" />
    <glyph glyph-name="Aogonek" unicode="&#x104;" horiz-adv-x="691" 
d="M555 -98q0 -22 14 -36.5t39 -14.5q27 0 54 18v-69q-1 -1 -12 -6.5t-17.5 -8.5t-19 -6.5t-25.5 -3.5q-48 0 -82.5 26t-34.5 73q0 45 35 78.5t73 47.5h-6l-70 160h-314l-71 -160h-108l313 670h45l313 -670h-21q-42 -17 -73.5 -43t-31.5 -55zM226 245h240l-119 273z" />
    <glyph glyph-name="aogonek" unicode="&#x105;" 
d="M533 0q-42 -17 -73.5 -43t-31.5 -55q0 -22 14 -36.5t39 -14.5q27 0 54 18v-69q-1 -1 -12 -6.5t-17.5 -8.5t-19 -6.5t-25.5 -3.5q-31 0 -57 10.5t-43 33.5t-17 55q0 25 12 47.5t30 38t35.5 25.5t33.5 16v84q-29 -43 -73.5 -71.5t-98.5 -28.5q-98 0 -165.5 72.5
t-67.5 184.5q0 122 68 195t173 73q43 0 87.5 -20.5t76.5 -56.5v67h82v-500h-4zM296 65q68 0 114 53t45 133l-1 96q-67 83 -148 83q-52 0 -91.5 -27t-59.5 -69.5t-20 -91.5q0 -74 45 -125.5t116 -51.5z" />
    <glyph glyph-name="Cacute" unicode="&#x106;" horiz-adv-x="674" 
d="M577 890l-142 -135h-82l110 135h114zM403 685q68 0 115 -18.5t86 -53.5v-99q-3 2 -27 19.5t-35.5 24t-35.5 18.5t-49 16.5t-54 4.5q-112 0 -186.5 -74.5t-74.5 -187.5t74.5 -187.5t186.5 -74.5q119 0 221 78v-90q-18 -16 -41 -29.5t-50.5 -24t-61 -16.5t-68.5 -6
q-99 0 -180.5 47.5t-127 127.5t-45.5 175t45.5 175t127 127.5t180.5 47.5z" />
    <glyph glyph-name="cacute" unicode="&#x107;" horiz-adv-x="511" 
d="M472 720l-142 -135h-82l110 135h114zM311 510q49 0 90 -15.5t60 -33.5v-83q-71 52 -150 52q-78 0 -127 -54t-49 -129t49 -128.5t127 -53.5q79 0 150 52v-83q-18 -18 -59 -33.5t-91 -15.5q-112 0 -186.5 77t-74.5 185t74.5 185.5t186.5 77.5z" />
    <glyph glyph-name="Ccaron" unicode="&#x10c;" horiz-adv-x="674" 
d="M243 890h82l80 -78l80 78h82l-140 -139h-44zM403 685q68 0 115 -18.5t86 -53.5v-99q-6 4 -23 16.5t-27 19t-29 17t-35 16t-39.5 10t-47.5 4.5q-74 0 -134 -34t-93.5 -94t-33.5 -134q0 -113 74.5 -187.5t186.5 -74.5q119 0 221 78v-90q-14 -13 -31.5 -24t-39 -21
t-44.5 -16.5t-50.5 -10.5t-55.5 -4q-99 0 -180.5 47.5t-127 127.5t-45.5 175q0 145 101.5 247.5t251.5 102.5z" />
    <glyph glyph-name="ccaron" unicode="&#x10d;" horiz-adv-x="511" 
d="M138 720h82l80 -78l80 78h82l-140 -139h-44zM311 510q49 0 90 -15.5t60 -33.5v-83q-71 52 -150 52q-78 0 -127 -54t-49 -129t49 -128.5t127 -53.5q79 0 150 52v-83q-18 -18 -59 -33.5t-91 -15.5q-112 0 -186.5 77t-74.5 185t74.5 185.5t186.5 77.5z" />
    <glyph glyph-name="Dcaron" unicode="&#x10e;" horiz-adv-x="759" 
d="M205 890h82l80 -78l80 78h82l-140 -139h-44zM356 686q110 0 191 -46t121.5 -124t40.5 -178q0 -153 -94 -250.5t-259 -97.5q-111 0 -246 25v646q135 25 246 25zM356 601q-73 0 -156 -10v-506q83 -10 156 -10q119 0 190 74t71 189t-71 189t-190 74z" />
    <glyph glyph-name="dcaron" unicode="&#x10f;" horiz-adv-x="723" 
d="M537 720v-720h-82v85q-29 -43 -73.5 -71.5t-98.5 -28.5q-48 0 -91 19t-74 52.5t-49.5 81.5t-18.5 104q0 122 68 195t173 73q43 0 87.5 -20.5t76.5 -56.5v287h82zM616 718h87l-30 -188h-67zM306 428q-77 0 -124 -55t-47 -131q0 -74 45 -125.5t116 -51.5q69 0 114.5 53
t44.5 133l-1 96q-65 81 -148 81z" />
    <glyph glyph-name="Dcroat" unicode="&#x110;" horiz-adv-x="759" 
d="M356 686q110 0 191 -46t121.5 -124t40.5 -178q0 -153 -94 -250.5t-259 -97.5q-111 0 -246 25v278h-98v90h98v278q135 25 246 25zM356 75q119 0 190 74t71 189t-71 189t-190 74q-73 0 -156 -10v-208h113v-90h-113v-208q83 -10 156 -10z" />
    <glyph glyph-name="dcroat" unicode="&#x111;" horiz-adv-x="612" 
d="M608 639v-80h-71v-559h-82v85q-29 -43 -73.5 -71.5t-98.5 -28.5q-98 0 -165.5 72.5t-67.5 184.5q0 122 68 195t173 73q43 0 87.5 -20.5t76.5 -56.5v126h-147v80h147v81h82v-81h71zM296 65q69 0 114.5 53t44.5 133l-1 96q-65 81 -148 81q-77 0 -124 -55t-47 -131
q0 -74 45 -125.5t116 -51.5z" />
    <glyph glyph-name="Emacron" unicode="&#x112;" horiz-adv-x="649" 
d="M515 888v-80h-350v80h350zM569 585h-369v-199h326v-85h-326v-216h369v-85h-459v670h459v-85z" />
    <glyph glyph-name="emacron" unicode="&#x113;" horiz-adv-x="571" 
d="M471 718v-80h-350v80h350zM521 267v-49h-384q9 -65 56.5 -109t117.5 -44q94 0 180 88l-1 -89q-24 -29 -74.5 -54t-104.5 -25q-112 0 -186.5 77t-74.5 185q0 109 68.5 186t172.5 77q111 0 170.5 -67.5t59.5 -175.5zM139 288h301q-7 69 -49.5 105.5t-99.5 36.5
q-60 0 -100.5 -40t-51.5 -102z" />
    <glyph glyph-name="Edotaccent" unicode="&#x116;" horiz-adv-x="649" 
d="M340 764q-26 0 -44.5 18.5t-18.5 44.5t18.5 44.5t44.5 18.5t44.5 -18.5t18.5 -44.5q0 -25 -18.5 -44t-44.5 -19zM569 585h-369v-199h326v-85h-326v-216h369v-85h-459v670h459v-85z" />
    <glyph glyph-name="edotaccent" unicode="&#x117;" horiz-adv-x="571" 
d="M296 594q-26 0 -44.5 18.5t-18.5 44.5t18.5 44.5t44.5 18.5t44.5 -18.5t18.5 -44.5q0 -25 -18.5 -44t-44.5 -19zM521 267v-49h-384q9 -65 56.5 -109t117.5 -44q94 0 180 88l-1 -89q-24 -29 -74.5 -54t-104.5 -25q-112 0 -186.5 77t-74.5 185q0 109 68.5 186t172.5 77
q111 0 170.5 -67.5t59.5 -175.5zM139 288h301q-7 69 -49.5 105.5t-99.5 36.5q-60 0 -100.5 -40t-51.5 -102z" />
    <glyph glyph-name="Eogonek" unicode="&#x118;" horiz-adv-x="649" 
d="M569 585h-369v-199h326v-85h-326v-216h369v-85h-2q-42 -17 -73.5 -43t-31.5 -55q0 -22 14 -36.5t39 -14.5q27 0 54 18v-69q-1 -1 -12 -6.5t-17.5 -8.5t-19 -6.5t-25.5 -3.5q-31 0 -57 10.5t-43 33.5t-17 55q0 24 11 46t29 37.5t35 26t33 16.5h-376v670h459v-85z" />
    <glyph glyph-name="eogonek" unicode="&#x119;" horiz-adv-x="571" 
d="M521 267v-49h-384q9 -65 56.5 -109t117.5 -44q94 0 180 88l-1 -89q-34 -40 -96 -63h7q-43 -17 -75 -43t-32 -56q0 -22 14 -36.5t39 -14.5q27 0 54 18v-69q-1 -1 -12 -6.5t-17.5 -8.5t-19 -6.5t-25.5 -3.5q-48 0 -82.5 26t-34.5 73q0 67 79 112q-104 8 -171.5 83
t-67.5 178q0 109 68.5 186t172.5 77q111 0 170.5 -67.5t59.5 -175.5zM139 288h301q-7 69 -49.5 105.5t-99.5 36.5q-60 0 -100.5 -40t-51.5 -102z" />
    <glyph glyph-name="Ecaron" unicode="&#x11a;" horiz-adv-x="649" 
d="M362 751h-44l-140 139h82l80 -78l80 78h82zM569 585h-369v-199h326v-85h-326v-216h369v-85h-459v670h459v-85z" />
    <glyph glyph-name="ecaron" unicode="&#x11b;" horiz-adv-x="571" 
d="M318 581h-44l-140 139h82l80 -78l80 78h82zM521 267v-49h-384q9 -65 56.5 -109t117.5 -44q94 0 180 88l-1 -89q-24 -29 -74.5 -54t-104.5 -25q-112 0 -186.5 77t-74.5 185q0 109 68.5 186t172.5 77q111 0 170.5 -67.5t59.5 -175.5zM139 288h301q-7 69 -49.5 105.5
t-99.5 36.5q-60 0 -100.5 -40t-51.5 -102z" />
    <glyph glyph-name="Gcommaaccent" unicode="&#x122;" horiz-adv-x="701" 
d="M661 366v-275q-41 -44 -109 -75t-149 -31q-99 0 -180.5 47.5t-127 127.5t-45.5 175t45.5 175t127 127.5t180.5 47.5q47 0 85 -9.5t64.5 -24.5t51.5 -38v-99q-3 2 -27 19.5t-35.5 24t-35.5 18.5t-49 16.5t-54 4.5q-112 0 -186.5 -74.5t-74.5 -187.5t74.5 -187.5
t186.5 -74.5q16 0 31 1t27.5 4t22.5 5.5t20 7.5t16 7.5t14 8.5t11 8t10 8t8 7l1 156h-198v80h295zM372 -22q44 0 75.5 -26.5t31.5 -67.5q0 -50 -32.5 -79.5t-70.5 -29.5q-36 0 -62 18v52q22 -18 54 -18q18 0 31 7t20 19t7 28q0 22 -17 35.5t-37 13.5v48z" />
    <glyph glyph-name="gcommaaccent" unicode="&#x123;" 
d="M345 522q-44 0 -75.5 26.5t-31.5 67.5q0 50 32.5 79.5t70.5 29.5q36 0 62 -18v-52q-22 18 -54 18q-27 0 -42.5 -15t-15.5 -39q0 -22 17 -35.5t37 -13.5v-48zM291 510q43 0 87.5 -20.5t76.5 -56.5v67h82v-490q0 -86 -36.5 -147.5t-95 -89.5t-131.5 -28q-33 0 -60 5.5
t-50.5 18t-33.5 19t-32 23.5v88q1 -1 14 -11t19 -14t21 -13t26.5 -14t27.5 -11t33 -8.5t35 -2.5q76 0 128.5 41.5t52.5 113.5v105q-29 -43 -73.5 -71.5t-98.5 -28.5q-98 0 -165.5 72.5t-67.5 184.5q0 122 68 195t173 73zM306 429q-77 0 -124 -55.5t-47 -131.5q0 -74 45 -125
t116 -51q69 0 114.5 52.5t44.5 132.5l-1 96q-66 82 -148 82z" />
    <glyph glyph-name="Imacron" unicode="&#x12a;" horiz-adv-x="536" 
d="M97 888h350v-80h-350v80zM426 670v-85h-113v-500h113v-85h-316v85h113v500h-113v85h316z" />
    <glyph glyph-name="imacron" unicode="&#x12b;" horiz-adv-x="440" 
d="M35 718h350v-80h-350v80zM122 500h161v-500h-82v423h-79v77z" />
    <glyph glyph-name="Iogonek" unicode="&#x12e;" horiz-adv-x="536" 
d="M426 585h-113v-500h113v-85h-113q-42 -17 -73.5 -43t-31.5 -55q0 -22 14 -36.5t39 -14.5q27 0 54 18v-69q-1 -1 -12 -6.5t-17.5 -8.5t-19 -6.5t-25.5 -3.5q-31 0 -57 10.5t-43 33.5t-17 55q0 45 35 78.5t73 47.5h-122v85h113v500h-113v85h316v-85z" />
    <glyph glyph-name="iogonek" unicode="&#x12f;" horiz-adv-x="291" 
d="M148 604q-29 0 -48.5 20.5t-19.5 47.5q0 28 19.5 48t48.5 20q28 0 48 -20.5t20 -47.5t-20 -47.5t-48 -20.5zM216 1q-43 -17 -75 -43t-32 -56q0 -22 14 -36.5t39 -14.5q27 0 54 18v-69q-1 -1 -12 -6.5t-17.5 -8.5t-19 -6.5t-25.5 -3.5q-31 0 -57 10.5t-43 33.5t-17 55
q0 45 35 78.5t73 47.5h-16v423h-79v77h161v-499h17z" />
    <glyph glyph-name="IJ" unicode="&#x132;" horiz-adv-x="851" 
d="M651 672h90v-638q0 -62 -15.5 -110t-46 -82t-67.5 -56.5t-87 -40.5l-44 87q170 61 170 184v656zM426 670v-85h-113v-500h113v-85h-316v85h113v500h-113v85h316z" />
    <glyph glyph-name="ij" unicode="&#x133;" horiz-adv-x="597" 
d="M165 740q28 0 48 -20.5t20 -47.5t-20 -47.5t-48 -20.5q-29 0 -48.5 20.5t-19.5 47.5q0 28 19.5 48t48.5 20zM459 604q-14 0 -27 5.5t-22 15t-14 22t-5 25.5q0 28 19.5 48t48.5 20q19 0 34.5 -9.5t24.5 -25t9 -33.5q0 -17 -9 -33t-25 -25.5t-34 -9.5zM55 500h161v-500h-82
v423h-79v77zM512 500v-498q0 -187 -172 -257l-37 74q67 32 97 71.5t30 99.5v433h-79v77h161z" />
    <glyph glyph-name="Kcommaaccent" unicode="&#x136;" horiz-adv-x="672" 
d="M351 361l311 -361h-125l-251 289l-86 -94v-195h-90v670h90v-352l306 352h126zM302 -22q44 0 75.5 -26.5t31.5 -67.5q0 -50 -32.5 -79.5t-70.5 -29.5q-36 0 -62 18v52q22 -18 54 -18q27 0 42.5 15t15.5 39q0 22 -17 35.5t-37 13.5v48z" />
    <glyph glyph-name="kcommaaccent" unicode="&#x137;" horiz-adv-x="545" 
d="M295 282l245 -282h-104l-198 228l-71 -66v-162h-82v720h82v-464l249 244h111zM244 -22q44 0 75.5 -26.5t31.5 -67.5q0 -50 -32.5 -79.5t-70.5 -29.5q-36 0 -62 18v52q22 -18 54 -18q18 0 31 7t20 19t7 28q0 22 -17 35.5t-37 13.5v48z" />
    <glyph glyph-name="Lacute" unicode="&#x139;" horiz-adv-x="636" 
d="M343 890l-142 -135h-82l110 135h114zM200 670v-585h369v-85h-459v670h90z" />
    <glyph glyph-name="lacute" unicode="&#x13a;" horiz-adv-x="252" 
d="M298 940l-142 -135h-82l110 135h114zM167 720v-720h-82v720h82z" />
    <glyph glyph-name="Lcommaaccent" unicode="&#x13b;" horiz-adv-x="636" 
d="M200 670v-585h369v-85h-459v670h90zM292 -22q44 0 75.5 -26.5t31.5 -67.5q0 -50 -32.5 -79.5t-70.5 -29.5q-36 0 -62 18v52q22 -18 54 -18q27 0 42.5 15t15.5 39q0 22 -17 35.5t-37 13.5v48z" />
    <glyph glyph-name="lcommaaccent" unicode="&#x13c;" horiz-adv-x="252" 
d="M167 720v-720h-82v720h82zM92 -22q44 0 75.5 -26.5t31.5 -67.5q0 -50 -32.5 -79.5t-70.5 -29.5q-36 0 -62 18v52q22 -18 54 -18q27 0 42.5 15t15.5 39q0 22 -17 35.5t-37 13.5v48z" />
    <glyph glyph-name="Lcaron" unicode="&#x13d;" horiz-adv-x="581" 
d="M275 718h87l-30 -188h-67zM200 670v-585h369v-85h-459v670h90z" />
    <glyph glyph-name="lcaron" unicode="&#x13e;" horiz-adv-x="372" 
d="M167 720v-720h-82v720h82zM265 718h87l-30 -188h-67z" />
    <glyph glyph-name="Ldot" unicode="&#x13f;" horiz-adv-x="588" 
d="M200 670v-585h369v-85h-459v670h90zM409 462q19 0 35 -9.5t25.5 -25.5t9.5 -35q0 -29 -20.5 -49.5t-49.5 -20.5t-49.5 20.5t-20.5 49.5t20.5 49.5t49.5 20.5z" />
    <glyph glyph-name="ldot" unicode="&#x140;" horiz-adv-x="375" 
d="M167 720v-720h-82v720h82zM285 509q19 0 35 -9.5t25.5 -25.5t9.5 -35q0 -29 -21 -49.5t-49 -20.5q-29 0 -49.5 20.5t-20.5 49.5t20.5 49.5t49.5 20.5z" />
    <glyph glyph-name="Lslash" unicode="&#x141;" horiz-adv-x="636" 
d="M200 85h369v-85h-459v307l-100 -74v76l100 74v287h90v-220l91 67v-76l-91 -67v-289z" />
    <glyph glyph-name="lslash" unicode="&#x142;" horiz-adv-x="301" 
d="M291 517v-76l-109 -81v-360h-82v300l-90 -67v76l90 67v344h82v-284z" />
    <glyph glyph-name="Nacute" unicode="&#x143;" horiz-adv-x="779" 
d="M559 890l-142 -135h-82l110 135h114zM669 670v-670h-34l-435 479v-479h-90v670h34l435 -485v485h90z" />
    <glyph glyph-name="nacute" unicode="&#x144;" horiz-adv-x="585" 
d="M478 720l-142 -135h-82l110 135h114zM330 510q81 0 133 -53t52 -152v-305h-82l-1 297q0 133 -116 133q-37 0 -76.5 -27.5t-72.5 -70.5v-332h-82v500h82v-79q27 35 71.5 62t91.5 27z" />
    <glyph glyph-name="Ncommaaccent" unicode="&#x145;" horiz-adv-x="779" 
d="M669 670v-670h-34l-435 479v-479h-90v670h34l435 -485v485h90zM355 -22q44 0 75.5 -26.5t31.5 -67.5q0 -50 -32.5 -79.5t-70.5 -29.5q-36 0 -62 18v52q22 -18 54 -18q27 0 42.5 15t15.5 39q0 22 -17 35.5t-37 13.5v48z" />
    <glyph glyph-name="ncommaaccent" unicode="&#x146;" horiz-adv-x="585" 
d="M330 510q81 0 133 -53t52 -152v-305h-82l-1 297q0 133 -116 133q-37 0 -76.5 -27.5t-72.5 -70.5v-332h-82v500h82v-79q27 35 71.5 62t91.5 27zM264 -22q44 0 75.5 -26.5t31.5 -67.5q0 -50 -32.5 -79.5t-70.5 -29.5q-36 0 -62 18v52q22 -18 54 -18q18 0 31 7t20 19t7 28
q0 22 -17 35.5t-37 13.5v48z" />
    <glyph glyph-name="Ncaron" unicode="&#x147;" horiz-adv-x="779" 
d="M225 890h82l80 -78l80 78h82l-140 -139h-44zM669 670v-670h-34l-435 479v-479h-90v670h34l435 -485v485h90z" />
    <glyph glyph-name="ncaron" unicode="&#x148;" horiz-adv-x="585" 
d="M328 581h-44l-140 139h82l80 -78l80 78h82zM330 510q81 0 133 -53t52 -152v-305h-82l-1 297q0 133 -116 133q-37 0 -76.5 -27.5t-72.5 -70.5v-332h-82v500h82v-79q27 35 71.5 62t91.5 27z" />
    <glyph glyph-name="Eng" unicode="&#x14a;" horiz-adv-x="761" 
d="M561 672h90v-638q0 -62 -15.5 -110t-46 -82t-67.5 -56.5t-87 -40.5l-44 87q170 61 170 184v75l-354 378v-469h-97v670h36l415 -444v446z" />
    <glyph glyph-name="eng" unicode="&#x14b;" horiz-adv-x="585" 
d="M330 510q81 0 133 -53t52 -152v-318q0 -84 -45.5 -146.5t-126.5 -95.5l-37 74q66 32 96.5 73.5t30.5 102.5v5l-1 297q0 133 -116 133q-37 0 -76.5 -27.5t-72.5 -70.5v-332h-82v500h82v-79q27 35 71.5 62t91.5 27z" />
    <glyph glyph-name="Omacron" unicode="&#x14c;" horiz-adv-x="806" 
d="M578 888v-80h-350v80h350zM403 685q99 0 180.5 -47.5t127 -127.5t45.5 -175t-45.5 -175t-127 -127.5t-180.5 -47.5t-180.5 47.5t-127 127.5t-45.5 175t45.5 175t127 127.5t180.5 47.5zM403 597q-74 0 -134 -34t-93.5 -94t-33.5 -134q0 -113 74.5 -187.5t186.5 -74.5
t186.5 74.5t74.5 187.5t-74.5 187.5t-186.5 74.5z" />
    <glyph glyph-name="omacron" unicode="&#x14d;" 
d="M486 718v-80h-350v80h350zM311 510q112 0 186.5 -77.5t74.5 -185.5t-74.5 -185t-186.5 -77t-186.5 77t-74.5 185t74.5 185.5t186.5 77.5zM311 430q-78 0 -127 -54t-49 -129t49 -128.5t127 -53.5t127 53.5t49 128.5t-49 129t-127 54z" />
    <glyph glyph-name="Ohungarumlaut" unicode="&#x150;" horiz-adv-x="806" 
d="M474 890l-142 -135h-82l110 135h114zM625 890l-142 -135h-82l110 135h114zM403 685q150 0 251.5 -102.5t101.5 -247.5q0 -95 -45.5 -175t-127 -127.5t-180.5 -47.5t-180.5 47.5t-127 127.5t-45.5 175q0 145 101.5 247.5t251.5 102.5zM403 597q-112 0 -186.5 -74.5
t-74.5 -187.5t74.5 -187.5t186.5 -74.5t186.5 74.5t74.5 187.5t-74.5 187.5t-186.5 74.5z" />
    <glyph glyph-name="ohungarumlaut" unicode="&#x151;" 
d="M382 720l-142 -135h-82l110 135h114zM533 720l-142 -135h-82l110 135h114zM311 510q112 0 186.5 -77.5t74.5 -185.5t-74.5 -185t-186.5 -77t-186.5 77t-74.5 185t74.5 185.5t186.5 77.5zM311 430q-78 0 -127 -54t-49 -129t49 -128.5t127 -53.5t127 53.5t49 128.5t-49 129
t-127 54z" />
    <glyph glyph-name="OE" unicode="&#x152;" horiz-adv-x="1038" 
d="M50 335q0 94 48 171.5t129 120.5t176 43h93v-95h-93q-108 0 -179.5 -65t-71.5 -175t71.5 -175t179.5 -65h93v-95h-93q-71 0 -136 25.5t-112.5 69.5t-76 107t-28.5 133zM958 585h-369v-199h326v-85h-326v-216h369v-85h-459v670h459v-85z" />
    <glyph glyph-name="oe" unicode="&#x153;" horiz-adv-x="1014" 
d="M964 267v-49h-384q9 -65 56.5 -109t117.5 -44q94 0 180 88l-1 -89q-24 -29 -74.5 -54t-104.5 -25q-71 0 -129 33t-92 88q-35 -56 -93 -88.5t-129 -32.5q-112 0 -186.5 77t-74.5 185t74.5 185.5t186.5 77.5q70 0 127.5 -32t92.5 -87q32 55 85 87t118 32q111 0 170.5 -67.5
t59.5 -175.5zM311 65q78 0 127 53.5t49 128.5t-49 129t-127 54t-127 -54t-49 -129t49 -128.5t127 -53.5zM582 288h301q-7 69 -49.5 105.5t-99.5 36.5q-60 0 -100.5 -40t-51.5 -102z" />
    <glyph glyph-name="Racute" unicode="&#x154;" horiz-adv-x="636" 
d="M480 890l-142 -135h-82l110 135h114zM626 0h-138l-288 280v-280h-90v670h257q60 0 111.5 -20.5t86.5 -67.5t35 -113q0 -60 -36 -104.5t-89 -65.5t-113 -21q-10 0 -48 2zM352 585h-152v-215q70 -19 149 -19q75 0 117 31.5t42 86t-44.5 85.5t-111.5 31z" />
    <glyph glyph-name="racute" unicode="&#x155;" horiz-adv-x="393" 
d="M399 720l-142 -135h-82l110 135h114zM167 400q19 33 44 58t53.5 38.5t56.5 13.5q29 0 52 -10v-95q-32 19 -64 19q-46 0 -77.5 -31t-64.5 -91v-302h-82v500h82v-100z" />
    <glyph glyph-name="Rcommaaccent" unicode="&#x156;" horiz-adv-x="636" 
d="M314 280l312 -280h-138l-288 280v-280h-90v670h257q60 0 111.5 -20.5t86.5 -67.5t35 -113q0 -60 -36 -104.5t-89 -65.5t-113 -21q-10 0 -48 2zM352 585h-152v-215q70 -19 149 -19q75 0 117 31.5t42 86.5q0 27 -12 49.5t-33.5 37t-50 22t-60.5 7.5zM332 -22
q44 0 75.5 -26.5t31.5 -67.5q0 -50 -32.5 -79.5t-70.5 -29.5q-36 0 -62 18v52q22 -18 54 -18q18 0 31 7t20 19t7 28q0 22 -17 35.5t-37 13.5v48z" />
    <glyph glyph-name="rcommaaccent" unicode="&#x157;" horiz-adv-x="393" 
d="M321 510q29 0 52 -10v-95q-32 19 -64 19q-46 0 -77.5 -31t-64.5 -91v-302h-82v500h82v-100q19 33 44 58t53.5 38.5t56.5 13.5zM96 -22q44 0 75.5 -26.5t31.5 -67.5q0 -50 -32.5 -79.5t-70.5 -29.5q-36 0 -62 18v52q22 -18 54 -18q27 0 42.5 15t15.5 39q0 22 -17 35.5
t-37 13.5v48z" />
    <glyph glyph-name="Rcaron" unicode="&#x158;" horiz-adv-x="636" 
d="M330 751h-44l-140 139h82l80 -78l80 78h82zM626 0h-138l-288 280v-280h-90v670h257q60 0 111.5 -20.5t86.5 -67.5t35 -113q0 -60 -36 -104.5t-89 -65.5t-113 -21q-10 0 -48 2zM352 585h-152v-215q70 -19 149 -19q75 0 117 31.5t42 86t-44.5 85.5t-111.5 31z" />
    <glyph glyph-name="rcaron" unicode="&#x159;" horiz-adv-x="393" 
d="M249 581h-44l-140 139h82l80 -78l80 78h82zM167 400q29 50 70.5 80t83.5 30q29 0 52 -10v-95q-32 19 -64 19q-46 0 -77.5 -31t-64.5 -91v-302h-82v500h82v-100z" />
    <glyph glyph-name="Sacute" unicode="&#x15a;" horiz-adv-x="523" 
d="M445 890l-142 -135h-82l110 135h114zM272 680q82 0 165 -53v-93q-79 58 -155 58q-53 0 -96 -26.5t-43 -76.5q0 -37 24 -57.5t75 -43.5l92 -42q73 -33 106 -71.5t33 -98.5q0 -80 -68 -133t-162 -53q-100 0 -192 65v93q101 -70 204 -70q52 0 89 25.5t37 68.5q0 54 -96 96
l-111 50q-69 31 -96.5 72.5t-27.5 101.5q0 79 66 133.5t156 54.5z" />
    <glyph glyph-name="sacute" unicode="&#x15b;" horiz-adv-x="428" 
d="M404 720l-142 -135h-82l110 135h114zM234 510q41 0 79 -11.5t58 -26.5v-88q-61 46 -131 46q-44 0 -69 -20.5t-25 -47.5q0 -49 61 -70l84 -30q97 -34 97 -124q0 -64 -52.5 -108.5t-131.5 -44.5q-41 0 -87.5 14.5t-66.5 29.5v88q24 -18 68.5 -35t79.5 -17q46 0 74 20.5
t28 52.5q0 23 -17 37t-55 28l-74 27q-55 20 -75.5 52.5t-20.5 79.5q0 65 48.5 106.5t127.5 41.5z" />
    <glyph glyph-name="Scedilla" unicode="&#x15e;" horiz-adv-x="523" 
d="M473 176q0 -70 -53 -120.5t-133 -62.5l-5 -63q41 5 68.5 -17.5t27.5 -59.5q0 -27 -13 -48t-38 -33t-59 -12q-17 0 -40.5 6.5t-37.5 18.5l7 55q40 -21 74 -21q11 0 20 4t14 11t5 16q0 29 -39 29q-18 0 -35 -9l-16 12l13 108q-94 4 -182 65v93q101 -70 204 -70
q52 0 89 25.5t37 68.5q0 33 -27 55.5t-69 40.5l-111 50q-69 31 -96.5 72.5t-27.5 101.5q0 52 30.5 95.5t81.5 68t110 24.5q37 0 70 -9t51.5 -18.5t43.5 -25.5v-93q-79 58 -155 58q-53 0 -96 -26.5t-43 -76.5q0 -37 24 -57.5t75 -43.5l92 -42q73 -33 106 -71.5t33 -98.5z" />
    <glyph glyph-name="scedilla" unicode="&#x15f;" horiz-adv-x="428" 
d="M388 138q0 -59 -43.5 -101.5t-113.5 -50.5l-5 -56q41 5 68.5 -17.5t27.5 -59.5q0 -41 -29.5 -67t-80.5 -26q-47 0 -78 25l7 55q40 -21 74 -21q17 0 28 8.5t11 22.5q0 29 -39 29q-18 0 -35 -9l-16 12l12 105q-36 4 -73 17t-53 25v88q24 -18 68.5 -35t79.5 -17
q46 0 74 20.5t28 52.5q0 23 -17 37t-55 28l-74 27q-55 20 -75.5 52.5t-20.5 79.5q0 65 48.5 106.5t127.5 41.5q41 0 79 -11.5t58 -26.5v-88q-61 46 -131 46q-44 0 -69 -20.5t-25 -47.5q0 -49 61 -70l84 -30q97 -34 97 -124z" />
    <glyph glyph-name="Scaron" unicode="&#x160;" horiz-adv-x="523" 
d="M111 890h82l80 -78l80 78h82l-140 -139h-44zM272 680q28 0 52.5 -4.5t45.5 -13t34.5 -16t32.5 -19.5v-93q-79 58 -155 58q-33 0 -63.5 -10t-53 -34.5t-22.5 -58.5q0 -37 24 -57.5t75 -43.5l92 -42q73 -33 106 -71.5t33 -98.5q0 -80 -68 -133t-162 -53q-100 0 -192 65v93
q101 -70 204 -70q52 0 89 25.5t37 68.5q0 33 -27 55.5t-69 40.5l-111 50q-69 31 -96.5 72.5t-27.5 101.5q0 52 30.5 95.5t81.5 68t110 24.5z" />
    <glyph glyph-name="scaron" unicode="&#x161;" horiz-adv-x="428" 
d="M70 720h82l80 -78l80 78h82l-140 -139h-44zM234 510q41 0 79 -11.5t58 -26.5v-88q-61 46 -131 46q-44 0 -69 -20.5t-25 -47.5q0 -49 61 -70l84 -30q97 -34 97 -124q0 -64 -52.5 -108.5t-131.5 -44.5q-41 0 -87.5 14.5t-66.5 29.5v88q24 -18 68.5 -35t79.5 -17
q46 0 74 20.5t28 52.5q0 23 -17 37t-55 28l-74 27q-55 20 -75.5 52.5t-20.5 79.5q0 65 48.5 106.5t127.5 41.5z" />
    <glyph glyph-name="uni0162" unicode="&#x162;" horiz-adv-x="611" 
d="M582 670v-85h-231v-582h-90v582h-231v85h552zM326 -70q27 3 49 -6t34.5 -28t12.5 -43q0 -27 -13 -48t-38 -33t-59 -12q-17 0 -40.5 6.5t-37.5 18.5l7 55q40 -21 74 -21q11 0 20 4t14 11t5 16q0 29 -39 29q-18 0 -35 -9l-16 12l14 120h54z" />
    <glyph glyph-name="uni0163" unicode="&#x163;" horiz-adv-x="433" 
d="M373 20q-41 -33 -94 -35l-5 -55q41 5 68.5 -17.5t27.5 -59.5q0 -27 -13 -48t-38 -33t-59 -12q-17 0 -40.5 6.5t-37.5 18.5l7 55q40 -21 74 -21q17 0 28 8.5t11 22.5q0 29 -39 29q-18 0 -35 -9l-16 12l13 109q-28 8 -47 27t-28 46.5t-9 61.5v297h-96v24q87 39 140 197h38
v-144h146v-77h-146v-293q0 -67 65 -67q45 0 85 24v-67z" />
    <glyph glyph-name="Tcaron" unicode="&#x164;" horiz-adv-x="611" 
d="M328 751h-44l-140 139h82l80 -78l80 78h82zM582 670v-85h-231v-582h-90v582h-231v85h552z" />
    <glyph glyph-name="tcaron" unicode="&#x165;" horiz-adv-x="442" 
d="M295 718h87l-30 -188h-67zM223 644v-144h146v-77h-146v-293q0 -67 65 -67q45 0 85 24v-67q-23 -18 -45.5 -26.5t-57.5 -8.5q-62 0 -95.5 38t-33.5 103v297h-96v24q87 39 140 197h38z" />
    <glyph glyph-name="Tbar" unicode="&#x166;" horiz-adv-x="611" 
d="M481 888v-80h-350v80h350zM582 670v-85h-231v-582h-90v582h-231v85h552z" />
    <glyph glyph-name="tbar" unicode="&#x167;" horiz-adv-x="428" 
d="M288 63q45 0 85 24v-67q-23 -18 -45.5 -26.5t-57.5 -8.5q-62 0 -95.5 38t-33.5 103v97h-98v70h98v130h-96v24q87 39 140 197h38v-144h146v-77h-146v-130h140v-70h-140v-93q0 -67 65 -67z" />
    <glyph glyph-name="Umacron" unicode="&#x16a;" horiz-adv-x="752" 
d="M551 888v-80h-350v80h350zM652 672v-407q0 -128 -77.5 -203t-198.5 -75t-198.5 75t-77.5 203v407h90v-404q0 -96 52.5 -143t133.5 -46q82 1 134 47t52 142v404h90z" />
    <glyph glyph-name="umacron" unicode="&#x16b;" horiz-adv-x="564" 
d="M462 718v-80h-350v80h350zM494 500v-296q0 -97 -60 -155.5t-152 -58.5t-152 58.5t-60 155.5v296h85v-296q0 -62 37 -98t90 -36t90 36t37 98v296h85z" />
    <glyph glyph-name="Uring" unicode="&#x16e;" horiz-adv-x="752" 
d="M376 895q23 0 42 -11.5t29.5 -30.5t10.5 -41q0 -34 -23.5 -58.5t-58.5 -24.5t-59 24.5t-24 58.5t24 58.5t59 24.5zM376 854q-17 0 -29 -12.5t-12 -29.5t12 -29.5t29 -12.5q16 0 28 12.5t12 29.5q0 11 -5.5 20.5t-14.5 15.5t-20 6zM652 672v-407q0 -128 -77.5 -203
t-198.5 -75t-198.5 75t-77.5 203v407h90v-404q0 -96 52.5 -143t133.5 -46q82 1 134 47t52 142v404h90z" />
    <glyph glyph-name="uring" unicode="&#x16f;" horiz-adv-x="564" 
d="M287 725q23 0 42 -11.5t29.5 -30.5t10.5 -41q0 -34 -23.5 -58.5t-58.5 -24.5t-59 24.5t-24 58.5t24 58.5t59 24.5zM287 684q-17 0 -29 -12.5t-12 -29.5t12 -29.5t29 -12.5q16 0 28 12.5t12 29.5q0 11 -5.5 20.5t-14.5 15.5t-20 6zM494 500v-296q0 -97 -60 -155.5
t-152 -58.5t-152 58.5t-60 155.5v296h85v-296q0 -32 10.5 -57.5t28 -42t40.5 -25.5t48 -9q53 0 90 36t37 98v296h85z" />
    <glyph glyph-name="Uhungarumlaut" unicode="&#x170;" horiz-adv-x="752" 
d="M447 890l-142 -135h-82l110 135h114zM598 890l-142 -135h-82l110 135h114zM652 672v-407q0 -128 -77.5 -203t-198.5 -75t-198.5 75t-77.5 203v407h90v-404q0 -96 52.5 -143t133.5 -46q82 1 134 47t52 142v404h90z" />
    <glyph glyph-name="uhungarumlaut" unicode="&#x171;" horiz-adv-x="564" 
d="M358 720l-142 -135h-82l110 135h114zM509 720l-142 -135h-82l110 135h114zM494 500v-296q0 -97 -60 -155.5t-152 -58.5t-152 58.5t-60 155.5v296h85v-296q0 -32 10.5 -57.5t28 -42t40.5 -25.5t48 -9q53 0 90 36t37 98v296h85z" />
    <glyph glyph-name="Uogonek" unicode="&#x172;" horiz-adv-x="752" 
d="M562 672h90v-407q0 -107 -55 -177.5t-146 -92.5q-39 -18 -66.5 -42t-27.5 -51q0 -14 6 -25.5t18 -18.5t29 -7q27 0 54 18v-69q-1 -1 -12 -6.5t-17.5 -8.5t-19 -6.5t-25.5 -3.5q-31 0 -57 10.5t-43 33.5t-17 55q0 37 24 66t58 48q-113 7 -184 81t-71 196v407h90v-404
q0 -96 52.5 -143t133.5 -46q82 1 134 47t52 142v404z" />
    <glyph glyph-name="uogonek" unicode="&#x173;" horiz-adv-x="564" 
d="M409 500h85v-296q0 -76 -38 -129.5t-101 -73.5h12q-19 -8 -36.5 -17.5t-34 -22t-26.5 -28t-10 -31.5q0 -22 14 -36.5t39 -14.5q27 0 54 18v-69q-1 -1 -12 -6.5t-17.5 -8.5t-19 -6.5t-25.5 -3.5q-31 0 -57 10.5t-43 33.5t-17 55q0 39 26 69t61 48q-41 3 -76.5 19t-61.5 43
t-40.5 66t-14.5 85v296h85v-296q0 -62 37 -98t90 -36t90 36t37 98v296z" />
    <glyph glyph-name="Wcircumflex" unicode="&#x174;" horiz-adv-x="944" 
d="M494 890l140 -139h-82l-80 78l-80 -78h-82l140 139h44zM934 670l-235 -670h-51l-180 507l-182 -507h-51l-225 670h98l157 -498l177 498l58 -1l172 -497l164 498h98z" />
    <glyph glyph-name="wcircumflex" unicode="&#x175;" horiz-adv-x="756" 
d="M401 720l140 -139h-82l-80 78l-80 -78h-82l140 139h44zM741 500l-175 -500h-51l-137 353l-137 -353h-51l-175 500h98l111 -351l131 351h46l131 -351l111 351h98z" />
    <glyph glyph-name="Ycircumflex" unicode="&#x176;" horiz-adv-x="631" 
d="M316 829l-80 -78h-82l140 139h44l140 -139h-82zM621 670l-257 -395v-275h-97v262l-257 408h108l196 -316l199 316h108z" />
    <glyph glyph-name="ycircumflex" unicode="&#x177;" horiz-adv-x="571" 
d="M285 659l-80 -78h-82l140 139h44l140 -139h-82zM458 500h98l-368 -740h-95l143 270l-221 470h98l175 -368z" />
    <glyph glyph-name="Ydieresis" unicode="&#x178;" horiz-adv-x="631" 
d="M211 763q-26 0 -44.5 18.5t-18.5 44.5t18.5 44.5t44.5 18.5t44.5 -18.5t18.5 -44.5t-19 -44.5t-44 -18.5zM421 763q-26 0 -44.5 18.5t-18.5 44.5t18.5 44.5t44.5 18.5t44.5 -18.5t18.5 -44.5t-19 -44.5t-44 -18.5zM621 670l-257 -395v-275h-97v262l-257 408h108l196 -316
l199 316h108z" />
    <glyph glyph-name="Zacute" unicode="&#x179;" horiz-adv-x="672" 
d="M519 890l-142 -135h-82l110 135h114zM605 670v-36l-404 -549h404v-85h-538v36l393 549h-370v85h515z" />
    <glyph glyph-name="zacute" unicode="&#x17a;" horiz-adv-x="549" 
d="M447 720l-142 -135h-82l110 135h114zM484 500v-27l-301 -396h311v-77h-439v27l291 396h-271v77h409z" />
    <glyph glyph-name="Zdotaccent" unicode="&#x17b;" horiz-adv-x="672" 
d="M347 890q26 0 44.5 -18.5t18.5 -44.5q0 -25 -19 -44t-44 -19q-26 0 -44.5 18.5t-18.5 44.5t18.5 44.5t44.5 18.5zM605 670v-36l-404 -549h404v-85h-538v36l393 549h-370v85h515z" />
    <glyph glyph-name="zdotaccent" unicode="&#x17c;" horiz-adv-x="549" 
d="M275 720q26 0 44.5 -18.5t18.5 -44.5t-19 -44.5t-44 -18.5q-26 0 -44.5 18.5t-18.5 44.5t18.5 44.5t44.5 18.5zM484 500v-27l-301 -396h311v-77h-439v27l291 396h-271v77h409z" />
    <glyph glyph-name="Zcaron" unicode="&#x17d;" horiz-adv-x="672" 
d="M185 890h82l80 -78l80 78h82l-140 -139h-44zM605 670v-36l-404 -549h404v-85h-538v36l393 549h-370v85h515z" />
    <glyph glyph-name="zcaron" unicode="&#x17e;" horiz-adv-x="549" 
d="M113 720h82l80 -78l80 78h82l-140 -139h-44zM484 500v-27l-301 -396h311v-77h-439v27l291 396h-271v77h409z" />
    <glyph glyph-name="circumflex" unicode="&#x2c6;" horiz-adv-x="484" 
d="M264 720l140 -139h-82l-80 78l-80 -78h-82l140 139h44z" />
    <glyph glyph-name="caron" unicode="&#x2c7;" horiz-adv-x="484" 
d="M80 720h82l80 -78l80 78h82l-140 -139h-44z" />
    <glyph glyph-name="breve" unicode="&#x2d8;" horiz-adv-x="484" 
d="M404 720q-2 -68 -47.5 -109t-114.5 -41t-114.5 41t-47.5 109h72q3 -24 14 -42.5t30.5 -29t45.5 -10.5q39 0 62 22.5t28 59.5h72z" />
    <glyph glyph-name="dotaccent" unicode="&#x2d9;" horiz-adv-x="300" 
d="M150 720q26 0 44.5 -18.5t18.5 -44.5t-18.5 -44.5t-44.5 -18.5q-17 0 -31.5 8.5t-23 23t-8.5 31.5q0 26 18.5 44.5t44.5 18.5z" />
    <glyph glyph-name="ring" unicode="&#x2da;" horiz-adv-x="325" 
d="M163 725q18 0 33 -6.5t26 -18t17 -26.5t6 -32q0 -34 -23.5 -58.5t-58.5 -24.5t-59 24.5t-24 58.5t24 58.5t59 24.5zM163 684q-17 0 -29 -12.5t-12 -29.5t12 -29.5t29 -12.5q16 0 28 12.5t12 29.5q0 11 -5.5 20.5t-14.5 15.5t-20 6z" />
    <glyph glyph-name="ogonek" unicode="&#x2db;" horiz-adv-x="600" 
d="M294 1h80q-43 -17 -75 -43t-32 -56q0 -22 14 -36.5t39 -14.5q27 0 54 18v-69q-1 -1 -12 -6.5t-17.5 -8.5t-19 -6.5t-25.5 -3.5q-31 0 -57 10.5t-43 33.5t-17 55q0 25 12 47.5t30 38t35.5 25.5t33.5 16z" />
    <glyph glyph-name="tilde" unicode="&#x2dc;" horiz-adv-x="470" 
d="M410 720q0 -44 -29.5 -73.5t-74.5 -29.5q-25 0 -44.5 8t-30 17.5t-24 17.5t-27.5 8q-6 0 -11 -1.5t-8.5 -4.5t-7 -7.5t-5.5 -9.5t-3 -11t-1 -12h-68q0 44 29.5 73.5t74.5 29.5q25 0 44.5 -8t30 -17.5t24 -17.5t27.5 -8q17 0 26.5 13t9.5 33h68z" />
    <glyph glyph-name="hungarumlaut" unicode="&#x2dd;" horiz-adv-x="475" 
d="M274 720l-142 -135h-82l110 135h114zM425 720l-142 -135h-82l110 135h114z" />
    <glyph glyph-name="uni0326" unicode="&#x326;" horiz-adv-x="0" 
d="M-167 -22q44 0 75.5 -26.5t31.5 -67.5q0 -50 -32.5 -79.5t-70.5 -29.5q-36 0 -62 18v52q22 -18 54 -18q27 0 42.5 15t15.5 39q0 22 -17 35.5t-37 13.5v48z" />
    <glyph glyph-name="Wgrave" unicode="&#x1e80;" horiz-adv-x="944" 
d="M293 890h114l110 -135h-82zM934 670l-235 -670h-51l-180 507l-182 -507h-51l-225 670h98l157 -498l177 498l58 -1l172 -497l164 498h98z" />
    <glyph glyph-name="wgrave" unicode="&#x1e81;" horiz-adv-x="756" 
d="M200 720h114l110 -135h-82zM741 500l-175 -500h-51l-137 353l-137 -353h-51l-175 500h98l111 -351l131 351h46l131 -351l111 351h98z" />
    <glyph glyph-name="Wacute" unicode="&#x1e82;" horiz-adv-x="944" 
d="M644 890l-142 -135h-82l110 135h114zM934 670l-235 -670h-51l-180 507l-182 -507h-51l-225 670h98l157 -498l177 498l58 -1l172 -497l164 498h98z" />
    <glyph glyph-name="wacute" unicode="&#x1e83;" horiz-adv-x="756" 
d="M551 720l-142 -135h-82l110 135h114zM741 500l-175 -500h-51l-137 353l-137 -353h-51l-175 500h98l111 -351l131 351h46l131 -351l111 351h98z" />
    <glyph glyph-name="Wdieresis" unicode="&#x1e84;" horiz-adv-x="944" 
d="M367 889q26 0 44.5 -18.5t18.5 -44.5t-19 -44.5t-44 -18.5q-26 0 -44.5 18.5t-18.5 44.5t18.5 44.5t44.5 18.5zM577 889q26 0 44.5 -18.5t18.5 -44.5q0 -25 -19 -44t-44 -19q-26 0 -44.5 18.5t-18.5 44.5t18.5 44.5t44.5 18.5zM934 670l-235 -670h-51l-180 507l-182 -507
h-51l-225 670h98l157 -498l177 498l58 -1l172 -497l164 498h98z" />
    <glyph glyph-name="wdieresis" unicode="&#x1e85;" horiz-adv-x="756" 
d="M274 719q26 0 44.5 -18.5t18.5 -44.5t-19 -44.5t-44 -18.5q-26 0 -44.5 18.5t-18.5 44.5t18.5 44.5t44.5 18.5zM484 719q17 0 31.5 -8.5t23 -23t8.5 -31.5q0 -26 -19 -44.5t-44 -18.5q-26 0 -44.5 18.5t-18.5 44.5t18.5 44.5t44.5 18.5zM741 500l-175 -500h-51l-137 353
l-137 -353h-51l-175 500h98l111 -351l131 351h46l131 -351l111 351h98z" />
    <glyph glyph-name="Ygrave" unicode="&#x1ef2;" horiz-adv-x="631" 
d="M361 755h-82l-142 135h114zM621 670l-257 -395v-275h-97v262l-257 408h108l196 -316l199 316h108z" />
    <glyph glyph-name="ygrave" unicode="&#x1ef3;" horiz-adv-x="571" 
d="M330 585h-82l-142 135h114zM458 500h98l-368 -740h-95l143 270l-221 470h98l175 -368z" />
    <glyph glyph-name="endash" unicode="&#x2013;" horiz-adv-x="610" 
d="M550 298v-90h-490v90h490z" />
    <glyph glyph-name="emdash" unicode="&#x2014;" horiz-adv-x="888" 
d="M828 298v-90h-768v90h768z" />
    <glyph glyph-name="quoteleft" unicode="&#x2018;" horiz-adv-x="232" 
d="M150 688l62 -16l-90 -269l-82 28z" />
    <glyph glyph-name="quoteright" unicode="&#x2019;" horiz-adv-x="212" 
d="M110 688l82 -28l-110 -257l-62 16z" />
    <glyph glyph-name="quotesinglbase" unicode="&#x201a;" horiz-adv-x="312" 
d="M120 118l82 -28l-90 -267l-62 16z" />
    <glyph glyph-name="quotedblleft" unicode="&#x201c;" horiz-adv-x="432" 
d="M150 718l62 -16l-90 -269l-82 28zM330 718l62 -16l-90 -269l-82 28z" />
    <glyph glyph-name="quotedblright" unicode="&#x201d;" horiz-adv-x="432" 
d="M102 427l-62 16l90 269l82 -28zM282 427l-62 16l90 269l82 -28z" />
    <glyph glyph-name="quotedblbase" unicode="&#x201e;" horiz-adv-x="432" 
d="M102 -166l-62 16l90 269l82 -28zM282 -166l-62 16l90 269l82 -28z" />
    <glyph glyph-name="dagger" unicode="&#x2020;" horiz-adv-x="443" 
d="M403 520v-80h-133v-540h-97v540h-133v80h133v150h97v-150h133z" />
    <glyph glyph-name="daggerdbl" unicode="&#x2021;" horiz-adv-x="600" 
d="M403 440h-133v-175h133v-80h-133v-285h-97v285h-133v80h133v175h-133v80h133v150h97v-150h133v-80z" />
    <glyph glyph-name="bullet" unicode="&#x2022;" horiz-adv-x="423" 
d="M211 435q54 0 93 -38.5t39 -93.5q0 -53 -39 -92t-93 -39t-92.5 38.5t-38.5 92.5q0 55 38 93.5t93 38.5z" />
    <glyph glyph-name="ellipsis" unicode="&#x2026;" horiz-adv-x="840" 
d="M150 122q29 0 49.5 -20.5t20.5 -49.5q0 -28 -21 -49t-49 -21q-29 0 -49.5 20.5t-20.5 49.5t20.5 49.5t49.5 20.5zM420 122q29 0 49.5 -20.5t20.5 -49.5q0 -28 -21 -49t-49 -21q-29 0 -49.5 20.5t-20.5 49.5t20.5 49.5t49.5 20.5zM690 122q29 0 49.5 -20.5t20.5 -49.5
q0 -28 -21 -49t-49 -21q-29 0 -49.5 20.5t-20.5 49.5t20.5 49.5t49.5 20.5z" />
    <glyph glyph-name="Euro" unicode="&#x20ac;" horiz-adv-x="617" 
d="M396 597q-73 0 -119.5 -45t-62.5 -124h258v-70h-267v-23q0 -22 1 -32h266v-70h-256q12 -49 35 -84t60 -55.5t85 -20.5q93 0 161 58v-90q-69 -56 -161 -56q-107 0 -178.5 68t-94.5 180h-73v70h64q-1 11 -1 32v23h-63v70h71q22 115 93.5 186t181.5 71q26 0 51.5 -6t47 -16
t40 -22.5t32.5 -27.5v-99q-83 83 -171 83z" />
    <glyph glyph-name="trademark" unicode="&#x2122;" horiz-adv-x="511" 
d="M40 629v42h190v-42h-69v-162h-52v162h-69zM445 670h26v-203h-53v98l-42 -64h-18l-46 64v-98h-53v203h27l81 -107z" />
    <glyph glyph-name="minus" unicode="&#x2212;" horiz-adv-x="551" 
d="M471 358v-90h-391v90h391z" />
    <glyph glyph-name="approxequal" unicode="&#x2248;" horiz-adv-x="524" 
d="M464 489q0 -53 -36 -89t-90 -36q-30 0 -54 9.5t-36.5 21.5t-29 21.5t-32.5 9.5q-20 0 -32 -16t-12 -40h-82q0 26 9.5 49t26 40t40 26.5t50.5 9.5q21 0 38.5 -4.5t29 -11.5t22.5 -15t19.5 -15t19.5 -11.5t23 -4.5q21 0 32.5 16t11.5 40h82zM464 274q0 -53 -36 -89t-90 -36
q-30 0 -54 9.5t-36.5 21.5t-29 21.5t-32.5 9.5q-20 0 -32 -16t-12 -40h-82q0 35 16 63.5t45 45t65 16.5q21 0 38.5 -4.5t29 -11.5t22.5 -15t19.5 -15t19.5 -11.5t23 -4.5q21 0 32.5 16t11.5 40h82z" />
    <glyph glyph-name="notequal" unicode="&#x2260;" horiz-adv-x="551" 
d="M471 358h-133l-54 -95h187v-90h-238l-51 -91h-68l51 91h-85v90h135l53 95h-188v90h238l35 62h71l-35 -62h82v-90z" />
    <glyph glyph-name="lessequal" unicode="&#x2264;" horiz-adv-x="533" 
d="M453 602v-81l-283 -158l283 -169v-81l-373 228v42zM80 74h373v-74h-373v74z" />
    <glyph glyph-name="greaterequal" unicode="&#x2265;" horiz-adv-x="533" 
d="M80 602l373 -219v-42l-373 -228v81l283 169l-283 158v81zM453 74v-74h-373v74h373z" />
    <glyph glyph-name="dotlessi" horiz-adv-x="301" 
d="M216 500v-500h-82v423h-79v77h161z" />
    </font>
</defs>
</svg>
