<?xml version="1.0" standalone="no"?>
<!DOCTYPE svg PUBLIC "-//W3C//DTD SVG 1.1//EN" "http://www.w3.org/Graphics/SVG/1.1/DTD/svg11.dtd" >
<svg xmlns="http://www.w3.org/2000/svg" xmlns:xlink="http://www.w3.org/1999/xlink" version="1.1">
<metadata>
Created by FontForge 20170731 at Wed Jul 15 01:06:18 2015
 By Aleksey,,,
Copyright (c) 2015 by Kosal Sen, Philatype. All rights reserved.
</metadata>
<defs>
<font id="Sen-Bold" horiz-adv-x="575" >
  <font-face 
    font-family="Sen"
    font-weight="700"
    font-stretch="normal"
    units-per-em="1024"
    panose-1="0 0 8 0 0 0 0 0 0 0"
    ascent="819"
    descent="-205"
    x-height="505"
    cap-height="670"
    bbox="-220 -255 1002 930"
    underline-thickness="50"
    underline-position="-200"
    unicode-range="U+0020-263A"
  />
<missing-glyph horiz-adv-x="480" 
d="M394 720v-960h-305v960h305zM320 656h-159v-32h63v-36h-64v-31h160v31h-64v36h64v32zM256 532h-96v-100h160v33h-64v67zM224 499v-34h-32v34h32zM320 406h-160v-32h64v-35h-64v-32h96v67h64v32zM320 348h-32v-63h-128v-33h160v96zM320 231h-96v-53h32v22h32v-45h-96v76
h-32v-108h160v108zM320 65h-160v-108h160v108zM288 34v-46h-96v46h96zM320 -65h-160v-32h68l-68 -45v-32h160v32h-98l67 45h31v32z" />
    <glyph glyph-name="smileface" unicode="&#x3a;D" horiz-adv-x="579" 
d="M544 335q36 -105 -13 -205t-155 -136q-105 -36 -205 13t-136 154t13 205t154 136q106 36 205.5 -13t136.5 -154zM370 14q96 33 141.5 125.5t11.5 188.5q-33 96 -125 141t-188 13q-13 -4 -30 -13v-1q2 -6 -3 -8t-7 4q-3 -1 -6 -3t-6.5 -4.5t-6.5 -3.5q-2 -2 -3 -2l-11 -8
q5 0 6 -4q2 -5 -4 -7q-5 -2 -7 4v3q-5 -4 -28 -27q3 -5 -3 -7q-1 -1 -3 0q-4 -6 -6 -8q3 -3 3 -4q2 -5 -3 -7q-4 -1 -7 2q0 -1 -5 -8q5 0 6 -5q2 -5 -4 -7q-4 -1 -7 3l-6 -11q5 2 7 -4q2 -5 -3 -7t-7 4q-2 -4 -4 -10q4 0 5 -3q2 -6 -4 -8q-4 0 -5 2l-3 -11l3 -3q2 -5 -5 -7
q-1 -1 -3 -1q-7 -27 -8 -51q4 -2 5 -4q2 -5 -4 -7l-1 -1q0 -21 2 -33q2 -2 2 -3q2 -3 -1 -6q3 -13 4 -17q5 3 7 -3t-4 -7v-1q0 -1 1.5 -5t2.5 -6l3 -8q5 2 7 -4q2 -5 -3 -7l3.5 -7t3.5 -8q5 0 5 -4q2 -2 0 -4q7 -15 18 -28q1 1 2 1q5 2 7 -3t-2 -7q4 -4 12.5 -13t12.5 -13
q4 0 6 -4v-1q3 -2 7 -6q2 3 4 3q5 2 7 -3q0 -5 -2 -6q4 -4 11 -7q-2 5 3 7q6 2 8 -4q2 -5 -4 -7q15 -9 30 -15q0 1 -1 2q-2 5 4 7q5 2 7 -3q2 -6 -3 -9h-2q5 -2 13 -4q-2 7 4 9q5 2 7 -5q1 -4 -3 -7l11 -3q0 4 4 4q5 2 7 -3v-3q1 -1 4 -1t5 -1l1 1q5 2 7 -2q24 -2 37 -1
q0 4 3 4q6 2 8 -3v-1l20 3q-2 0 -2 2q-2 6 4 8q5 2 7 -4q0 -3 -1 -5q15 3 34 9zM271 463q-5 -2 -7 3t3 7t7 -3t-3 -7zM224 460q-5 -2 -7 4q-2 5 4 7q5 2 7 -3q2 -6 -4 -8zM242 453q-5 -2 -7 4q-2 5 4 7q5 2 7 -4q2 -5 -4 -7zM290 453q-6 -2 -8 4q-2 5 4 7q5 2 7 -4
q2 -5 -3 -7zM196 451q-6 -2 -8 4q-2 5 4 7q5 2 7 -4q2 -5 -3 -7zM307 446q-5 -3 -7 3t4 8t8 -4q2 -5 -5 -7zM214 444q-4 -2 -8 3q-2 5 5 7q5 2 7 -3t-4 -7zM262 444q-6 -2 -8 3t3 7q7 2 9 -3t-4 -7zM166 441q-5 0 -5 6t5 6q6 0 6 -6t-6 -6zM273 440q-2 5 3 7t7 -3
q2 -6 -3 -8t-7 4zM327 436q-5 -2 -7 4q-2 5 4 7q5 2 7 -3q1 -4 -4 -8zM186 434q-5 -2 -7 4q-2 5 3 7t7 -4q2 -5 -3 -7zM226 438q-2 5 4 7q5 2 7 -4q2 -5 -4 -7q-5 -2 -7 4zM345 429q-5 -2 -7 4q-2 5 3 7q6 2 8 -4q2 -5 -4 -7zM244 430q-2 6 3 8q6 2 8 -4q1 -4 -4 -8
q-6 -2 -7 4zM291 431q-2 5 4 7q5 2 7 -4q2 -5 -3 -8q-6 -2 -8 5zM197 430q0 6 6 6t6 -6t-6 -6t-6 6zM158 424q-7 -2 -8 4q-2 5 3 7q7 2 9 -3q2 -6 -4 -8zM310 422q-4 5 4 8q6 2 7 -4q2 -5 -4 -7q-5 -2 -7 3zM365 419q-6 -2 -8 3q-2 6 4 8t7 -4q2 -5 -3 -7zM267 428q6 2 7 -4
q2 -5 -3 -7t-7 3t3 8zM222 428q5 0 5 -6t-5 -6q-6 0 -6 6t6 6zM347 407q-2 4 3 6q3 0 5 -1q9 6 20 9q1 0 1 0.5t1 0.5q34 12 69 -8q34 -19 48 -65q3 -9 5 -23q0 -8 -6 -9q-5 -2 -9 0q-4 4 -4 6q-1 10 -5 20q-13 41 -44 57q-23 11 -48 3q-10 -4 -15 -7q1 0 2 -1
q9 -4 12.5 -14.5t-1.5 -18.5q-3 -7 -12 -11q-10 -3 -21 2q-2 1 -10 9q-8 -28 3 -65q3 -7 -3 -13v-1q2 -5 -3 -7q-6 -2 -8 4v4q-3 3 -5 7q-5 16 -7 38q-3 0 -7 4q-2 5 5 7q1 1 2 1q2 43 32 66zM130 414q-6 -2 -8 4q-2 5 4 7q5 2 7 -4q2 -5 -3 -7zM169 420q0 5 6 5t6 -5
q0 -6 -6 -6t-6 6zM285 420q5 2 7 -4q2 -5 -3 -7t-7 4q-2 5 3 7zM329 413q-2 5 4 7q5 2 7 -3q2 -6 -4 -8q-5 -2 -7 4zM191 418q5 2 7 -4q2 -5 -3 -7t-7 3q-2 6 3 8zM239 418q5 2 7 -4q2 -5 -4 -7q-5 -2 -7 4q-2 5 4 7zM148 405q-5 -2 -7 3q-2 6 3 8q6 2 8 -4q2 -5 -4 -7z
M304 411q6 2 8 -4t-4 -7q-6 -2 -8 3q-2 6 4 8zM256 410q7 2 9 -3t-4 -7t-8 3t3 7zM206 403q0 6 7 6q5 0 5 -6t-5 -6q-7 0 -7 6zM163 408q6 2 8 -3q2 -6 -4 -8q-5 -2 -7 4q-2 5 3 7zM120 395q-5 -2 -7 4q-2 5 4 7q5 2 7 -3q2 -6 -4 -8zM326 392q-5 -2 -7 4q-2 5 4 7q5 2 7 -3
q2 -6 -4 -8zM229 401q5 2 7 -4q2 -5 -4 -7q-5 -2 -7 4q-2 5 4 7zM276 401q5 2 7 -3q2 -6 -3 -8t-7 4q-2 5 3 7zM131 392q-2 5 4 7q5 2 7 -4q2 -5 -4 -7q-5 -2 -7 4zM178 394q0 5 6 5t6 -5q0 -6 -6 -6t-6 6zM294 394q5 2 7 -4q2 -5 -3 -7t-7 3q-2 6 3 8zM248 392q5 2 7 -4
q2 -5 -4 -7q-5 -2 -7 3q-2 6 4 8zM200 391q5 2 8 -3q2 -6 -4 -7q-5 -2 -7 3t3 7zM111 379q-6 -2 -8 3q-2 6 4 7q5 2 7 -3t-3 -7zM153 389q6 2 8 -3q3 -5 -3 -7t-8 3t3 7zM274 381q2 -7 -4 -9q-5 -2 -7 5q-2 5 3 7q6 2 8 -3zM314 384q5 2 7 -3q2 -6 -3 -8q-6 -2 -8 4
q-3 5 4 7zM306 266q-5 -2 -7 3l-1 1q-5 -2 -9 1q-3 1 -3 7q-1 8 -5 19q-11 32 -39 46q-25 13 -51 5l-1 -1q-8 -3 -17 -8q2 0 6 -2q21 -11 12 -31q-4 -8 -13 -11q-10 -3 -18 1t-13 12q-7 -22 0 -51q14 -1 26 -10q0 -1 1 -1q4 0 5 -4q2 -5 -4 -7h-3h-1q-4 -2 -6 1q-10 7 -24 7
q-8 0 -12 -2q-5 -1 -13 -7q0 -1 -2 -1q-5 -2 -8 2q-2 1 -2 5q0 2 2 3q-4 0 -4 3q-2 6 4 7q5 2 7 -3v-1l11 6h3q-3 12 -3 24q-2 2 -3 4q-2 5 4 7q1 13 8 30q9 20 27 34v1q-2 5 3 7q4 1 7 -2q8 4 15 6l2 1q2 4 4 5q4 1 7 -2q12 1 22 0q-3 1 -4 4q-2 6 4 8q5 2 7 -3q2 -7 -3 -9
h-1l11 -3q0 6 4 7q5 2 7 -4q1 -3 -2 -6q6 -2 10 -4q0 4 4 4q6 2 8 -3q1 -4 -2 -7q14 -9 23 -23q5 0 5 -4q1 -1 1 -2.5t-1 -2.5q6 -9 9 -19q1 -4 4 -23v-2q6 0 6 -5q2 -6 -4 -7zM172 382q6 2 8 -4t-4 -8q-5 -2 -7 4t3 8zM126 380q5 2 7 -5q2 -5 -4 -7q-5 -2 -7 4t4 8z
M289 363q-5 -2 -7 4q-2 5 3 7t7 -4q2 -5 -3 -7zM144 372q5 2 7 -4q2 -5 -4 -7q-5 -2 -7 3q-2 6 4 8zM99 358q-6 0 -6 6t6 6q5 0 5 -6t-5 -6zM311 363q2 -6 -4 -7q-6 -2 -8 3t4 7t8 -3zM116 362q5 2 7 -3q2 -6 -3 -8t-7 4q-2 5 3 7zM279 346q-5 -2 -7 4q-2 5 3 7q6 2 8 -4
q2 -5 -4 -7zM91 342q-5 -2 -7 3q-2 6 3 8q6 2 8 -4q2 -5 -4 -7zM135 353q5 2 7 -4q2 -5 -4 -7q-5 -2 -7 4q-2 5 4 7zM298 337q-5 -2 -7 4q-3 5 3 7q5 2 7 -4q2 -5 -3 -7zM107 343q5 2 7 -3t-3 -7q-7 -4 -9 3q-2 5 5 7zM129 324q-5 -2 -7 5q-2 5 3 7t7 -4q2 -5 -3 -8zM82 322
q-5 -2 -7 5q-2 5 3 7t7 -4t-3 -8zM96 326q6 2 8 -4q3 -5 -4 -7q-5 -2 -7 3t3 8zM303 321q6 2 8 -4t-4 -7q-5 -2 -7 3q-2 6 3 8zM72 305q-5 -2 -7 4q-2 5 4 7q5 2 7 -4q2 -5 -4 -7zM123 313q2 -6 -3 -8q-6 -2 -8 4q-2 5 4 7q5 2 7 -3zM420 305q-6 -2 -8 3q-3 5 4 7q5 2 7 -3
t-3 -7zM467 305q-6 -2 -8 3q-2 6 4 7q6 2 8 -3t-4 -7zM87 307q5 2 7 -4q2 -5 -3 -7t-7 3q-2 6 3 8zM391 295q-5 -2 -7 4q-2 5 3 7t7 -4q2 -5 -3 -7zM438 295q-5 -2 -7 4q-2 5 4 7q5 2 7 -4q2 -5 -4 -7zM110 289q-6 -2 -8 3q-2 6 4 7q6 2 8 -3t-4 -7zM477 292q20 10 29 -3
t8 -50q-2 -38 -13.5 -73.5t-44 -73t-81.5 -54.5q0 -5 -4 -6q-5 -2 -7 3q-7 -2 -19 -4l1 -1q2 -5 -4 -7q-5 -2 -7 3v4q-17 -1 -38 2l2 -3q2 -5 -4 -7q-5 -2 -7 3q-2 6 3 8h1q-5 0 -11 2q0 -3 -4 -5q-5 -2 -7 3q-2 3 0 6l-7 3q-2 -4 -4 -5q-6 -2 -8 4q-1 3 1 5l-9 5
q-2 -4 -4 -4q-5 -2 -7 3q-2 4 2 6q-2 1 -5.5 4t-4.5 3q0 -1 0.5 -1t0.5 -1q2 -5 -4 -7q-5 -2 -7 4q-2 5 4 7h3q-17 14 -28 26q-6 -2 -8 3q0 3 1 4q-12 13 -20 27q-5 -2 -7 4q-2 4 2 6q-1 3 -5 8.5t-5 8.5q-2 0 -2 3q-1 1 0 3q-2 4 -2 6q-3 7 -1 14q-5 0 -6 4q-2 5 3 7t7 -3
l1 -1q4 5 17 9q0 3 4 5q3 1 7 -3q3 1 9 2.5t8 1.5v1q-2 5 4 7q5 2 8 -3v-2q7 1 21 5q-3 0 -5 4q-2 5 4 7q5 2 7 -4q2 -4 -2 -6q19 5 25 7q-4 0 -6 4q-2 6 4 8t8 -3t-2 -8q30 9 39 12q0 1 2 1q2 2 2 0l23 7l3 3h4l21 6q2 3 3 3q4 1 5 0q3 1 10 3.5t11 3.5q0 2 3 3h4l10.5 3.5
t11.5 3.5l2 2h3q11 4 24 9.5t21 9t13 5.5zM63 286q-5 -2 -7 4q-2 5 4 7q5 3 7 -3t-4 -8zM410 286q-5 -2 -7 3q-2 6 3 8q6 2 8 -4t-4 -7zM363 286q-6 -2 -8 3t4 7t8 -3t-4 -7zM454 295q5 2 7 -3q3 -5 -4 -7q-5 -2 -7 3t4 7zM310 287q-3 5 3 7q5 2 7 -3t-3 -7t-7 3zM78 290
q5 2 7 -4q2 -5 -4 -7q-5 -2 -7 4q-2 5 4 7zM382 276q-5 -2 -7 4q-2 5 3 7q6 2 8 -3q2 -6 -4 -8zM430 275q-5 -4 -8 4q-2 5 4 7q5 2 7 -4q2 -5 -3 -7zM53 269q-6 -2 -8 3q-2 6 4 8t8 -3q2 -7 -4 -8zM103 277q2 -6 -3 -8t-7 3q-2 6 3 8t7 -3zM353 266q-5 -2 -7 3q-2 7 4 9
q5 2 7 -5q2 -5 -4 -7zM401 265q-5 -2 -7 3q-2 6 3 8q6 2 7 -4q2 -5 -3 -7zM119 261q-5 -2 -7 4q-2 5 3 7t7 -3q2 -6 -3 -8zM68 270q6 2 8 -4q2 -5 -4 -7q-5 -2 -7 4q-2 5 3 7zM278 256q-5 -2 -7 4q-2 5 4 7q5 2 7 -4q2 -5 -4 -7zM326 256q-4 -1 -8 4q-2 5 4 7q5 2 7 -3
q2 -6 -3 -8zM373 255q-5 -2 -7 4q-2 5 4 7q5 2 7 -4q2 -5 -4 -7zM232 254q-5 -2 -7 4q-3 5 3 7q5 2 7 -4q2 -5 -3 -7zM90 252q-5 -2 -7 3q-2 6 4 8q5 2 7 -4q2 -5 -4 -7zM250 247q-6 -2 -8 3q-1 4 4 8q5 2 7 -4q2 -5 -3 -7zM297 247q-5 -2 -7 3q-2 6 3 8q6 2 8 -4
q2 -5 -4 -7zM341 256q5 2 7 -3t-3 -7q-6 -2 -8 3t4 7zM203 245q-5 -2 -7 3t3 7t7 -3q3 -5 -3 -7zM61 253q5 0 5 -5q0 -6 -5 -6q-6 0 -6 6q0 5 6 5zM222 237q-5 -2 -7 4q-2 5 3 7t7 -3q2 -6 -3 -8zM266 248q5 2 7 -3q2 -6 -4 -8q-5 -2 -7 4q-2 5 4 7zM317 236q-5 -2 -7 4
q-3 5 3 7q5 2 7 -4q3 -5 -3 -7zM77 244q6 2 8 -4q2 -5 -4 -7q-5 -2 -7 4q-3 5 3 7zM193 228q-5 -2 -7 3q-2 6 4 8q5 2 7 -4q2 -5 -4 -7zM241 228q-6 -2 -8 4q-2 5 4 7q5 2 7 -4q2 -5 -3 -7zM288 227q-5 -2 -7 3q-2 6 4 8q5 2 7 -4q2 -5 -4 -7zM96 236q5 2 7 -3t-4 -7
q-5 -2 -7 3t4 7zM57 231q2 -5 -5 -7q-5 -2 -7 3t4 7t8 -3zM166 217q-6 -2 -8 4t4 8q5 2 7 -3q2 -7 -3 -9zM213 218q-7 -2 -9 3q-2 6 5 8q5 2 7 -3q2 -6 -3 -8zM72 215q-6 -2 -8 4t4 8q5 2 7 -4t-3 -8zM140 215q2 -5 -3 -7t-7 3q-2 6 3 8t7 -4zM180 219q5 2 7 -4q2 -5 -3 -7
t-7 4q-2 5 3 7zM90 206q-5 -2 -7 3q-2 6 3 8q6 2 8 -4q2 -5 -4 -7zM106 209q5 3 7 -3t-4 -8t-8 4q-2 5 5 7zM152 209q6 2 8 -3t-5 -7q-5 -2 -7 3t4 7zM66 204q2 -6 -4 -8q-5 -2 -7 4q-3 5 4 7q5 2 7 -3zM81 189q-6 -2 -8 4q-2 5 4 7q5 2 7 -4q2 -5 -3 -7zM128 189
q-6 -2 -8 4q-2 5 4 7q5 2 7 -4q2 -5 -3 -7zM99 180q-5 -2 -7 3t3 7t7 -3t-3 -7zM75 177q2 -6 -4 -8q-5 -2 -7 5q-2 5 4 7q5 2 7 -4zM116 180q5 2 7 -4t-4 -8q-5 -2 -7 5q-2 5 4 7zM133 172q6 2 8 -4q2 -5 -4 -7q-5 -2 -7 3t3 8zM91 159q-6 -2 -8 3t4 7q5 2 7 -3t-3 -7z
M109 151q-6 -2 -8 4q-2 5 5 7q5 2 7 -4q2 -5 -4 -7zM128 142q-5 -2 -7 3q-2 6 4 8q5 2 7 -4q2 -5 -4 -7zM84 149q2 -5 -3 -7t-7 3t3 7t7 -3zM144 145q6 0 6 -5q0 -6 -6 -6q-5 0 -5 6q0 5 5 5zM103 138q0 -6 -5 -6q-6 0 -6 6q0 5 6 5q5 0 5 -5zM118 125q-5 -2 -7 4q-2 5 4 7
q5 2 7 -4q2 -5 -4 -7zM86 126q5 2 7 -3q2 -6 -3 -8q-6 -2 -8 3q-2 6 4 8zM137 115q-5 -2 -7 3q-1 6 3 8q6 2 8 -3q2 -6 -4 -8zM148 111q-2 5 3 7t9 -4q2 -5 -5 -7q-5 -2 -7 4zM113 112q2 -5 -4 -7q-6 -3 -8 4q-2 5 5 7q5 2 7 -4zM131 105q2 -5 -4 -7q-5 -2 -7 3q-2 6 4 8
q5 2 7 -4zM171 109q5 2 7 -4q2 -5 -3 -7t-7 3q-2 6 3 8zM373 59q9 3 11 4q-24 29 -62 37t-56 -13q-24 3 -34 0q13 -13 25 -20q17 -8 29 -12q18 -5 38 -5q22 0 49 9zM150 96q1 -4 -4 -8q-5 -2 -7 4q-2 5 3 7q6 2 8 -3zM168 88q2 -5 -3 -7t-7 4q-2 5 3 7t7 -4zM115 90
q5 2 7 -4q2 -5 -4 -7q-5 -2 -7 4q-2 5 4 7zM133 82q5 2 7 -3t-4 -7q-5 -2 -7 3t4 7zM177 75q-2 5 3 7t7 -3t-3 -7t-7 3zM205 72q2 -7 -3 -9q-6 -2 -8 4t4 8q5 2 7 -3zM151 73q7 2 9 -5q3 -5 -5 -7q-5 -2 -7 4t3 8zM177 61q2 -5 -3 -7t-7 3q-2 6 3 8t7 -4zM189 55q5 2 7 -3
t-3 -7t-7 3q-3 5 3 7zM208 48q5 2 7 -4q2 -5 -3 -7q-7 -2 -9 4q-2 5 5 7zM227 39q5 2 7 -4q2 -5 -4 -7q-5 -2 -7 3q-2 6 4 8zM179 38q5 2 7 -3t-3 -7t-7 3t3 7zM244 31q6 2 8 -3q2 -6 -4 -8q-5 -2 -7 4q-2 5 3 7zM311 24q5 2 7 -4t-3 -8q-6 -2 -8 4q-2 7 4 8zM264 22
q5 2 7 -5q3 -5 -3 -7q-5 -2 -7 4t3 8zM282 13q5 2 7 -3t-3 -7t-7 3t3 7z" />
    <glyph glyph-name="tt" unicode="tt" horiz-adv-x="831" 
d="M696 108q45 0 83 23v-101q-45 -45 -119 -45q-68 0 -110.5 44t-42.5 119v251h-246v-218q0 -34 16 -53.5t46 -19.5q45 0 83 23v-101q-45 -45 -119 -45q-68 0 -110.5 44t-42.5 119v251h-91v65q50 18 90 65.5t63 122.5h65v-147h171q58 0 90 32.5t57 109.5h55v-142h140v-106
h-140v-218q0 -34 16 -53.5t46 -19.5z" />
    <glyph glyph-name=".notdef" horiz-adv-x="480" 
d="M394 720v-960h-305v960h305zM320 656h-159v-32h63v-36h-64v-31h160v31h-64v36h64v32zM256 532h-96v-100h160v33h-64v67zM224 499v-34h-32v34h32zM320 406h-160v-32h64v-35h-64v-32h96v67h64v32zM320 348h-32v-63h-128v-33h160v96zM320 231h-96v-53h32v22h32v-45h-96v76
h-32v-108h160v108zM320 65h-160v-108h160v108zM288 34v-46h-96v46h96zM320 -65h-160v-32h68l-68 -45v-32h160v32h-98l67 45h31v32z" />
    <glyph glyph-name=".null" horiz-adv-x="0" 
 />
    <glyph glyph-name="nonmarkingreturn" horiz-adv-x="341" 
 />
    <glyph glyph-name="space" unicode=" " horiz-adv-x="300" 
 />
    <glyph glyph-name="exclam" unicode="!" horiz-adv-x="320" 
d="M216 670v-440h-112v440h112zM160 142q33 0 56.5 -23.5t23.5 -56.5t-23.5 -57t-56.5 -24t-56.5 24t-23.5 57t23.5 56.5t56.5 23.5z" />
    <glyph glyph-name="quotedbl" unicode="&#x22;" horiz-adv-x="452" 
d="M182 695v-274h-112v274h112zM382 695v-274h-112v274h112z" />
    <glyph glyph-name="numbersign" unicode="#" horiz-adv-x="810" 
d="M730 393h-129l-42 -138h101v-100h-132l-47 -155h-98l46 155h-143l-48 -155h-98l47 155h-107v100h137l42 138h-109v110h142l51 167h101l-51 -167h142l51 167h101l-52 -167h95v-110zM460 255l42 138h-143l-43 -138h144z" />
    <glyph glyph-name="dollar" unicode="$" horiz-adv-x="562" 
d="M496 204q0 -67 -48.5 -115.5t-123.5 -63.5v-77h-94v73q-85 12 -153 61v125q95 -70 191 -70q40 0 66 16t26 45q0 38 -70 64l-99 36q-67 25 -94 67.5t-27 101.5q0 67 45.5 114.5t114.5 63.5v60h94v-56q80 -9 137 -46v-125q-84 55 -159 55q-40 0 -70 -17t-30 -49
q0 -12 5 -21.5t11.5 -16.5t20.5 -14.5t24 -11.5l30 -12l79 -32q124 -48 124 -155z" />
    <glyph glyph-name="percent" unicode="%" horiz-adv-x="824" 
d="M575 705l84 -42l-411 -683l-81 42zM192 685q44 0 79 -20.5t54 -55.5t19 -77q0 -65 -42.5 -109t-109.5 -44t-109.5 44t-42.5 109q0 64 42.5 108.5t109.5 44.5zM193 598q-27 0 -45.5 -19.5t-18.5 -46.5t18.5 -46.5t45.5 -19.5t45.5 19.5t18.5 46.5t-18.5 46.5t-45.5 19.5z
M632 291q66 0 109 -44.5t43 -108.5q0 -65 -42.5 -109t-109.5 -44t-109.5 44t-42.5 109q0 42 19 77t54 55.5t79 20.5zM633 204q-11 0 -20.5 -3.5t-17.5 -9.5t-14 -14t-9 -18t-3 -21q0 -27 18.5 -46.5t45.5 -19.5t45.5 19.5t18.5 46.5t-18.5 46.5t-45.5 19.5z" />
    <glyph glyph-name="ampersand" unicode="&#x26;" horiz-adv-x="742" 
d="M697 0h-159q-23 23 -65 67q-85 -82 -203 -82q-65 0 -116.5 23.5t-80 65.5t-28.5 96q0 34 12 63t35.5 51.5t48 39t58.5 33.5q-37 39 -56.5 75t-19.5 81q0 76 59 124t145 48q83 0 143.5 -48.5t60.5 -120.5q0 -30 -10.5 -55.5t-33.5 -47.5t-40 -34.5t-49 -32.5q-2 -1 -3 -2
t-2.5 -1.5t-3 -1.5t-2.5 -2t-3.5 -2.5t-3.5 -2.5q28 -32 84 -92q39 56 67 108h138q-61 -107 -124 -194q51 -53 152 -156zM262 502q0 -35 48 -90q26 14 42.5 27t28 30.5t11.5 37.5q0 27 -20 43.5t-46 16.5q-28 0 -46 -17t-18 -48zM283 103q64 0 111 49q-71 77 -118 126
q-44 -24 -65.5 -46t-21.5 -52q0 -24 13 -42t34 -26.5t47 -8.5z" />
    <glyph glyph-name="quotesingle" unicode="'" horiz-adv-x="252" 
d="M182 670v-274h-112v274h112z" />
    <glyph glyph-name="parenleft" unicode="(" horiz-adv-x="383" 
d="M348 690q-40 -44 -75 -120.5t-55.5 -163.5t-20.5 -161q0 -118 44.5 -247t106.5 -198h-121q-66 68 -114 191.5t-48 253.5q0 124 48.5 251t113.5 194h121z" />
    <glyph glyph-name="parenright" unicode=")" horiz-adv-x="403" 
d="M55 690h121q31 -32 60 -81.5t51.5 -108t36.5 -126t14 -129.5q0 -130 -48 -253.5t-114 -191.5h-121q62 69 106.5 198t44.5 247q0 112 -45 244.5t-106 200.5z" />
    <glyph glyph-name="asterisk" unicode="*" horiz-adv-x="496" 
d="M297 716l-5 -113l98 41l31 -93l-102 -30l72 -90l-79 -58l-64 98l-63 -98l-80 58l73 90l-103 30l32 93l98 -41l-6 113h98z" />
    <glyph glyph-name="plus" unicode="+" horiz-adv-x="550" 
d="M470 373v-120h-135v-136h-120v136h-135v120h135v135h120v-135h135z" />
    <glyph glyph-name="comma" unicode="," horiz-adv-x="283" 
d="M113 115l112 -28l-100 -252l-92 16z" />
    <glyph glyph-name="hyphen" unicode="-" horiz-adv-x="421" 
d="M361 318v-120h-301v120h301z" />
    <glyph glyph-name="period" unicode="." horiz-adv-x="276" 
d="M138 142q33 0 56.5 -23.5t23.5 -56.5t-23.5 -57t-56.5 -24t-56.5 24t-23.5 57t23.5 56.5t56.5 23.5z" />
    <glyph glyph-name="slash" unicode="/" horiz-adv-x="444" 
d="M404 705l-266 -905h-98l263 905h101z" />
    <glyph glyph-name="zero" unicode="0" 
d="M289 685q63 0 112.5 -27.5t81 -75.5t48 -111t16.5 -136q0 -98 -28 -176t-87.5 -126t-142.5 -48t-142.5 48t-87.5 126t-28 176t28 176t87.5 126t142.5 48zM289 564q-58 0 -88.5 -63.5t-30.5 -165.5t30.5 -165t88.5 -63t89 63t31 165t-31 165.5t-89 63.5z" />
    <glyph glyph-name="one" unicode="1" 
d="M367 123h138v-123h-413v123h137v350q-46 -38 -131 -58v135q51 15 98.5 47t78.5 73h92v-547z" />
    <glyph glyph-name="two" unicode="2" 
d="M274 685q103 0 166.5 -56t63.5 -147q0 -25 -4.5 -48.5t-10 -42t-20 -42.5t-24.5 -39.5t-33.5 -43.5t-37 -43.5t-46 -51t-49.5 -54.5h230v-117h-437v56q16 18 47 51q52 55 76 81t59 66t50 61t32.5 47.5t23.5 46t6 37.5q0 50 -32.5 79t-84.5 29q-43 0 -87 -22.5t-75 -55.5
v142q32 28 82.5 47.5t104.5 19.5z" />
    <glyph glyph-name="three" unicode="3" 
d="M254 685q106 0 174.5 -54.5t68.5 -138.5q0 -63 -39 -102.5t-92 -49.5q53 -12 92 -52t39 -102q0 -87 -70 -144t-174 -57q-51 0 -98 16t-76 40v131q32 -22 48 -32t47.5 -21t63.5 -11q54 0 87.5 25t33.5 71q0 40 -36.5 62t-88.5 22h-55v108h55q125 0 125 73q0 43 -36.5 68
t-88.5 25q-74 0 -137 -63v130q61 56 157 56z" />
    <glyph glyph-name="four" unicode="4" 
d="M448 670v-409h91v-113h-91v-148h-128v148h-282v82q204 224 323 440h87zM320 418q-68 -102 -114 -157h114v157z" />
    <glyph glyph-name="five" unicode="5" 
d="M474 670v-124h-243v-141q41 16 92 16q78 0 134.5 -55t56.5 -140q0 -112 -73 -176.5t-184 -64.5q-107 0 -187 64v124q5 -3 14.5 -9t15 -9t15 -8.5t15.5 -9t16 -8t17 -7t17 -5.5t19 -5t19 -3t20 -1q62 0 100 26.5t38 75.5q0 45 -39 73.5t-99 28.5q-52 0 -129 -25v383h365z
" />
    <glyph glyph-name="six" unicode="6" 
d="M459 670q-6 -6 -50 -47t-61 -58t-49.5 -51.5t-52 -62.5t-32.5 -55q53 51 112 51q91 0 152 -61.5t61 -153.5q0 -102 -69.5 -174.5t-174.5 -72.5q-104 0 -177.5 71t-73.5 187q0 190 240 427h175zM293 327q-45 0 -77.5 -30.5t-32.5 -75.5q0 -48 32.5 -80.5t77.5 -32.5
t76.5 32.5t31.5 80.5q0 45 -31.5 75.5t-76.5 30.5z" />
    <glyph glyph-name="seven" unicode="7" 
d="M537 670v-57q-38 -63 -52 -87t-44 -77t-41.5 -77.5t-32 -69.5t-28.5 -74.5t-18.5 -70t-14 -78.5t-3.5 -79h-160q0 52 12 108.5t27.5 100.5t46 104.5t50 94.5t57.5 98q16 27 24 40h-298v124h475z" />
    <glyph glyph-name="eight" unicode="8" 
d="M288 685q90 0 150.5 -50.5t60.5 -132.5q0 -100 -92 -149q47 -19 79.5 -61.5t32.5 -96.5q0 -91 -66 -150.5t-165 -59.5q-65 0 -118 27t-83 75t-30 108q0 36 16 69t41 55t55 34q-92 49 -92 149q0 82 60.5 132.5t150.5 50.5zM288 569q-23 0 -43 -10.5t-32.5 -31t-12.5 -45.5
t12.5 -45t32.5 -30.5t43 -10.5t43 10.5t32.5 30.5t12.5 45q0 38 -26.5 62.5t-61.5 24.5zM288 297q-41 0 -71 -27.5t-30 -69.5q0 -43 28.5 -71t72.5 -28q43 0 72 28t29 71q0 42 -30.5 69.5t-70.5 27.5z" />
    <glyph glyph-name="nine" unicode="9" 
d="M118 0q12 12 50.5 48t59.5 57t51.5 53t50.5 60.5t33 55.5q-53 -51 -112 -51q-91 0 -152 62t-61 153q0 103 69.5 175t174.5 72q104 0 177.5 -70.5t73.5 -186.5q0 -194 -240 -428h-175zM285 343q45 0 77.5 31t32.5 75q0 49 -32.5 81t-77.5 32t-76.5 -32t-31.5 -81
q0 -45 31.5 -75.5t76.5 -30.5z" />
    <glyph glyph-name="colon" unicode=":" horiz-adv-x="320" 
d="M160 542q33 0 56.5 -23.5t23.5 -56.5t-23.5 -56.5t-56.5 -23.5t-56.5 23.5t-23.5 56.5t23.5 56.5t56.5 23.5zM160 142q33 0 56.5 -23.5t23.5 -56.5t-23.5 -57t-56.5 -24t-56.5 24t-23.5 57t23.5 56.5t56.5 23.5z" />
    <glyph glyph-name="semicolon" unicode=";" horiz-adv-x="364" 
d="M198 542q33 0 56.5 -23.5t23.5 -56.5t-23.5 -56.5t-56.5 -23.5t-56.5 23.5t-23.5 56.5t23.5 56.5t56.5 23.5zM143 115l112 -28l-100 -252l-92 16z" />
    <glyph glyph-name="less" unicode="&#x3c;" horiz-adv-x="550" 
d="M495 593v-138l-276 -152l276 -165v-138l-435 276v51z" />
    <glyph glyph-name="equal" unicode="=" horiz-adv-x="551" 
d="M471 471v-120h-391v120h391zM471 271v-120h-391v120h391z" />
    <glyph glyph-name="greater" unicode="&#x3e;" horiz-adv-x="550" 
d="M50 593l435 -266v-51l-435 -276v138l276 165l-276 152v138z" />
    <glyph glyph-name="question" unicode="?" horiz-adv-x="585" 
d="M275 685q94 0 162 -56.5t68 -148.5q0 -36 -19 -67.5t-46 -53t-53.5 -41t-45 -39.5t-17.5 -40l1 -21h-127v40q0 20 18 41.5t44 40.5t51.5 39t43.5 43t18 45q0 27 -15 48.5t-41.5 33t-61.5 11.5q-106 0 -175 -81v132q72 74 195 74zM266 142q33 0 56.5 -23.5t23.5 -56.5
t-23.5 -57t-56.5 -24t-56.5 24t-23.5 57t23.5 56.5t56.5 23.5z" />
    <glyph glyph-name="at" unicode="@" horiz-adv-x="809" 
d="M405 612q75 0 140.5 -23.5t115 -66t78 -106.5t28.5 -140q0 -59 -25 -107.5t-69.5 -76.5t-99.5 -28q-41 0 -70.5 18t-38.5 45q-52 -63 -131 -63q-72 0 -111 50.5t-28 131.5q12 88 69.5 141t133.5 53q32 0 58.5 -13.5t42.5 -35.5l8 39h88l-45 -191q-13 -44 -5 -69t41 -25
q32 0 58 33t26 98q0 120 -74 182.5t-190 62.5q-112 0 -188 -77.5t-76 -200.5q0 -122 73 -191t191 -69q63 0 107.5 11t93.5 37l41 -74q-122 -64 -242 -64q-102 0 -184 42.5t-130 123t-48 184.5t49 189t131.5 132.5t181.5 47.5zM404 348q-29 0 -52 -12t-39 -35t-22 -55
q-10 -44 8.5 -71t55.5 -27q89 0 112 102l16 67q-33 31 -79 31z" />
    <glyph glyph-name="A" unicode="A" horiz-adv-x="713" 
d="M540 0l-51 125h-265l-51 -125h-163l312 675h69l312 -675h-163zM273 243h168l-84 205z" />
    <glyph glyph-name="B" unicode="B" horiz-adv-x="695" 
d="M519 346q52 -15 87 -52t35 -101q0 -86 -76 -146t-195 -60q-63 0 -141.5 8.5t-128.5 19.5v646q117 25 253 25q116 0 187.5 -53t71.5 -138q0 -49 -25.5 -88t-67.5 -61zM353 559q-68 0 -114 -10v-162h125q50 0 80 24.5t30 64.5q0 39 -34.5 61t-86.5 22zM362 113q23 0 43.5 4
t36.5 11.5t28 18t18.5 24.5t6.5 30q0 28 -18 47t-47.5 27.5t-67.5 8.5h-123v-159q51 -12 123 -12z" />
    <glyph glyph-name="C" unicode="C" horiz-adv-x="643" 
d="M399 685q114 0 189 -65v-140q-26 19 -38.5 28t-37.5 22t-51 18.5t-58 5.5q-91 0 -153.5 -63t-62.5 -156t62.5 -155.5t153.5 -62.5q61 0 106 18.5t89 52.5v-135q-76 -68 -199 -68q-71 0 -136 26t-113 71t-76.5 111t-28.5 142t28.5 142t76.5 111t113 71t136 26z" />
    <glyph glyph-name="D" unicode="D" horiz-adv-x="760" 
d="M360 686q159 0 257 -94.5t98 -249.5q0 -99 -41.5 -179.5t-121.5 -128t-185 -47.5q-130 0 -267 27v646q154 26 260 26zM363 556q-54 0 -124 -11v-416q55 -11 124 -11q97 0 153.5 62t56.5 157q0 97 -56.5 158t-153.5 61z" />
    <glyph glyph-name="E" unicode="E" horiz-adv-x="654" 
d="M574 550h-335v-152h296v-113h-296v-162h335v-123h-474v670h474v-120z" />
    <glyph glyph-name="F" unicode="F" horiz-adv-x="635" 
d="M557 545h-318v-169h263v-125h-263v-251h-139v670h457v-125z" />
    <glyph glyph-name="G" unicode="G" horiz-adv-x="703" 
d="M651 363v-273q-101 -105 -252 -105q-71 0 -136 26t-113 71t-76.5 111t-28.5 142t28.5 142t76.5 111t113 71t136 26q114 0 189 -65v-140q-34 25 -52 37t-55 24.5t-78 12.5q-91 0 -153.5 -63t-62.5 -156t62.5 -155.5t153.5 -62.5q75 0 118 35l1 111h-99v100h228z" />
    <glyph glyph-name="H" unicode="H" horiz-adv-x="788" 
d="M550 670h138v-670h-138v272h-311v-272h-139v670h139v-273h311v273z" />
    <glyph glyph-name="I" unicode="I" horiz-adv-x="555" 
d="M460 545h-113v-420h113v-125h-365v125h113v420h-113v125h365v-125z" />
    <glyph glyph-name="J" unicode="J" horiz-adv-x="350" 
d="M255 672v-631q0 -229 -244 -296l-54 124q159 47 159 166v637h139z" />
    <glyph glyph-name="K" unicode="K" horiz-adv-x="715" 
d="M518 0l-206 271l-73 -82v-189h-139v670h139v-300l255 300h176l-263 -293l293 -377h-182z" />
    <glyph glyph-name="L" unicode="L" horiz-adv-x="637" 
d="M239 670v-545h335v-125h-474v670h139z" />
    <glyph glyph-name="M" unicode="M" horiz-adv-x="864" 
d="M764 675v-675h-139v408l-172 -188h-40l-174 188v-408h-139v675h47l286 -298l284 298h47z" />
    <glyph glyph-name="N" unicode="N" horiz-adv-x="786" 
d="M686 670v-675h-50l-397 409v-404h-139v675h50l397 -415v410h139z" />
    <glyph glyph-name="O" unicode="O" horiz-adv-x="791" 
d="M396 685q96 0 175.5 -44t127 -124.5t47.5 -181.5t-47.5 -181.5t-127 -124.5t-175.5 -44t-176 44t-127.5 124.5t-47.5 181.5t47.5 181.5t127.5 124.5t176 44zM396 554q-90 0 -149.5 -62.5t-59.5 -156.5t59.5 -156t149.5 -62t149 62t59 156q0 46 -15.5 86.5t-43 69.5
t-66.5 46t-83 17z" />
    <glyph glyph-name="P" unicode="P" horiz-adv-x="665" 
d="M372 670q64 0 121 -27.5t94.5 -83t37.5 -126.5q0 -100 -73.5 -166.5t-176.5 -66.5q-81 0 -141 30v-230h-139v670h277zM352 320q58 0 94.5 33t36.5 80q0 34 -18.5 58.5t-48.5 36.5t-67 12h-115v-198q55 -22 118 -22z" />
    <glyph glyph-name="Q" unicode="Q" horiz-adv-x="823" 
d="M525 8q118 -48 235 -48v-123q-89 0 -191 40.5t-173 107.5q-96 0 -176 44t-127.5 124.5t-47.5 181.5t47.5 181.5t127.5 124.5t176 44t175.5 -44t127 -124.5t47.5 -181.5q0 -116 -61 -202.5t-160 -124.5zM187 335q0 -94 59.5 -156t149.5 -62t149 62t59 156q0 46 -15.5 86.5
t-43 70t-66.5 46t-83 16.5q-90 0 -149.5 -62.5t-59.5 -156.5z" />
    <glyph glyph-name="R" unicode="R" horiz-adv-x="668" 
d="M655 0h-183l-233 274v-274h-139v670h272q48 0 92.5 -13.5t81 -39t58 -68.5t21.5 -96q0 -85 -61 -137t-150 -58zM354 540h-115v-169q56 -17 113 -17q61 0 96 24.5t35 69.5q0 31 -17.5 52.5t-46 30.5t-65.5 9z" />
    <glyph glyph-name="S" unicode="S" horiz-adv-x="548" 
d="M283 683q106 0 187 -53v-137q-46 29 -85 44.5t-85 15.5q-44 0 -77 -18.5t-33 -54.5q0 -13 6 -24t12.5 -18t23 -15.5t26 -12.5t32.5 -14l82 -34q136 -58 136 -171q0 -58 -34.5 -105t-92.5 -73t-127 -26q-108 0 -207 70v137q105 -76 210 -76q29 0 51.5 7t36.5 22.5t14 36.5
q0 42 -78 70l-103 40q-73 28 -103 75t-30 111q0 60 33.5 107t87.5 71.5t117 24.5z" />
    <glyph glyph-name="T" unicode="T" horiz-adv-x="621" 
d="M594 670v-125h-214v-542h-138v542h-214v125h566z" />
    <glyph glyph-name="U" unicode="U" horiz-adv-x="759" 
d="M669 672v-407q0 -128 -82 -203.5t-207 -75.5t-207.5 75.5t-82.5 203.5v407h139v-399q0 -75 41 -114.5t110 -38.5q70 1 110.5 40t40.5 113v399h138z" />
    <glyph glyph-name="V" unicode="V" horiz-adv-x="713" 
d="M703 670l-312 -675h-69l-312 675h163l183 -443l184 443h163z" />
    <glyph glyph-name="W" unicode="W" horiz-adv-x="959" 
d="M949 670l-226 -670h-96l-149 431l-149 -431h-96l-223 670h158l124 -423l141 423h93l139 -423l126 423h158z" />
    <glyph glyph-name="X" unicode="X" horiz-adv-x="685" 
d="M675 670l-244 -334l244 -336h-175l-162 231l-158 -231h-170l243 333l-243 337h175l162 -238l153 238h175z" />
    <glyph glyph-name="Y" unicode="Y" horiz-adv-x="681" 
d="M671 670l-259 -417v-253h-142v246l-260 424h163l167 -282l168 282h163z" />
    <glyph glyph-name="Z" unicode="Z" horiz-adv-x="691" 
d="M627 670v-36l-344 -509h344v-125h-563v36l338 509h-316v125h541z" />
    <glyph glyph-name="bracketleft" unicode="[" horiz-adv-x="399" 
d="M364 690v-110h-162v-670h162v-110h-289v890h289z" />
    <glyph glyph-name="backslash" unicode="\" horiz-adv-x="389" 
d="M89 670l313 -870h-98l-317 870h102z" />
    <glyph glyph-name="bracketright" unicode="]" horiz-adv-x="404" 
d="M40 690h289v-890h-289v110h162v670h-162v110z" />
    <glyph glyph-name="asciicircum" unicode="^" horiz-adv-x="602" 
d="M332 670l221 -350h-128l-130 208l-117 -208h-128l211 350h71z" />
    <glyph glyph-name="underscore" unicode="_" horiz-adv-x="490" 
d="M490 -11v-120h-490v120h490z" />
    <glyph glyph-name="grave" unicode="`" horiz-adv-x="364" 
d="M127 715l107 -75l-6 -67l-107 75z" />
    <glyph glyph-name="a" unicode="a" horiz-adv-x="636" 
d="M278 518q16 0 33 -3t33.5 -9.5t32 -15t29.5 -19.5t25 -23v57h127v-505h-127v85q-24 -44 -66.5 -72t-95.5 -28q-95 0 -160.5 71.5t-65.5 192.5q0 123 67 196t168 73zM304 394q-57 0 -93 -43t-36 -102q0 -58 35 -97.5t91 -39.5q53 0 92 40.5t38 106.5v72q-60 63 -127 63z
" />
    <glyph glyph-name="b" unicode="b" horiz-adv-x="636" 
d="M358 518q101 0 168 -73t67 -196q0 -61 -18.5 -111.5t-49.5 -83.5t-71.5 -51t-86.5 -18q-53 0 -95.5 28t-66.5 72v-85h-127v720h127v-272q29 32 70.5 51t82.5 19zM332 393q-68 0 -127 -62v-72q0 -44 18.5 -78t48 -51t63.5 -17q56 0 91 39t35 97q0 59 -36 101.5t-93 42.5z
" />
    <glyph glyph-name="c" unicode="c" horiz-adv-x="492" 
d="M308 518q84 0 149 -53v-117q-63 45 -138 45q-58 0 -99.5 -41t-41.5 -102q0 -62 40 -102t101 -40q76 0 138 44v-116q-59 -51 -149 -51q-112 0 -188.5 78.5t-76.5 186.5q0 109 76.5 188.5t188.5 79.5z" />
    <glyph glyph-name="d" unicode="d" horiz-adv-x="636" 
d="M558 720v-720h-127v85q-24 -44 -66.5 -72t-95.5 -28q-95 0 -160.5 71.5t-65.5 192.5q0 123 67 196t168 73q16 0 33 -3t33.5 -9.5t32 -15t29.5 -19.5t25 -23v272h127zM304 393q-57 0 -93 -42.5t-36 -101.5q0 -58 35 -97.5t91 -39.5q53 0 92 40.5t38 106.5v72
q-59 62 -127 62z" />
    <glyph glyph-name="e" unicode="e" 
d="M537 267v-54h-366q11 -51 51 -82t97 -31q92 0 172 67l-1 -118q-27 -25 -75 -44.5t-101 -19.5q-113 0 -192 74.5t-79 187.5q0 112 73.5 191.5t182.5 79.5q110 0 174 -69.5t64 -181.5zM173 300h242q-4 52 -38 79.5t-81 27.5q-46 0 -78.5 -29t-44.5 -78z" />
    <glyph glyph-name="f" unicode="f" horiz-adv-x="401" 
d="M315 622q-32 -1 -52 -20.5t-20 -59.5v-37h131v-106h-131v-399h-127v399h-77v106h77v45q0 84 51.5 134.5t125.5 50.5q61 0 98 -26v-106q-34 20 -76 19z" />
    <glyph glyph-name="g" unicode="g" horiz-adv-x="636" 
d="M278 518q27 0 55.5 -8.5t53.5 -24.5t44 -37v57h127v-492q0 -124 -80 -196t-197 -72q-60 0 -102.5 17t-87.5 49v120q2 -1 22.5 -14.5t27 -17t26 -13.5t32.5 -13.5t33 -7t41 -3.5q68 0 113 38t45 97v88q-24 -44 -66.5 -72t-95.5 -28q-95 0 -160.5 71.5t-65.5 192.5
q0 123 67 196t168 73zM304 393q-57 0 -93 -42.5t-36 -101.5q0 -58 35 -97t91 -39q53 0 92 40.5t38 105.5v72q-59 62 -127 62z" />
    <glyph glyph-name="h" unicode="h" horiz-adv-x="607" 
d="M358 518q80 0 130.5 -54t50.5 -154v-310h-127l-1 293q0 50 -24 75.5t-68 25.5q-60 0 -114 -74v-320h-127v720h127v-287q27 36 66.5 60.5t86.5 24.5z" />
    <glyph glyph-name="i" unicode="i" horiz-adv-x="340" 
d="M184 596q-36 0 -61.5 25.5t-25.5 60.5t25.5 60.5t61.5 25.5q24 0 44 -11.5t32 -31.5t12 -43q0 -35 -26 -60.5t-62 -25.5zM50 505h208v-505h-127v397h-81v108z" />
    <glyph glyph-name="j" unicode="j" horiz-adv-x="336" 
d="M178 596q-24 0 -44.5 12t-32 31.5t-11.5 42.5q0 35 25.5 60.5t62.5 25.5q35 0 61.5 -25.5t26.5 -60.5q0 -34 -26.5 -60t-61.5 -26zM250 505v-499q0 -196 -181 -261l-56 110q55 26 82.5 60.5t27.5 85.5v396h-81v108h208z" />
    <glyph glyph-name="k" unicode="k" horiz-adv-x="586" 
d="M421 0l-153 201l-63 -63v-138h-127v720h127v-440l206 225h159l-218 -219l229 -286h-160z" />
    <glyph glyph-name="l" unicode="l" horiz-adv-x="282" 
d="M205 720v-720h-127v720h127z" />
    <glyph glyph-name="m" unicode="m" horiz-adv-x="923" 
d="M670 518q81 0 133.5 -54t52.5 -154v-310h-127l-1 293q0 50 -26 75.5t-70 25.5q-30 0 -54 -18t-48 -51v-325h-127l-1 293q0 33 -12 56t-33 34t-50 11q-52 0 -102 -65v-329h-127v505h127v-64q59 77 139 77q35 0 66 -11t56.5 -33t40.5 -54q73 98 163 98z" />
    <glyph glyph-name="n" unicode="n" horiz-adv-x="607" 
d="M358 518q39 0 72 -13.5t57.5 -39t38 -65t13.5 -90.5v-310h-127l-1 293q0 50 -24 75.5t-68 25.5q-60 0 -114 -74v-320h-127v505h127v-72q27 36 66.5 60.5t86.5 24.5z" />
    <glyph glyph-name="o" unicode="o" horiz-adv-x="626" 
d="M313 518q111 0 191 -77.5t80 -189.5q0 -111 -80 -188.5t-191 -77.5t-190.5 77.5t-79.5 188.5q0 112 79.5 189.5t190.5 77.5zM313 395q-57 0 -96 -39t-39 -105t39 -104.5t96 -38.5t96.5 38.5t39.5 104.5t-39.5 105t-96.5 39z" />
    <glyph glyph-name="p" unicode="p" horiz-adv-x="636" 
d="M367 518q95 0 160.5 -70t65.5 -192q0 -123 -67.5 -197t-167.5 -74q-41 0 -82.5 20t-70.5 52v-297h-127v745h127v-85q24 44 66 71t96 27zM335 391q-53 0 -92 -39.5t-38 -104.5v-73q62 -65 127 -65q57 0 93 44t36 103q0 58 -35 96.5t-91 38.5z" />
    <glyph glyph-name="q" unicode="q" horiz-adv-x="636" 
d="M278 518q27 0 55.5 -8.5t53.5 -24.5t44 -37v57h127v-745h-127v325q-24 -44 -66.5 -72t-95.5 -28q-95 0 -160.5 71.5t-65.5 192.5q0 123 67 196t168 73zM304 393q-57 0 -93 -42.5t-36 -101.5q0 -58 35 -97t91 -39q53 0 92 40.5t38 105.5v72q-59 62 -127 62z" />
    <glyph glyph-name="r" unicode="r" horiz-adv-x="416" 
d="M347 515q26 0 49 -9v-143q-30 18 -67 18q-40 0 -69.5 -26t-54.5 -73v-282h-127v505h127v-95q61 105 142 105z" />
    <glyph glyph-name="s" unicode="s" horiz-adv-x="442" 
d="M241 518q45 0 85.5 -13t63.5 -33v-112q-68 46 -130 46q-35 0 -56.5 -15.5t-21.5 -38.5q0 -35 58 -53l57 -19q115 -34 115 -133q0 -69 -57 -115.5t-139 -46.5q-48 0 -96 15.5t-76 35.5v111q30 -21 75 -36.5t80 -15.5q79 0 79 52q0 18 -15 29t-52 23l-62 22
q-102 34 -102 137q0 71 54 115.5t140 44.5z" />
    <glyph glyph-name="t" unicode="t" horiz-adv-x="458" 
d="M261 652v-147h140v-106h-140v-218q0 -73 62 -73q45 0 83 23v-101q-45 -45 -119 -45q-68 0 -110.5 44t-42.5 119v251h-91v65q50 18 90 65.5t63 122.5h65z" />
    <glyph glyph-name="u" unicode="u" horiz-adv-x="591" 
d="M524 505v-301q0 -99 -64 -158t-164 -59t-164 59t-64 158v301h128l1 -278q0 -57 26.5 -87t72.5 -30t72.5 30t26.5 87v278h129z" />
    <glyph glyph-name="v" unicode="v" horiz-adv-x="576" 
d="M566 505l-239 -505h-81l-236 505h148l127 -313l133 313h148z" />
    <glyph glyph-name="w" unicode="w" horiz-adv-x="790" 
d="M780 505l-175 -505h-92l-118 327l-118 -327h-93l-174 505h138l93 -299l109 299h91l108 -299l93 299h138z" />
    <glyph glyph-name="x" unicode="x" horiz-adv-x="590" 
d="M573 505l-198 -247l205 -258h-159l-126 176l-126 -176h-159l205 258l-198 247h150l128 -162l128 162h150z" />
    <glyph glyph-name="y" unicode="y" horiz-adv-x="597" 
d="M442 505h145l-367 -745h-144l152 277l-218 468h148l144 -322z" />
    <glyph glyph-name="z" unicode="z" horiz-adv-x="557" 
d="M497 505v-31l-261 -365h271v-109h-454v32l250 365h-235v108h429z" />
    <glyph glyph-name="braceleft" unicode="{" horiz-adv-x="464" 
d="M424 690v-110h-44q-60 0 -79 -31t-19 -94v-115q0 -61 -65 -95q65 -34 65 -95v-115q0 -31 3.5 -51.5t13 -38.5t30 -26.5t51.5 -8.5h44v-110h-94q-77 0 -126 52.5t-49 129.5v121q0 47 -14.5 64.5t-60.5 17.5v120q46 0 60.5 17.5t14.5 64.5v121q0 77 49 129.5t126 52.5h94z
" />
    <glyph glyph-name="bar" unicode="|" horiz-adv-x="260" 
d="M180 705v-905h-100v905h100z" />
    <glyph glyph-name="braceright" unicode="}" horiz-adv-x="464" 
d="M40 690h94q77 0 126 -52.5t49 -129.5v-121q0 -47 14.5 -64.5t60.5 -17.5v-120q-46 0 -60.5 -17.5t-14.5 -64.5v-121q0 -50 -21.5 -91.5t-62 -66t-91.5 -24.5h-94v110h44q60 0 79 31t19 94v115q0 61 65 95q-65 34 -65 95v115q0 63 -19 94t-79 31h-44v110z" />
    <glyph glyph-name="asciitilde" unicode="~" horiz-adv-x="569" 
d="M509 431q0 -68 -39.5 -111.5t-101.5 -43.5q-30 0 -55.5 9.5t-40 21.5t-32.5 21.5t-34 9.5q-20 0 -32 -16t-12 -40h-102q0 68 39.5 111.5t101.5 43.5q30 0 55.5 -9.5t40 -21.5t32.5 -21.5t34 -9.5q21 0 32.5 16t11.5 40h102z" />
    <glyph glyph-name="exclamdown" unicode="&#xa1;" horiz-adv-x="320" 
d="M160 354q-33 0 -56.5 23.5t-23.5 56.5t23.5 57t56.5 24t56.5 -24t23.5 -57q0 -22 -10.5 -40.5t-29 -29t-40.5 -10.5zM216 -174h-112v440h112v-440z" />
    <glyph glyph-name="cent" unicode="&#xa2;" horiz-adv-x="492" 
d="M457 348q-50 36 -104 42v-280q54 6 104 42v-116q-43 -37 -104 -48v-68h-95v69q-94 18 -154.5 91.5t-60.5 169.5q0 95 60.5 170t154.5 93v67h95v-66q57 -10 104 -49v-117zM178 250q0 -30 10 -55.5t27.5 -44.5t42.5 -30v259q-36 -18 -58 -52t-22 -77z" />
    <glyph glyph-name="sterling" unicode="&#xa3;" horiz-adv-x="546" 
d="M396 554q-40 -1 -70.5 -33t-30.5 -89v-48h139v-105h-139v-21q0 -84 -54 -130h255v-128h-416v103q36 12 58.5 54.5t22.5 91.5v30h-80v105h80v65q0 56 19 101t50 72.5t70.5 42.5t81.5 15q39 0 74 -13t53 -31v-123q-52 42 -113 41z" />
    <glyph glyph-name="currency" unicode="&#xa4;" horiz-adv-x="534" 
d="M492 97l-69 -65l-63 63q-42 -24 -93 -24t-93 24l-63 -63l-68 65l61 61q-28 46 -28 97q0 52 29 96l-61 62l66 65l64 -64q44 25 93 25t94 -25l64 64l65 -65l-61 -62q29 -45 29 -96q0 -52 -28 -96zM177 255q0 -39 26 -62.5t64 -23.5t64 23.5t26 62.5t-26 62.5t-64 23.5
t-64 -23.5t-26 -62.5z" />
    <glyph glyph-name="yen" unicode="&#xa5;" horiz-adv-x="681" 
d="M671 670l-212 -340h100v-80h-147v-45h147v-80h-147v-125h-142v125h-147v80h147v41l-3 4h-144v80h95l-208 340h163l167 -282l168 282h163z" />
    <glyph glyph-name="brokenbar" unicode="&#xa6;" horiz-adv-x="260" 
d="M180 705v-416h-100v416h100zM180 216v-416h-100v416h100z" />
    <glyph glyph-name="section" unicode="&#xa7;" horiz-adv-x="548" 
d="M459 75q49 -42 49 -110q0 -87 -74 -145t-180 -58q-109 0 -207 69v137q105 -76 210 -76q44 0 73 17.5t29 48.5q0 43 -78 71l-103 40q-74 28 -103.5 73t-29.5 108q0 60 45 107q-45 44 -45 123q0 60 33.5 107t87.5 71.5t117 24.5q106 0 187 -53v-137q-96 60 -170 60
q-44 0 -77 -18.5t-33 -54.5q0 -21 15.5 -37t31.5 -24t53 -23l82 -34q136 -58 136 -166q0 -72 -49 -121zM190 247q0 -15 7 -27.5t23.5 -23.5t30 -17.5t39.5 -17.5l48 -20q21 16 21 43q0 48 -78 78l-74 30q-17 -20 -17 -45z" />
    <glyph glyph-name="dieresis" unicode="&#xa8;" horiz-adv-x="509" 
d="M153 722q28 0 48.5 -20.5t20.5 -48.5t-20.5 -49t-48.5 -21q-19 0 -35 9.5t-25.5 25.5t-9.5 35t9.5 34.5t25.5 25t35 9.5zM363 722q18 0 34 -9t25.5 -25t9.5 -35q0 -28 -20.5 -49t-48.5 -21q-19 0 -35 9.5t-25.5 25.5t-9.5 35q0 14 5.5 27t15 22t22.5 14.5t27 5.5z" />
    <glyph glyph-name="copyright" unicode="&#xa9;" horiz-adv-x="874" 
d="M437 723q110 0 200 -52.5t141 -141.5t51 -194t-51 -194t-141 -141.5t-200 -52.5t-200 52.5t-141 141.5t-51 194t51 194t141 141.5t200 52.5zM437 635q-132 0 -213.5 -83.5t-81.5 -216.5q0 -132 81.5 -215.5t213.5 -83.5t213.5 83t81.5 216t-81.5 216.5t-213.5 83.5z
M459 555q66 0 121 -43v-95q-50 36 -112 36q-47 0 -81 -33.5t-34 -83t32.5 -82t82.5 -32.5q62 0 112 36v-95q-50 -41 -121 -41q-91 0 -153 63.5t-62 151.5t62 153t153 65z" />
    <glyph glyph-name="registered" unicode="&#xae;" horiz-adv-x="874" 
d="M437 723q110 0 200 -52.5t141 -141.5t51 -194t-51 -194t-141 -141.5t-200 -52.5t-200 52.5t-141 141.5t-51 194t51 194t141 141.5t200 52.5zM437 36q132 0 213.5 83t81.5 216t-81.5 216.5t-213.5 83.5t-213.5 -83.5t-81.5 -216.5q0 -132 81.5 -215.5t213.5 -83.5z
M619 405q0 -50 -36.5 -81t-89.5 -35l143 -153h-108l-139 163v-163h-82v397h162q61 0 105.5 -33.5t44.5 -94.5zM458 456h-69v-100q33 -10 68 -10q36 0 56.5 14.5t20.5 41.5t-21 40.5t-55 13.5z" />
    <glyph glyph-name="macron" unicode="&#xaf;" horiz-adv-x="550" 
d="M455 714v-95h-360v95h360z" />
    <glyph glyph-name="degree" unicode="&#xb0;" horiz-adv-x="428" 
d="M215 685q74 0 122.5 -50.5t48.5 -121.5q0 -72 -48.5 -122.5t-122.5 -50.5q-49 0 -88.5 23.5t-61.5 63t-22 86.5q0 35 13 66.5t35.5 54.5t54.5 37t69 14zM215 587q-30 0 -51.5 -22t-21.5 -52q0 -31 21 -53t52 -22q30 0 51 22t21 53q0 30 -21 52t-51 22z" />
    <glyph glyph-name="plusminus" unicode="&#xb1;" horiz-adv-x="531" 
d="M210 173v111h-130v110h130v110h110v-110h130v-110h-130v-111h-110zM80 110h371v-110h-371v110z" />
    <glyph glyph-name="acute" unicode="&#xb4;" horiz-adv-x="339" 
d="M314 715l-137 -142h-102l105 142h134z" />
    <glyph glyph-name="paragraph" unicode="&#xb6;" horiz-adv-x="662" 
d="M562 -210h-72v789h-85v-789h-75v472h-50q-47 0 -89 12t-76.5 35.5t-54.5 64t-20 92.5q0 53 20 93.5t54.5 64t76 35t89.5 11.5h282v-880z" />
    <glyph glyph-name="periodcentered" unicode="&#xb7;" horiz-adv-x="320" 
d="M160 423q33 0 56.5 -23.5t23.5 -56.5q0 -22 -10.5 -40.5t-29 -29t-40.5 -10.5q-33 0 -56.5 23.5t-23.5 56.5t23.5 56.5t56.5 23.5z" />
    <glyph glyph-name="cedilla" unicode="&#xb8;" horiz-adv-x="351" 
d="M187 2l-4 -60q26 2 47.5 -8t33.5 -29.5t12 -43.5q0 -46 -31 -73.5t-83 -27.5q-17 0 -41 6.5t-38 18.5l7 64q44 -23 72 -23q9 0 17 3t13 9.5t5 15.5q0 8 -4.5 14.5t-12 9.5t-17.5 3q-16 0 -33 -9l-20 12l13 118h64z" />
    <glyph glyph-name="questiondown" unicode="&#xbf;" horiz-adv-x="585" 
d="M319 354q-33 0 -56.5 23.5t-23.5 56.5t23.5 57t56.5 24t56.5 -24t23.5 -57t-23.5 -56.5t-56.5 -23.5zM310 -189q-94 0 -162 56.5t-68 148.5q0 36 19 67.5t46 53t54 41t45 39.5t17 40l-1 21h127v-40q0 -15 -9.5 -30.5t-25 -29t-34 -27.5t-37.5 -28.5t-34.5 -29t-25 -31.5
t-9.5 -33q0 -41 33 -67t85 -26q106 0 175 81v-132q-72 -74 -195 -74z" />
    <glyph glyph-name="Agrave" unicode="&#xc0;" horiz-adv-x="713" 
d="M356 805l-6 -67l-107 75l6 67zM540 0l-51 125h-265l-51 -125h-163l312 675h69l312 -675h-163zM273 243h168l-84 205z" />
    <glyph glyph-name="Aacute" unicode="&#xc1;" horiz-adv-x="713" 
d="M527 880l-137 -142h-102l105 142h134zM540 0l-51 125h-265l-51 -125h-163l312 675h69l312 -675h-163zM273 243h168l-84 205z" />
    <glyph glyph-name="Acircumflex" unicode="&#xc2;" horiz-adv-x="713" 
d="M356 804l-60 -68h-107l130 144h74l130 -144h-107zM540 0l-51 125h-265l-51 -125h-163l312 675h69l312 -675h-163zM273 243h168l-84 205z" />
    <glyph glyph-name="Atilde" unicode="&#xc3;" horiz-adv-x="713" 
d="M301 785q-11 0 -19 -5.5t-12 -15t-4 -21.5h-81q0 37 15.5 65t41.5 42t59 14q30 0 53 -11.5t39 -23t30 -11.5q17 0 25.5 11.5t8.5 30.5h81q0 -37 -15.5 -65t-41.5 -42t-59 -14q-30 0 -52.5 11.5t-38.5 23t-30 11.5zM540 0l-51 125h-265l-51 -125h-163l312 675h69l312 -675
h-163zM273 243h168l-84 205z" />
    <glyph glyph-name="Adieresis" unicode="&#xc4;" horiz-adv-x="713" 
d="M251 748q-28 0 -48.5 20.5t-20.5 49t20 49t49 20.5t49.5 -20.5t20.5 -49t-21 -49t-49 -20.5zM461 748q-28 0 -48.5 20.5t-20.5 49t20 49t49 20.5q19 0 35 -9t25.5 -25t9.5 -35q0 -29 -21 -49.5t-49 -20.5zM540 0l-51 125h-265l-51 -125h-163l312 675h69l312 -675h-163z
M273 243h168l-84 205z" />
    <glyph glyph-name="Aring" unicode="&#xc5;" horiz-adv-x="713" 
d="M356 720q-37 0 -63.5 25.5t-26.5 61.5t26.5 61.5t63.5 25.5q38 0 63.5 -25.5t25.5 -61.5t-25.5 -61.5t-63.5 -25.5zM356 846q-16 0 -28 -11.5t-12 -27.5t11.5 -27.5t28.5 -11.5q10 0 19 5t14.5 14t5.5 20q0 16 -11.5 27.5t-27.5 11.5zM540 0l-51 125h-265l-51 -125h-163
l312 675h69l312 -675h-163zM273 243h168l-84 205z" />
    <glyph glyph-name="AE" unicode="&#xc6;" horiz-adv-x="1082" 
d="M1002 550h-335v-152h296v-113h-296v-162h335v-123h-474v163h-250l-115 -163h-153l483 670h509v-120zM353 270h175v248z" />
    <glyph glyph-name="Ccedilla" unicode="&#xc7;" horiz-adv-x="643" 
d="M598 53q-72 -64 -186 -68l-3 -43q40 3 66.5 -20.5t26.5 -60.5q0 -46 -31 -73.5t-83 -27.5q-17 0 -41 6.5t-38 18.5l7 64q44 -23 72 -23q9 0 17 3t13 9.5t5 15.5q0 8 -4.5 14.5t-12 9.5t-17.5 3q-16 0 -33 -9l-20 12l12 104q-130 18 -216.5 113.5t-86.5 233.5
q0 61 18.5 116t51 97t76.5 73t97.5 47.5t110.5 16.5q114 0 189 -65v-140q-26 19 -38.5 28t-37.5 22t-51 18.5t-58 5.5q-91 0 -153.5 -63t-62.5 -156t62.5 -155.5t153.5 -62.5q61 0 106 18.5t89 52.5v-135z" />
    <glyph glyph-name="Egrave" unicode="&#xc8;" horiz-adv-x="654" 
d="M337 805l-6 -67l-107 75l6 67zM574 550h-335v-152h296v-113h-296v-162h335v-123h-474v670h474v-120z" />
    <glyph glyph-name="Eacute" unicode="&#xc9;" horiz-adv-x="654" 
d="M508 880l-137 -142h-102l105 142h134zM574 550h-335v-152h296v-113h-296v-162h335v-123h-474v670h474v-120z" />
    <glyph glyph-name="Ecircumflex" unicode="&#xca;" horiz-adv-x="654" 
d="M337 804l-60 -68h-107l130 144h74l130 -144h-107zM574 550h-335v-152h296v-113h-296v-162h335v-123h-474v670h474v-120z" />
    <glyph glyph-name="Edieresis" unicode="&#xcb;" horiz-adv-x="654" 
d="M233 748q-28 0 -48.5 20.5t-20.5 49t20 49t49 20.5t49.5 -20.5t20.5 -49t-21 -49t-49 -20.5zM443 748q-28 0 -48.5 20.5t-20.5 49t20 49t49 20.5t49.5 -20.5t20.5 -49t-21 -49t-49 -20.5zM574 550h-335v-152h296v-113h-296v-162h335v-123h-474v670h474v-120z" />
    <glyph glyph-name="Igrave" unicode="&#xcc;" horiz-adv-x="555" 
d="M280 805l-6 -67l-107 75l6 67zM460 545h-113v-420h113v-125h-365v125h113v420h-113v125h365v-125z" />
    <glyph glyph-name="Iacute" unicode="&#xcd;" horiz-adv-x="555" 
d="M451 880l-137 -142h-102l105 142h134zM460 545h-113v-420h113v-125h-365v125h113v420h-113v125h365v-125z" />
    <glyph glyph-name="Icircumflex" unicode="&#xce;" horiz-adv-x="555" 
d="M280 804l-60 -68h-107l130 144h74l130 -144h-107zM460 545h-113v-420h113v-125h-365v125h113v420h-113v125h365v-125z" />
    <glyph glyph-name="Idieresis" unicode="&#xcf;" horiz-adv-x="555" 
d="M175 748q-28 0 -48.5 20.5t-20.5 49t20 49t49 20.5t49.5 -20.5t20.5 -49t-21 -49t-49 -20.5zM385 748q-28 0 -48.5 20.5t-20.5 49t20 49t49 20.5t49.5 -20.5t20.5 -49t-21 -49t-49 -20.5zM460 545h-113v-420h113v-125h-365v125h113v420h-113v125h365v-125z" />
    <glyph glyph-name="Eth" unicode="&#xd0;" horiz-adv-x="760" 
d="M360 686q159 0 257 -94.5t98 -249.5q0 -99 -41.5 -179.5t-121.5 -128t-185 -47.5q-130 0 -267 27v263h-81v120h81v263q154 26 260 26zM363 118q97 0 153.5 62t56.5 157q0 97 -56.5 158t-153.5 61q-54 0 -124 -11v-148h81v-120h-81v-148q55 -11 124 -11z" />
    <glyph glyph-name="Ntilde" unicode="&#xd1;" horiz-adv-x="786" 
d="M574 860q0 -37 -15.5 -65t-41.5 -42t-59 -14q-30 0 -52.5 11.5t-38.5 23t-30 11.5q-11 0 -19 -5.5t-12 -15t-4 -21.5h-81q0 37 15.5 65t41.5 42t59 14q30 0 53 -11.5t39 -23t30 -11.5q17 0 25.5 11.5t8.5 30.5h81zM686 670v-675h-50l-397 409v-404h-139v675h50l397 -415
v410h139z" />
    <glyph glyph-name="Ograve" unicode="&#xd2;" horiz-adv-x="791" 
d="M289 880l107 -75l-6 -67l-107 75zM396 685q96 0 175.5 -44t127 -124.5t47.5 -181.5t-47.5 -181.5t-127 -124.5t-175.5 -44t-176 44t-127.5 124.5t-47.5 181.5t47.5 181.5t127.5 124.5t176 44zM396 554q-90 0 -149.5 -62.5t-59.5 -156.5t59.5 -156t149.5 -62t149 62
t59 156q0 46 -15.5 86.5t-43 69.5t-66.5 46t-83 17z" />
    <glyph glyph-name="Oacute" unicode="&#xd3;" horiz-adv-x="791" 
d="M567 880l-137 -142h-102l105 142h134zM396 685q96 0 175.5 -44t127 -124.5t47.5 -181.5t-47.5 -181.5t-127 -124.5t-175.5 -44t-176 44t-127.5 124.5t-47.5 181.5t47.5 181.5t127.5 124.5t176 44zM396 554q-90 0 -149.5 -62.5t-59.5 -156.5t59.5 -156t149.5 -62t149 62
t59 156q0 46 -15.5 86.5t-43 69.5t-66.5 46t-83 17z" />
    <glyph glyph-name="Ocircumflex" unicode="&#xd4;" horiz-adv-x="791" 
d="M433 880l130 -144h-107l-60 68l-60 -68h-107l130 144h74zM396 685q147 0 248.5 -98.5t101.5 -251.5q0 -101 -47.5 -181.5t-127 -124.5t-175.5 -44t-176 44t-127.5 124.5t-47.5 181.5q0 153 102 251.5t249 98.5zM396 554q-90 0 -149.5 -62.5t-59.5 -156.5t59.5 -156
t149.5 -62t149 62t59 156t-59 156.5t-149 62.5z" />
    <glyph glyph-name="Otilde" unicode="&#xd5;" horiz-adv-x="791" 
d="M578 860q0 -56 -33 -88.5t-83 -32.5q-39 0 -73.5 23t-47.5 23q-16 0 -25.5 -12t-9.5 -30h-81q0 56 33 88.5t83 32.5q39 0 74 -23t48 -23q34 0 34 42h81zM396 685q147 0 248.5 -98.5t101.5 -251.5q0 -101 -47.5 -181.5t-127 -124.5t-175.5 -44t-176 44t-127.5 124.5
t-47.5 181.5q0 153 102 251.5t249 98.5zM396 554q-90 0 -149.5 -62.5t-59.5 -156.5t59.5 -156t149.5 -62t149 62t59 156t-59 156.5t-149 62.5z" />
    <glyph glyph-name="Odieresis" unicode="&#xd6;" horiz-adv-x="791" 
d="M291 887q29 0 49.5 -20.5t20.5 -48.5t-21 -49t-49 -21t-48.5 20.5t-20.5 49t20 49t49 20.5zM501 887q19 0 35 -9t25.5 -25t9.5 -35q0 -28 -21 -49t-49 -21t-48.5 20.5t-20.5 49t20 49t49 20.5zM396 685q96 0 175.5 -44t127 -124.5t47.5 -181.5t-47.5 -181.5t-127 -124.5
t-175.5 -44t-176 44t-127.5 124.5t-47.5 181.5t47.5 181.5t127.5 124.5t176 44zM396 554q-90 0 -149.5 -62.5t-59.5 -156.5t59.5 -156t149.5 -62t149 62t59 156q0 46 -15.5 86.5t-43 70t-66.5 46t-83 16.5z" />
    <glyph glyph-name="multiply" unicode="&#xd7;" horiz-adv-x="550" 
d="M443 409l-95 -96l95 -95l-85 -85l-95 95l-96 -96l-85 85l96 96l-95 96l85 85l95 -96l95 96z" />
    <glyph glyph-name="Oslash" unicode="&#xd8;" horiz-adv-x="791" 
d="M656 574q90 -98 90 -239q0 -101 -47.5 -181.5t-127 -124.5t-175.5 -44q-105 0 -189 52l-43 -52l-64 50l43 52q-98 101 -98 248q0 101 47.5 181.5t127.5 124.5t176 44q107 0 196 -57l48 57l67 -50zM187 335q0 -81 46 -140l272 328q-48 31 -109 31q-90 0 -149.5 -62.5
t-59.5 -156.5zM396 117q90 0 149 62t59 156q0 75 -39 131l-270 -324q43 -25 101 -25z" />
    <glyph glyph-name="Ugrave" unicode="&#xd9;" horiz-adv-x="759" 
d="M273 880l107 -75l-6 -67l-107 75zM669 672v-407q0 -128 -82 -203.5t-207 -75.5t-207.5 75.5t-82.5 203.5v407h139v-399q0 -75 41 -114.5t110 -38.5q70 1 110.5 40t40.5 113v399h138z" />
    <glyph glyph-name="Uacute" unicode="&#xda;" horiz-adv-x="759" 
d="M551 880l-137 -142h-102l105 142h134zM669 672v-407q0 -128 -82 -203.5t-207 -75.5t-207.5 75.5t-82.5 203.5v407h139v-399q0 -75 41 -114.5t110 -38.5q70 1 110.5 40t40.5 113v399h138z" />
    <glyph glyph-name="Ucircumflex" unicode="&#xdb;" horiz-adv-x="759" 
d="M417 880l130 -144h-107l-60 68l-60 -68h-107l130 144h74zM669 672v-407q0 -128 -82 -203.5t-207 -75.5t-207.5 75.5t-82.5 203.5v407h139v-399q0 -75 41 -114.5t110 -38.5q70 1 110.5 40t40.5 113v399h138z" />
    <glyph glyph-name="Udieresis" unicode="&#xdc;" horiz-adv-x="759" 
d="M275 887q29 0 49.5 -20.5t20.5 -48.5t-20.5 -49t-49.5 -21q-28 0 -48.5 20.5t-20.5 49.5q0 28 20 48.5t49 20.5zM485 887q29 0 49.5 -20.5t20.5 -48.5t-20.5 -49t-49.5 -21q-28 0 -48.5 20.5t-20.5 49.5q0 28 20 48.5t49 20.5zM669 672v-407q0 -128 -82 -203.5
t-207 -75.5t-207.5 75.5t-82.5 203.5v407h139v-399q0 -75 41 -114.5t110 -38.5q70 1 110.5 40t40.5 113v399h138z" />
    <glyph glyph-name="Yacute" unicode="&#xdd;" horiz-adv-x="681" 
d="M512 880l-137 -142h-102l105 142h134zM671 670l-259 -417v-253h-142v246l-260 424h163l167 -282l168 282h163z" />
    <glyph glyph-name="Thorn" unicode="&#xde;" horiz-adv-x="659" 
d="M227 670v-114h166q89 0 157.5 -61t68.5 -152q0 -95 -67.5 -157t-173.5 -62q-72 0 -151 24v-148h-127v670h127zM353 436h-126v-167q56 -30 141 -30q30 0 52.5 7t37 21t22 33t7.5 43q0 44 -38 68.5t-96 24.5z" />
    <glyph glyph-name="germandbls" unicode="&#xdf;" horiz-adv-x="691" 
d="M277 725q42 0 82.5 -13.5t73 -38t52 -62.5t19.5 -84q0 -30 -13.5 -55t-29.5 -39t-29.5 -31.5t-13.5 -33.5q0 -9 4 -16.5t13 -14t16 -10t22 -10t22 -9.5l54 -25q112 -51 112 -138q0 -71 -58.5 -114.5t-136.5 -43.5q-92 0 -170 47v110q83 -48 169 -48q35 0 57 12t22 36
q0 35 -79 62l-68 25q-45 17 -71 44.5t-26 75.5q0 27 11 53t24.5 42.5t25 38t11.5 41.5q0 41 -27 66.5t-64 24.5q-91 -2 -91 -107v-510h-127v529q0 63 32 109t79.5 66.5t102.5 20.5z" />
    <glyph glyph-name="agrave" unicode="&#xe0;" horiz-adv-x="636" 
d="M210 715l107 -75l-6 -67l-107 75zM278 518q41 0 82.5 -19t70.5 -51v57h127v-505h-127v85q-24 -44 -66.5 -72t-95.5 -28q-95 0 -160.5 71.5t-65.5 192.5q0 123 67 196t168 73zM304 394q-57 0 -93 -43t-36 -102q0 -58 35 -97.5t91 -39.5q53 0 92 40.5t38 106.5v72
q-60 63 -127 63z" />
    <glyph glyph-name="aacute" unicode="&#xe1;" horiz-adv-x="636" 
d="M488 715l-137 -142h-102l105 142h134zM278 518q16 0 33 -3t33.5 -9.5t32 -15t29.5 -19t25 -23.5v57h127v-505h-127v85q-24 -44 -66.5 -72t-95.5 -28q-95 0 -160.5 71.5t-65.5 192.5q0 123 67 196t168 73zM304 394q-57 0 -93 -43t-36 -102q0 -58 35 -97.5t91 -39.5
q53 0 92 40.5t38 106.5v72q-60 63 -127 63z" />
    <glyph glyph-name="acircumflex" unicode="&#xe2;" horiz-adv-x="636" 
d="M354 715l130 -144h-107l-60 68l-60 -68h-107l130 144h74zM278 518q16 0 33 -3t33.5 -9.5t32 -15t29.5 -19t25 -23.5v57h127v-505h-127v85q-24 -44 -66.5 -72t-95.5 -28q-95 0 -160.5 71.5t-65.5 192.5q0 123 67 196t168 73zM304 394q-57 0 -93 -43t-36 -102
q0 -58 35 -97.5t91 -39.5q53 0 92 40.5t38 106.5v72q-60 63 -127 63z" />
    <glyph glyph-name="atilde" unicode="&#xe3;" horiz-adv-x="636" 
d="M500 695q0 -56 -33 -88.5t-83 -32.5q-23 0 -43 7t-30.5 16t-23.5 16t-24 7q-16 0 -25.5 -12t-9.5 -30h-81q0 56 33 88.5t83 32.5q39 0 74 -23t48 -23q34 0 34 42h81zM278 518q16 0 33 -3t33.5 -9.5t32 -15t29.5 -19t25 -23.5v57h127v-505h-127v85q-24 -44 -66.5 -72
t-95.5 -28q-95 0 -160.5 71.5t-65.5 192.5q0 123 67 196t168 73zM304 394q-57 0 -93 -43t-36 -102q0 -58 35 -97.5t91 -39.5q53 0 92 40.5t38 106.5v72q-60 63 -127 63z" />
    <glyph glyph-name="adieresis" unicode="&#xe4;" horiz-adv-x="636" 
d="M213 722q29 0 49.5 -20.5t20.5 -49t-21 -49t-49 -20.5t-48.5 20.5t-20.5 49t20 49t49 20.5zM423 722q29 0 49.5 -20.5t20.5 -49t-21 -49t-49 -20.5t-48.5 20.5t-20.5 49t20 49t49 20.5zM278 518q41 0 82.5 -19t70.5 -51v57h127v-505h-127v85q-24 -44 -66.5 -72t-95.5 -28
q-95 0 -160.5 71.5t-65.5 192.5q0 123 67 196t168 73zM304 394q-57 0 -93 -43t-36 -102q0 -58 35 -97.5t91 -39.5q53 0 92 40.5t38 106.5v72q-60 63 -127 63z" />
    <glyph glyph-name="aring" unicode="&#xe5;" horiz-adv-x="636" 
d="M317 729q38 0 63.5 -25.5t25.5 -61.5t-25.5 -61.5t-63.5 -25.5q-37 0 -63.5 25.5t-26.5 61.5t26.5 61.5t63.5 25.5zM317 681q-16 0 -28 -11.5t-12 -27.5t11.5 -27.5t28.5 -11.5q16 0 27.5 11.5t11.5 27.5t-11.5 27.5t-27.5 11.5zM278 518q16 0 33 -3t33.5 -9.5t32 -15
t29.5 -19t25 -23.5v57h127v-505h-127v85q-24 -44 -66.5 -72t-95.5 -28q-95 0 -160.5 71.5t-65.5 192.5q0 123 67 196t168 73zM304 394q-57 0 -93 -43t-36 -102q0 -58 35 -97.5t91 -39.5q53 0 92 40.5t38 106.5v72q-60 63 -127 63z" />
    <glyph glyph-name="ae" unicode="&#xe6;" horiz-adv-x="1004" 
d="M966 267v-54h-366q11 -51 51 -82t97 -31q92 0 172 67l-1 -118q-27 -25 -75 -44.5t-101 -19.5q-108 0 -185 68v-53h-127v85q-24 -44 -66.5 -72t-95.5 -28q-95 0 -160.5 71.5t-65.5 192.5q0 123 67 196t168 73q41 0 82.5 -19t70.5 -51v57h127v-54q70 67 170 67
q110 0 174 -69.5t64 -181.5zM603 300h241q-4 52 -38 79.5t-81 27.5q-46 0 -78.5 -29t-43.5 -78zM301 112q53 0 92 40.5t38 106.5v72q-60 63 -127 63q-57 0 -93 -43t-36 -102q0 -58 35 -97.5t91 -39.5z" />
    <glyph glyph-name="ccedilla" unicode="&#xe7;" horiz-adv-x="492" 
d="M319 393q-29 0 -54.5 -11t-44.5 -29.5t-30.5 -45.5t-11.5 -57q0 -62 40 -102t101 -40q76 0 138 44v-116q-53 -47 -136 -51l-3 -43q40 3 66.5 -20.5t26.5 -60.5q0 -46 -31 -73.5t-83 -27.5q-17 0 -41 6.5t-38 18.5l7 64q44 -23 72 -23q9 0 17 3t13 9.5t5 15.5
q0 8 -4.5 14.5t-12 9.5t-17.5 3q-16 0 -33 -9l-20 12l12 106q-62 11 -111 49t-76 93.5t-27 117.5q0 109 76.5 188.5t188.5 79.5q84 0 149 -53v-117q-63 45 -138 45z" />
    <glyph glyph-name="egrave" unicode="&#xe8;" 
d="M304 640l-6 -67l-107 75l6 67zM537 267v-54h-366q11 -51 51 -82t97 -31q92 0 172 67l-1 -118q-27 -25 -75 -44.5t-101 -19.5q-113 0 -192 74.5t-79 187.5q0 112 73.5 191.5t182.5 79.5q110 0 174 -69.5t64 -181.5zM173 300h242q-4 52 -38 79.5t-81 27.5q-46 0 -78.5 -29
t-44.5 -78z" />
    <glyph glyph-name="eacute" unicode="&#xe9;" 
d="M475 715l-137 -142h-102l105 142h134zM537 267v-54h-366q11 -51 51 -82t97 -31q92 0 172 67l-1 -118q-27 -25 -75 -44.5t-101 -19.5q-113 0 -192 74.5t-79 187.5q0 112 73.5 191.5t182.5 79.5q110 0 174 -69.5t64 -181.5zM173 300h242q-4 52 -38 79.5t-81 27.5
q-46 0 -78.5 -29t-44.5 -78z" />
    <glyph glyph-name="ecircumflex" unicode="&#xea;" 
d="M304 639l-60 -68h-107l130 144h74l130 -144h-107zM537 267v-54h-366q11 -51 51 -82t97 -31q92 0 172 67l-1 -118q-27 -25 -75 -44.5t-101 -19.5q-113 0 -192 74.5t-79 187.5q0 112 73.5 191.5t182.5 79.5q110 0 174 -69.5t64 -181.5zM173 300h242q-4 52 -38 79.5
t-81 27.5q-46 0 -78.5 -29t-44.5 -78z" />
    <glyph glyph-name="edieresis" unicode="&#xeb;" 
d="M199 583q-28 0 -48.5 20.5t-20.5 49.5t20 49t49 20t49.5 -20.5t20.5 -48.5q0 -29 -20.5 -49.5t-49.5 -20.5zM409 583q-28 0 -48.5 20.5t-20.5 49.5t20 49t49 20t49.5 -20.5t20.5 -48.5q0 -29 -20.5 -49.5t-49.5 -20.5zM537 267v-54h-366q11 -51 51 -82t97 -31
q92 0 172 67l-1 -118q-27 -25 -75 -44.5t-101 -19.5q-113 0 -192 74.5t-79 187.5q0 112 73.5 191.5t182.5 79.5q110 0 174 -69.5t64 -181.5zM173 300h242q-4 52 -38 79.5t-81 27.5q-46 0 -78.5 -29t-44.5 -78z" />
    <glyph glyph-name="igrave" unicode="&#xec;" horiz-adv-x="338" 
d="M184 640l-6 -67l-107 75l6 67zM261 505v-505h-127v397h-81v108h208z" />
    <glyph glyph-name="iacute" unicode="&#xed;" horiz-adv-x="338" 
d="M355 715l-137 -142h-102l105 142h134zM53 505h208v-505h-127v397h-81v108z" />
    <glyph glyph-name="icircumflex" unicode="&#xee;" horiz-adv-x="307" 
d="M157 639l-60 -68h-107l130 144h74l130 -144h-107zM79 505h208v-505h-127v397h-81v108z" />
    <glyph glyph-name="idieresis" unicode="&#xef;" horiz-adv-x="338" 
d="M148 652.5q0 -28.5 -21 -49t-49 -20.5t-48.5 20.5t-20.5 49t20.5 49t49 20.5t49 -20.5t20.5 -49zM289 722q29 0 49.5 -20.5t20.5 -49t-20.5 -49t-49 -20.5t-49 20.5t-20.5 49t20 49t49 20.5zM53 505h208v-505h-127v397h-81v108z" />
    <glyph glyph-name="eth" unicode="&#xf0;" horiz-adv-x="613" 
d="M454 598q116 -142 116 -314q0 -133 -75 -216t-187 -83q-111 0 -188 76.5t-77 188.5q0 110 76 182.5t184 72.5q78 0 144 -75q-18 55 -82 124l-78 -38l-32 60l58 29q-11 9 -31 24.5t-22 17.5l68 71q47 -37 77 -67l89 44l32 -62zM313 108q57 0 96.5 38.5t39.5 104.5
t-39.5 105t-96.5 39t-96 -39t-39 -105t39 -104.5t96 -38.5z" />
    <glyph glyph-name="ntilde" unicode="&#xf1;" horiz-adv-x="607" 
d="M265 621q-8 0 -14.5 -3t-11 -9t-7 -13.5t-2.5 -16.5h-81q0 37 15.5 65t41.5 42t59 14q24 0 43.5 -7t30.5 -16t24 -16t24 -7q17 0 25.5 11.5t8.5 30.5h81q0 -37 -15.5 -65t-41.5 -42t-59 -14q-30 0 -52.5 11.5t-38.5 23t-30 11.5zM358 518q26 0 49 -6t43.5 -17.5t36.5 -29
t28 -40t18 -52t6 -63.5v-310h-127l-1 293q0 50 -24 75.5t-68 25.5q-60 0 -114 -74v-320h-127v505h127v-72q27 36 66.5 60.5t86.5 24.5z" />
    <glyph glyph-name="ograve" unicode="&#xf2;" horiz-adv-x="626" 
d="M206 715l107 -75l-6 -67l-107 75zM313 518q111 0 191 -77.5t80 -189.5q0 -111 -80 -188.5t-191 -77.5t-190.5 77.5t-79.5 188.5q0 112 79.5 189.5t190.5 77.5zM313 395q-57 0 -96 -39t-39 -105t39 -104.5t96 -38.5t96.5 38.5t39.5 104.5t-39.5 105t-96.5 39z" />
    <glyph glyph-name="oacute" unicode="&#xf3;" horiz-adv-x="626" 
d="M484 715l-137 -142h-102l105 142h134zM313 518q111 0 191 -77.5t80 -189.5q0 -111 -80 -188.5t-191 -77.5t-190.5 77.5t-79.5 188.5q0 112 79.5 189.5t190.5 77.5zM313 395q-57 0 -96 -39t-39 -105t39 -104.5t96 -38.5t96.5 38.5t39.5 104.5t-39.5 105t-96.5 39z" />
    <glyph glyph-name="ocircumflex" unicode="&#xf4;" horiz-adv-x="626" 
d="M350 715l130 -144h-107l-60 68l-60 -68h-107l130 144h74zM313 518q111 0 191 -77.5t80 -189.5q0 -111 -80 -188.5t-191 -77.5t-190.5 77.5t-79.5 188.5q0 112 79.5 189.5t190.5 77.5zM313 395q-57 0 -96 -39t-39 -105t39 -104.5t96 -38.5t96.5 38.5t39.5 104.5t-39.5 105
t-96.5 39z" />
    <glyph glyph-name="otilde" unicode="&#xf5;" horiz-adv-x="626" 
d="M496 695q0 -37 -15.5 -65t-41.5 -42t-59 -14q-30 0 -52.5 11.5t-38.5 23t-30 11.5q-11 0 -19 -5.5t-12 -15t-4 -21.5h-81q0 37 15.5 65t41.5 42t59 14q30 0 53 -11.5t39 -23t30 -11.5q17 0 25.5 11.5t8.5 30.5h81zM313 518q111 0 191 -77.5t80 -189.5q0 -111 -80 -188.5
t-191 -77.5t-190.5 77.5t-79.5 188.5q0 112 79.5 189.5t190.5 77.5zM313 395q-57 0 -96 -39t-39 -105t39 -104.5t96 -38.5t96.5 38.5t39.5 104.5t-39.5 105t-96.5 39z" />
    <glyph glyph-name="odieresis" unicode="&#xf6;" horiz-adv-x="626" 
d="M209 722q29 0 49.5 -20.5t20.5 -49t-20.5 -49t-49 -20.5t-49 20.5t-20.5 49t20 49t49 20.5zM419 722q29 0 49.5 -20.5t20.5 -49t-20.5 -49t-49 -20.5t-49 20.5t-20.5 49t20 49t49 20.5zM313 518q111 0 191 -77.5t80 -189.5q0 -111 -80 -188.5t-191 -77.5t-190.5 77.5
t-79.5 188.5q0 112 79.5 189.5t190.5 77.5zM313 395q-57 0 -96 -39t-39 -105t39 -104.5t96 -38.5t96.5 38.5t39.5 104.5t-39.5 105t-96.5 39z" />
    <glyph glyph-name="divide" unicode="&#xf7;" horiz-adv-x="551" 
d="M276 578q30 0 52 -21.5t22 -52.5q0 -30 -22 -52t-52 -22q-31 0 -52.5 22t-21.5 52q0 31 21.5 52.5t52.5 21.5zM471 373v-120h-391v120h391zM276 194q30 0 52 -21.5t22 -52.5q0 -30 -22 -52t-52 -22q-31 0 -52.5 22t-21.5 52q0 31 21.5 52.5t52.5 21.5z" />
    <glyph glyph-name="oslash" unicode="&#xf8;" horiz-adv-x="606" 
d="M521 422q63 -74 63 -171q0 -111 -80 -188.5t-191 -77.5q-86 0 -156 49l-51 -54l-59 50l53 57q-57 71 -57 164q0 112 79.5 189.5t190.5 77.5q80 0 148 -44l42 45l62 -50zM178 251q0 -40 13 -67l183 197q-28 14 -61 14q-57 0 -96 -39t-39 -105zM313 108q57 0 96.5 38.5
t39.5 104.5q0 41 -18 75l-188 -200q31 -18 70 -18z" />
    <glyph glyph-name="ugrave" unicode="&#xf9;" horiz-adv-x="591" 
d="M195 715l107 -75l-6 -67l-107 75zM524 505v-301q0 -99 -64 -158t-164 -59t-164 59t-64 158v301h128l1 -278q0 -57 26.5 -87t72.5 -30t72.5 30t26.5 87v278h129z" />
    <glyph glyph-name="uacute" unicode="&#xfa;" horiz-adv-x="591" 
d="M473 715l-137 -142h-102l105 142h134zM524 505v-301q0 -99 -64 -158t-164 -59t-164 59t-64 158v301h128l1 -278q0 -57 26.5 -87t72.5 -30t72.5 30t26.5 87v278h129z" />
    <glyph glyph-name="ucircumflex" unicode="&#xfb;" horiz-adv-x="591" 
d="M339 715l130 -144h-107l-60 68l-60 -68h-107l130 144h74zM524 505v-301q0 -99 -64 -158t-164 -59t-164 59t-64 158v301h128l1 -278q0 -57 26.5 -87t72.5 -30t72.5 30t26.5 87v278h129z" />
    <glyph glyph-name="udieresis" unicode="&#xfc;" horiz-adv-x="591" 
d="M198 722q29 0 49.5 -20.5t20.5 -49t-21 -49t-49 -20.5q-14 0 -27 5.5t-22 15t-14.5 22.5t-5.5 27q0 28 20 48.5t49 20.5zM408 722q29 0 49.5 -20.5t20.5 -49t-21 -49t-49 -20.5t-48.5 20.5t-20.5 49t20 49t49 20.5zM524 505v-301q0 -99 -64 -158t-164 -59t-164 59
t-64 158v301h128l1 -278q0 -57 26.5 -87t72.5 -30t72.5 30t26.5 87v278h129z" />
    <glyph glyph-name="yacute" unicode="&#xfd;" horiz-adv-x="597" 
d="M467 715l-137 -142h-102l105 142h134zM442 505h145l-367 -745h-144l152 277l-218 468h148l144 -322z" />
    <glyph glyph-name="thorn" unicode="&#xfe;" horiz-adv-x="636" 
d="M78 720h127v-300q9 17 21 31.5t27.5 27t33 21t38 13.5t42.5 5q46 0 86.5 -17.5t72 -50t49.5 -82.5t18 -112q0 -123 -67 -196t-168 -73q-41 0 -82.5 19t-70.5 51v-282h-127v945zM335 390q-34 0 -63.5 -16.5t-48 -50t-18.5 -76.5v-73q59 -62 127 -62q57 0 93 42.5t36 101.5
q0 58 -35 96t-91 38z" />
    <glyph glyph-name="ydieresis" unicode="&#xff;" horiz-adv-x="597" 
d="M191.5 583q-28.5 0 -49 20.5t-20.5 49t20 49t49 20.5t49.5 -20.5t20.5 -49t-20.5 -49t-49 -20.5zM401.5 583q-28.5 0 -49 20.5t-20.5 49t20 49t49 20.5t49.5 -20.5t20.5 -49t-20.5 -49t-49 -20.5zM442 505h145l-367 -745h-144l152 277l-218 468h148l144 -322z" />
    <glyph glyph-name="Amacron" unicode="&#x100;" horiz-adv-x="713" 
d="M536 879v-95h-360v95h360zM540 0l-51 125h-265l-51 -125h-163l312 675h69l312 -675h-163zM273 243h168l-84 205z" />
    <glyph glyph-name="amacron" unicode="&#x101;" horiz-adv-x="636" 
d="M497 714v-95h-360v95h360zM278 518q16 0 33 -3t33.5 -9.5t32 -15t29.5 -19.5t25 -23v57h127v-505h-127v85q-24 -44 -66.5 -72t-95.5 -28q-95 0 -160.5 71.5t-65.5 192.5q0 123 67 196t168 73zM304 394q-57 0 -93 -43t-36 -102q0 -58 35 -97.5t91 -39.5q53 0 92 40.5
t38 106.5v72q-60 63 -127 63z" />
    <glyph glyph-name="Abreve" unicode="&#x102;" horiz-adv-x="713" 
d="M356 730q-69 0 -114.5 41t-47.5 109h87q2 -14 8 -25.5t15.5 -19.5t22.5 -12.5t29 -4.5q31 0 50.5 18t24.5 44h87q-1 -45 -23 -79.5t-58 -52.5t-81 -18zM540 0l-51 125h-265l-51 -125h-163l312 675h69l312 -675h-163zM273 243h168l-84 205z" />
    <glyph glyph-name="abreve" unicode="&#x103;" horiz-adv-x="636" 
d="M479 715q-2 -68 -47.5 -109t-114.5 -41t-114.5 41t-47.5 109h87q10 -62 75 -62q31 0 50.5 18t24.5 44h87zM278 518q16 0 33 -3t33.5 -9.5t32 -15t29.5 -19t25 -23.5v57h127v-505h-127v85q-24 -44 -66.5 -72t-95.5 -28q-95 0 -160.5 71.5t-65.5 192.5q0 123 67 196t168 73
zM304 394q-57 0 -93 -43t-36 -102q0 -58 35 -97.5t91 -39.5q53 0 92 40.5t38 106.5v72q-60 63 -127 63z" />
    <glyph glyph-name="Aogonek" unicode="&#x104;" horiz-adv-x="713" 
d="M552 -86q0 -19 12 -31t32 -12q27 0 54 18v-91q-46 -23 -94 -23q-49 0 -85.5 26t-36.5 73q0 46 34 79t77 47h-5l-51 125h-265l-51 -125h-163l312 675h69l312 -675h-48q-41 -13 -72 -38t-31 -48zM273 243h168l-84 205z" />
    <glyph glyph-name="aogonek" unicode="&#x105;" horiz-adv-x="636" 
d="M541 0q-41 -13 -72 -38t-31 -48q0 -19 12 -31t32 -12q27 0 54 18v-91q-46 -23 -94 -23q-49 0 -85.5 26t-36.5 73t34 79.5t77 46.5v85q-24 -44 -66.5 -72t-95.5 -28q-95 0 -160.5 71.5t-65.5 192.5q0 123 67 196t168 73q16 0 33 -3t33.5 -9.5t32 -15t29.5 -19.5t25 -23v57
h127v-505h-17zM301 112q53 0 92 40.5t38 106.5v72q-60 63 -127 63q-57 0 -93 -43t-36 -102q0 -58 35 -97.5t91 -39.5z" />
    <glyph glyph-name="Cacute" unicode="&#x106;" horiz-adv-x="643" 
d="M571 880l-137 -142h-102l105 142h134zM399 685q114 0 189 -65v-140q-26 19 -38.5 28t-37.5 22t-51 18.5t-58 5.5q-91 0 -153.5 -63t-62.5 -156t62.5 -155.5t153.5 -62.5q61 0 106 18.5t89 52.5v-135q-76 -68 -199 -68q-71 0 -136 26t-113 71t-76.5 111t-28.5 142
t28.5 142t76.5 111t113 71t136 26z" />
    <glyph glyph-name="cacute" unicode="&#x107;" horiz-adv-x="492" 
d="M471 715l-137 -142h-102l105 142h134zM308 518q84 0 149 -53v-117q-63 45 -138 45q-58 0 -99.5 -41t-41.5 -102q0 -62 40 -102t101 -40q76 0 138 44v-116q-59 -51 -149 -51q-112 0 -188.5 78.5t-76.5 186.5q0 109 76.5 188.5t188.5 79.5z" />
    <glyph glyph-name="Ccaron" unicode="&#x10c;" horiz-adv-x="643" 
d="M233 880h107l60 -68l60 68h107l-130 -144h-74zM399 685q114 0 189 -65v-140q-26 19 -38.5 28t-37.5 22t-51 18.5t-58 5.5q-91 0 -153.5 -63t-62.5 -156t62.5 -155.5t153.5 -62.5q61 0 106 18.5t89 52.5v-135q-76 -68 -199 -68q-71 0 -136 26t-113 71t-76.5 111t-28.5 142
t28.5 142t76.5 111t113 71t136 26z" />
    <glyph glyph-name="ccaron" unicode="&#x10d;" horiz-adv-x="492" 
d="M133 715h107l60 -68l60 68h107l-130 -144h-74zM308 518q84 0 149 -53v-117q-63 45 -138 45q-58 0 -99.5 -41t-41.5 -102q0 -62 40 -102t101 -40q76 0 138 44v-116q-59 -51 -149 -51q-112 0 -188.5 78.5t-76.5 186.5q0 109 76.5 188.5t188.5 79.5z" />
    <glyph glyph-name="Dcaron" unicode="&#x10e;" horiz-adv-x="760" 
d="M182 880h107l60 -68l60 68h107l-130 -144h-74zM360 686q159 0 257 -94.5t98 -249.5q0 -99 -41.5 -179.5t-121.5 -128t-185 -47.5q-130 0 -267 27v646q154 26 260 26zM363 556q-54 0 -124 -11v-416q55 -11 124 -11q97 0 153.5 62t56.5 157q0 97 -56.5 158t-153.5 61z" />
    <glyph glyph-name="dcaron" unicode="&#x10f;" horiz-adv-x="743" 
d="M558 720v-720h-127v85q-24 -44 -66.5 -72t-95.5 -28q-95 0 -160.5 71.5t-65.5 192.5q0 123 67 196t168 73q16 0 33 -3t33.5 -9.5t32 -15t29.5 -19.5t25 -23v272h127zM616 718h114l-30 -188h-94zM304 393q-57 0 -93 -42.5t-36 -101.5q0 -58 35 -97.5t91 -39.5
q53 0 92 40.5t38 106.5v72q-59 62 -127 62z" />
    <glyph glyph-name="Dcroat" unicode="&#x110;" horiz-adv-x="760" 
d="M360 686q159 0 257 -94.5t98 -249.5q0 -99 -41.5 -179.5t-121.5 -128t-185 -47.5q-130 0 -267 27v263h-81v120h81v263q154 26 260 26zM363 118q97 0 153.5 62t56.5 157q0 97 -56.5 158t-153.5 61q-54 0 -124 -11v-148h81v-120h-81v-148q55 -11 124 -11z" />
    <glyph glyph-name="dcroat" unicode="&#x111;" horiz-adv-x="629" 
d="M622 646v-95h-64v-551h-127v85q-24 -44 -66.5 -72t-95.5 -28q-95 0 -160.5 71.5t-65.5 192.5q0 123 67 196t168 73q16 0 33 -3t33.5 -9.5t32 -15t29.5 -19.5t25 -23v103h-123v95h123v74h127v-74h64zM301 112q53 0 92 40.5t38 106.5v72q-59 62 -127 62q-57 0 -93 -42.5
t-36 -101.5q0 -58 35 -97.5t91 -39.5z" />
    <glyph glyph-name="Emacron" unicode="&#x112;" horiz-adv-x="654" 
d="M517 879v-95h-360v95h360zM574 550h-335v-152h296v-113h-296v-162h335v-123h-474v670h474v-120z" />
    <glyph glyph-name="emacron" unicode="&#x113;" 
d="M484 714v-95h-360v95h360zM537 267v-54h-366q11 -51 51 -82t97 -31q92 0 172 67l-1 -118q-27 -25 -75 -44.5t-101 -19.5q-113 0 -192 74.5t-79 187.5q0 112 73.5 191.5t182.5 79.5q110 0 174 -69.5t64 -181.5zM173 300h242q-4 52 -38 79.5t-81 27.5q-46 0 -78.5 -29
t-44.5 -78z" />
    <glyph glyph-name="Edotaccent" unicode="&#x116;" horiz-adv-x="654" 
d="M337 741q-28 0 -48.5 20.5t-20.5 49.5t20 49t49 20t49.5 -20.5t20.5 -48.5q0 -29 -20.5 -49.5t-49.5 -20.5zM574 550h-335v-152h296v-113h-296v-162h335v-123h-474v670h474v-120z" />
    <glyph glyph-name="edotaccent" unicode="&#x117;" 
d="M304 576q-28 0 -48.5 20.5t-20.5 49.5q0 28 20.5 48.5t48.5 20.5q29 0 49.5 -20.5t20.5 -48.5t-21 -49t-49 -21zM537 267v-54h-366q11 -51 51 -82t97 -31q92 0 172 67l-1 -118q-27 -25 -75 -44.5t-101 -19.5q-113 0 -192 74.5t-79 187.5q0 112 73.5 191.5t182.5 79.5
q110 0 174 -69.5t64 -181.5zM173 300h242q-4 52 -38 79.5t-81 27.5q-46 0 -78.5 -29t-44.5 -78z" />
    <glyph glyph-name="Eogonek" unicode="&#x118;" horiz-adv-x="654" 
d="M471 -86q0 -19 12 -31t32 -12q27 0 54 18v-91q-46 -23 -94 -23q-49 0 -85.5 26t-36.5 73q0 46 34 79t77 47h-364v670h474v-120h-335v-152h296v-113h-296v-162h335v-122h3q-42 -14 -74 -38.5t-32 -48.5z" />
    <glyph glyph-name="eogonek" unicode="&#x119;" 
d="M537 267v-54h-366q11 -51 51 -82t97 -31q92 0 172 67l-1 -118q-31 -29 -85 -48h17q-42 -14 -74 -38.5t-32 -48.5q0 -19 12 -31t32 -12q27 0 54 18v-91q-46 -23 -94 -23q-49 0 -85.5 26t-36.5 73q0 71 80 113q-101 12 -168 84.5t-67 175.5q0 112 73.5 191.5t182.5 79.5
q110 0 174 -69.5t64 -181.5zM173 300h242q-4 52 -38 79.5t-81 27.5q-46 0 -78.5 -29t-44.5 -78z" />
    <glyph glyph-name="Ecaron" unicode="&#x11a;" horiz-adv-x="654" 
d="M374 736h-74l-130 144h107l60 -68l60 68h107zM574 550h-335v-152h296v-113h-296v-162h335v-123h-474v670h474v-120z" />
    <glyph glyph-name="ecaron" unicode="&#x11b;" 
d="M341 571h-74l-130 144h107l60 -68l60 68h107zM537 267v-54h-366q11 -51 51 -82t97 -31q92 0 172 67l-1 -118q-27 -25 -75 -44.5t-101 -19.5q-113 0 -192 74.5t-79 187.5q0 112 73.5 191.5t182.5 79.5q110 0 174 -69.5t64 -181.5zM173 300h242q-4 52 -38 79.5t-81 27.5
q-46 0 -78.5 -29t-44.5 -78z" />
    <glyph glyph-name="Gcommaaccent" unicode="&#x122;" horiz-adv-x="703" 
d="M651 363v-273q-101 -105 -252 -105q-71 0 -136 26t-113 71t-76.5 111t-28.5 142t28.5 142t76.5 111t113 71t136 26q114 0 189 -65v-140q-34 25 -52 37t-55 24.5t-78 12.5q-91 0 -153.5 -63t-62.5 -156t62.5 -155.5t153.5 -62.5q75 0 118 35l1 111h-99v100h228zM380 -22
q29 0 53.5 -11t39.5 -33.5t15 -51.5q0 -50 -31.5 -78.5t-71.5 -28.5q-31 0 -57 18v68q23 -17 50 -17q19 0 30.5 9.5t11.5 26.5q0 11 -6 18.5t-15 11.5t-19 4v64z" />
    <glyph glyph-name="gcommaaccent" unicode="&#x123;" horiz-adv-x="636" 
d="M352 527q-29 0 -53.5 11t-40 33.5t-15.5 51.5q0 50 31.5 78.5t71.5 28.5q32 0 58 -18v-68q-23 17 -51 17q-12 0 -21.5 -4.5t-15 -12.5t-5.5 -19q0 -16 12.5 -25t28.5 -9v-64zM278 518q41 0 82.5 -19t70.5 -51v57h127v-492q0 -124 -80 -196t-197 -72q-60 0 -102.5 17
t-87.5 49v120q2 -1 22.5 -14.5t27 -17t26 -13.5t32.5 -13.5t33 -7t41 -3.5q68 0 113 38t45 97v88q-24 -44 -66.5 -72t-95.5 -28q-95 0 -160.5 71.5t-65.5 192.5q0 123 67 196t168 73zM304 393q-57 0 -93 -42.5t-36 -101.5q0 -58 35 -97t91 -39q53 0 92 40.5t38 105.5v72
q-59 62 -127 62z" />
    <glyph glyph-name="Imacron" unicode="&#x12a;" horiz-adv-x="555" 
d="M100 879h360v-95h-360v95zM460 670v-125h-113v-420h113v-125h-365v125h113v420h-113v125h365z" />
    <glyph glyph-name="imacron" unicode="&#x12b;" horiz-adv-x="438" 
d="M30 714h360v-95h-360v95zM104 505h208v-505h-127v397h-81v108z" />
    <glyph glyph-name="Iogonek" unicode="&#x12e;" horiz-adv-x="555" 
d="M460 545h-113v-420h113v-125h-121q-41 -13 -72 -38t-31 -48q0 -19 12 -31t32 -12q27 0 54 18v-91q-46 -23 -94 -23q-49 0 -85.5 26t-36.5 73q0 46 34 79t77 47h-134v125h113v420h-113v125h365v-125z" />
    <glyph glyph-name="iogonek" unicode="&#x12f;" horiz-adv-x="337" 
d="M181 596q-36 0 -61.5 25.5t-25.5 60.5t25.5 60.5t61.5 25.5t62 -25.5t26 -60.5t-26 -60.5t-62 -25.5zM47 505h208v-505h-14q-41 -13 -72 -38t-31 -48q0 -19 12 -31t32 -12q27 0 54 18v-91q-46 -23 -94 -23q-31 0 -58 10.5t-45.5 34t-18.5 54.5q0 46 34 79t77 47h-3v397
h-81v108z" />
    <glyph glyph-name="IJ" unicode="&#x132;" horiz-adv-x="904" 
d="M671 672h139v-631q0 -229 -244 -296l-53 124q158 47 158 166v637zM460 670v-125h-113v-420h113v-125h-365v125h113v420h-113v125h365z" />
    <glyph glyph-name="ij" unicode="&#x133;" horiz-adv-x="675" 
d="M184 768q24 0 44 -11.5t32 -31.5t12 -43q0 -35 -26 -60.5t-62 -25.5t-61.5 25.5t-25.5 60.5t25.5 60.5t61.5 25.5zM518 596q-36 0 -62 25.5t-26 60.5t25.5 60.5t62.5 25.5q35 0 61.5 -25.5t26.5 -60.5q0 -34 -26.5 -60t-61.5 -26zM50 505h208v-505h-127v397h-81v108z
M590 505v-499q0 -196 -181 -261l-56 110q55 26 82.5 60.5t27.5 85.5v396h-81v108h208z" />
    <glyph glyph-name="Kcommaaccent" unicode="&#x136;" horiz-adv-x="715" 
d="M407 377l293 -377h-182l-206 271l-73 -82v-189h-139v670h139v-300l255 300h176zM328 -22q45 0 76.5 -26t31.5 -70q0 -50 -31.5 -78.5t-71.5 -28.5q-31 0 -57 18v68q23 -17 50 -17q19 0 30.5 9.5t11.5 26.5q0 11 -6 18.5t-15 11.5t-19 4v64z" />
    <glyph glyph-name="kcommaaccent" unicode="&#x137;" horiz-adv-x="586" 
d="M352 286l229 -286h-160l-153 201l-63 -63v-138h-127v720h127v-440l206 225h159zM268 -22q45 0 76.5 -26t31.5 -70q0 -50 -31.5 -78.5t-71.5 -28.5q-31 0 -57 18v68q23 -17 50 -17q19 0 30.5 9.5t11.5 26.5q0 16 -12 25t-28 9v64z" />
    <glyph glyph-name="Lacute" unicode="&#x139;" horiz-adv-x="637" 
d="M381 880l-137 -142h-102l105 142h134zM239 670v-545h335v-125h-474v670h139z" />
    <glyph glyph-name="lacute" unicode="&#x13a;" horiz-adv-x="282" 
d="M338 930l-137 -142h-102l105 142h134zM205 720v-720h-127v720h127z" />
    <glyph glyph-name="Lcommaaccent" unicode="&#x13b;" horiz-adv-x="637" 
d="M239 670v-545h335v-125h-474v670h139zM288 -22q45 0 76.5 -26t31.5 -70q0 -50 -31.5 -78.5t-71.5 -28.5q-31 0 -57 18v68q23 -17 50 -17q19 0 30.5 9.5t11.5 26.5q0 11 -6 18.5t-15 11.5t-19 4v64z" />
    <glyph glyph-name="lcommaaccent" unicode="&#x13c;" horiz-adv-x="282" 
d="M205 720v-720h-127v720h127zM106 -22q45 0 76.5 -26t31.5 -70q0 -34 -16 -59t-38.5 -36.5t-48.5 -11.5q-31 0 -57 18v68q23 -17 50 -17q13 0 22.5 4.5t14.5 12.5t5 19q0 16 -12 25t-28 9v64z" />
    <glyph glyph-name="Lcaron" unicode="&#x13d;" horiz-adv-x="590" 
d="M305 718h115l-30 -188h-95zM239 670v-545h335v-125h-474v670h139z" />
    <glyph glyph-name="lcaron" unicode="&#x13e;" horiz-adv-x="397" 
d="M205 720v-720h-127v720h127zM270 718h115l-30 -188h-95z" />
    <glyph glyph-name="Ldot" unicode="&#x13f;" horiz-adv-x="594" 
d="M239 670v-545h335v-125h-474v670h139zM419 482q33 0 56.5 -23.5t23.5 -56.5t-23.5 -56.5t-56.5 -23.5t-56.5 23.5t-23.5 56.5t23.5 56.5t56.5 23.5z" />
    <glyph glyph-name="ldot" unicode="&#x140;" horiz-adv-x="415" 
d="M205 720v-720h-127v720h127zM315 518q33 0 56.5 -23.5t23.5 -56.5t-23.5 -56.5t-56.5 -23.5t-56.5 23.5t-23.5 56.5t23.5 56.5t56.5 23.5z" />
    <glyph glyph-name="Lslash" unicode="&#x141;" horiz-adv-x="617" 
d="M239 125h335v-125h-474v264l-90 -61v116l90 61v290h139v-197l87 59v-116l-87 -59v-232z" />
    <glyph glyph-name="lslash" unicode="&#x142;" horiz-adv-x="321" 
d="M311 527v-116l-91 -63v-348h-127v260l-83 -57v116l83 57v344h127v-256z" />
    <glyph glyph-name="Nacute" unicode="&#x143;" horiz-adv-x="786" 
d="M563 880l-137 -142h-102l105 142h134zM686 670v-675h-50l-397 409v-404h-139v675h50l397 -415v410h139z" />
    <glyph glyph-name="nacute" unicode="&#x144;" horiz-adv-x="607" 
d="M491 717l-137 -142h-102l105 142h134zM358 518q80 0 130.5 -54t50.5 -154v-310h-127l-1 293q0 50 -24 75.5t-68 25.5q-60 0 -114 -74v-320h-127v505h127v-72q17 22 38 40.5t52 31.5t63 13z" />
    <glyph glyph-name="Ncommaaccent" unicode="&#x145;" horiz-adv-x="786" 
d="M686 670v-675h-50l-397 409v-404h-139v675h50l397 -415v410h139zM358 -22q45 0 76.5 -26t31.5 -70q0 -50 -31.5 -78.5t-71.5 -28.5q-31 0 -57 18v68q23 -17 50 -17q19 0 30.5 9.5t11.5 26.5q0 11 -6 18.5t-15 11.5t-19 4v64z" />
    <glyph glyph-name="ncommaaccent" unicode="&#x146;" horiz-adv-x="607" 
d="M358 518q39 0 72 -13.5t57.5 -39t38 -65t13.5 -90.5v-310h-127l-1 293q0 50 -24 75.5t-68 25.5q-60 0 -114 -74v-320h-127v505h127v-72q27 36 66.5 60.5t86.5 24.5zM276 -22q45 0 76.5 -26t31.5 -70q0 -50 -31.5 -78.5t-71.5 -28.5q-31 0 -57 18v68q23 -17 50 -17
q19 0 30.5 9.5t11.5 26.5q0 11 -6 18.5t-15 11.5t-19 4v64z" />
    <glyph glyph-name="Ncaron" unicode="&#x147;" horiz-adv-x="786" 
d="M225 880h107l60 -68l60 68h107l-130 -144h-74zM686 670v-675h-50l-397 409v-404h-139v675h50l397 -415v410h139z" />
    <glyph glyph-name="ncaron" unicode="&#x148;" horiz-adv-x="607" 
d="M357 573h-74l-130 144h107l60 -68l60 68h107zM358 518q80 0 130.5 -54t50.5 -154v-310h-127l-1 293q0 50 -24 75.5t-68 25.5q-60 0 -114 -74v-320h-127v505h127v-72q64 85 153 85z" />
    <glyph glyph-name="Eng" unicode="&#x14a;" horiz-adv-x="772" 
d="M538 672h139v-631q0 -229 -244 -296l-53 124q158 47 158 166v63l-296 301v-399h-142v675h51l387 -392v389z" />
    <glyph glyph-name="eng" unicode="&#x14b;" horiz-adv-x="609" 
d="M539 310v-337q0 -77 -47.5 -137t-133.5 -91l-56 110q55 26 82.5 61.5t27.5 86.5v133l-1 157q0 50 -24 75.5t-68 25.5q-60 0 -114 -74v-320h-127v505h127v-72q27 36 66.5 60.5t86.5 24.5q80 0 130.5 -54t50.5 -154z" />
    <glyph glyph-name="Omacron" unicode="&#x14c;" horiz-adv-x="791" 
d="M576 879v-95h-360v95h360zM396 685q96 0 175.5 -44t127 -124.5t47.5 -181.5t-47.5 -181.5t-127 -124.5t-175.5 -44t-176 44t-127.5 124.5t-47.5 181.5t47.5 181.5t127.5 124.5t176 44zM396 554q-90 0 -149.5 -62.5t-59.5 -156.5t59.5 -156t149.5 -62t149 62t59 156
q0 46 -15.5 86.5t-43 69.5t-66.5 46t-83 17z" />
    <glyph glyph-name="omacron" unicode="&#x14d;" horiz-adv-x="626" 
d="M493 714v-95h-360v95h360zM313 518q111 0 191 -77.5t80 -189.5q0 -111 -80 -188.5t-191 -77.5t-190.5 77.5t-79.5 188.5q0 112 79.5 189.5t190.5 77.5zM313 395q-57 0 -96 -39t-39 -105t39 -104.5t96 -38.5t96.5 38.5t39.5 104.5t-39.5 105t-96.5 39z" />
    <glyph glyph-name="Ohungarumlaut" unicode="&#x150;" horiz-adv-x="791" 
d="M464 880l-137 -142h-102l105 142h134zM642 880l-137 -142h-102l105 142h134zM396 685q96 0 175.5 -44t127 -124.5t47.5 -181.5t-47.5 -181.5t-127 -124.5t-175.5 -44t-176 44t-127.5 124.5t-47.5 181.5t47.5 181.5t127.5 124.5t176 44zM396 554q-90 0 -149.5 -62.5
t-59.5 -156.5t59.5 -156t149.5 -62t149 62t59 156q0 46 -15.5 86.5t-43 69.5t-66.5 46t-83 17z" />
    <glyph glyph-name="ohungarumlaut" unicode="&#x151;" horiz-adv-x="626" 
d="M381 715l-137 -142h-102l105 142h134zM559 715l-137 -142h-102l105 142h134zM313 518q111 0 191 -77.5t80 -189.5q0 -111 -80 -188.5t-191 -77.5t-190.5 77.5t-79.5 188.5q0 112 79.5 189.5t190.5 77.5zM313 395q-57 0 -96 -39t-39 -105t39 -104.5t96 -38.5t96.5 38.5
t39.5 104.5t-39.5 105t-96.5 39z" />
    <glyph glyph-name="OE" unicode="&#x152;" horiz-adv-x="1038" 
d="M958 550h-335v-152h296v-113h-296v-162h335v-123h-560q-71 0 -136 25.5t-112.5 69.5t-76 107t-28.5 133q0 94 48 171.5t129 120.5t176 43h560v-120zM398 115h86v435h-86q-63 0 -112.5 -25t-79 -74.5t-29.5 -115.5q0 -99 62.5 -159.5t158.5 -60.5z" />
    <glyph glyph-name="oe" unicode="&#x153;" horiz-adv-x="993" 
d="M956 267v-54h-367q11 -51 51 -82t97 -31q94 0 172 67v-118q-28 -25 -76 -44.5t-101 -19.5q-130 0 -211 95q-82 -95 -208 -95q-111 0 -190.5 77.5t-79.5 188.5q0 112 79.5 189.5t190.5 77.5q61 0 115.5 -25.5t92.5 -70.5q76 96 196 96q110 0 174.5 -69.5t64.5 -181.5z
M592 300h242q-4 52 -38.5 79.5t-80.5 27.5t-79 -29t-44 -78zM313 108q57 0 96.5 38.5t39.5 104.5t-39.5 105t-96.5 39t-96 -39t-39 -105t39 -104.5t96 -38.5z" />
    <glyph glyph-name="Racute" unicode="&#x154;" horiz-adv-x="668" 
d="M485 880l-137 -142h-102l105 142h134zM655 0h-183l-233 274v-274h-139v670h272q48 0 92.5 -13.5t81 -39t58 -68.5t21.5 -96q0 -43 -17 -79t-46.5 -60.5t-67.5 -38.5t-80 -17zM354 540h-115v-169q56 -17 113 -17q61 0 96 24.5t35 69.5q0 31 -17.5 52.5t-46 30.5t-65.5 9z
" />
    <glyph glyph-name="racute" unicode="&#x155;" horiz-adv-x="416" 
d="M408 715l-137 -142h-102l105 142h134zM205 410q61 105 142 105q27 0 49 -9v-143q-30 18 -67 18q-40 0 -69.5 -26t-54.5 -73v-282h-127v505h127v-95z" />
    <glyph glyph-name="Rcommaaccent" unicode="&#x156;" horiz-adv-x="668" 
d="M414 258l241 -258h-183l-233 274v-274h-139v670h272q48 0 92.5 -13.5t81 -39t58 -68.5t21.5 -96q0 -85 -61 -137t-150 -58zM354 540h-115v-169q56 -17 113 -17q61 0 96 24.5t35 69.5q0 31 -17.5 52.5t-46 30.5t-65.5 9zM328 -22q45 0 76.5 -26t31.5 -70
q0 -50 -31.5 -78.5t-71.5 -28.5q-31 0 -57 18v68q23 -17 50 -17q19 0 30.5 9.5t11.5 26.5q0 11 -6 18.5t-15 11.5t-19 4v64z" />
    <glyph glyph-name="rcommaaccent" unicode="&#x157;" horiz-adv-x="416" 
d="M347 515q26 0 49 -9v-143q-30 18 -67 18q-40 0 -69.5 -26t-54.5 -73v-282h-127v505h127v-95q61 105 142 105zM143 -22q45 0 76.5 -26t31.5 -70q0 -50 -31.5 -78.5t-71.5 -28.5q-31 0 -57 18v68q23 -17 50 -17q13 0 22.5 4.5t14.5 12.5t5 19q0 16 -12 25t-28 9v64z" />
    <glyph glyph-name="Rcaron" unicode="&#x158;" horiz-adv-x="668" 
d="M351 736h-74l-130 144h107l60 -68l60 68h107zM655 0h-183l-233 274v-274h-139v670h272q103 0 178 -56.5t75 -160.5q0 -85 -61 -137t-150 -58zM354 540h-115v-169q56 -17 113 -17q61 0 96 24.5t35 69.5q0 31 -17.5 52.5t-46 30.5t-65.5 9z" />
    <glyph glyph-name="rcaron" unicode="&#x159;" horiz-adv-x="416" 
d="M273 571h-74l-130 144h107l60 -68l60 68h107zM205 410q61 105 142 105q27 0 49 -9v-143q-30 18 -67 18q-40 0 -69.5 -26t-54.5 -73v-282h-127v505h127v-95z" />
    <glyph glyph-name="Sacute" unicode="&#x15a;" horiz-adv-x="548" 
d="M455 880l-137 -142h-102l105 142h134zM283 683q106 0 187 -53v-137q-46 29 -85 44.5t-85 15.5q-44 0 -77 -18.5t-33 -54.5q0 -13 6 -24t12.5 -18t23 -15.5t26 -12.5t32.5 -14l82 -34q136 -58 136 -171q0 -58 -34.5 -105t-92.5 -73t-127 -26q-108 0 -207 70v137
q105 -76 210 -76q44 0 73 17t29 49q0 42 -78 70l-103 40q-73 28 -103 75t-30 111q0 60 33.5 107t87.5 71.5t117 24.5z" />
    <glyph glyph-name="sacute" unicode="&#x15b;" horiz-adv-x="442" 
d="M401 715l-137 -142h-102l105 142h134zM241 518q45 0 85.5 -13t63.5 -33v-112q-68 46 -130 46q-35 0 -56.5 -15.5t-21.5 -38.5q0 -35 58 -53l57 -19q115 -34 115 -133q0 -69 -57 -115.5t-139 -46.5q-48 0 -96 15.5t-76 35.5v111q30 -21 75 -36.5t80 -15.5q79 0 79 52
q0 18 -15 29t-52 23l-62 22q-102 34 -102 137q0 71 54 115.5t140 44.5z" />
    <glyph glyph-name="Scedilla" unicode="&#x15e;" horiz-adv-x="548" 
d="M508 191q0 -53 -28.5 -96.5t-77 -70.5t-109.5 -34l-3 -48q26 2 47.5 -8t33.5 -29.5t12 -43.5q0 -46 -31 -73.5t-83 -27.5q-11 0 -24.5 2.5t-29 8.5t-25.5 14l7 64q44 -23 72 -23q9 0 17 3t13 9.5t5 15.5q0 8 -4.5 14.5t-12 9.5t-17.5 3q-16 0 -33 -9l-20 12l12 105
q-96 7 -182 68v137q105 -76 210 -76q29 0 51.5 7t36.5 22.5t14 36.5q0 42 -78 70l-103 40q-73 28 -103 75t-30 111q0 60 33.5 107t87.5 71.5t117 24.5q106 0 187 -53v-137q-96 60 -170 60q-44 0 -77 -18.5t-33 -54.5q0 -21 15.5 -37t31.5 -24t53 -23l82 -34
q136 -58 136 -171z" />
    <glyph glyph-name="scedilla" unicode="&#x15f;" horiz-adv-x="442" 
d="M412 147q0 -64 -50.5 -109.5t-125.5 -51.5l-3 -44q40 3 66.5 -20.5t26.5 -60.5q0 -46 -31 -73.5t-83 -27.5q-48 0 -79 25l7 64q44 -23 72 -23q14 0 24.5 7.5t10.5 20.5q0 27 -34 27q-16 0 -33 -9l-20 12l12 104q-82 12 -128 48v111q30 -21 75 -36.5t80 -15.5q79 0 79 52
q0 18 -15 29t-52 23l-62 22q-102 34 -102 137q0 71 54 115.5t140 44.5q45 0 85.5 -13t63.5 -33v-112q-68 46 -130 46q-35 0 -56.5 -15.5t-21.5 -38.5q0 -35 58 -53l57 -19q115 -34 115 -133z" />
    <glyph glyph-name="Scaron" unicode="&#x160;" horiz-adv-x="548" 
d="M117 880h107l60 -68l60 68h107l-130 -144h-74zM283 683q106 0 187 -53v-137q-46 29 -85 44.5t-85 15.5q-28 0 -52 -7.5t-41 -24.5t-17 -41q0 -13 6 -24t12.5 -18t23 -15.5t26 -12.5t32.5 -14l82 -34q136 -58 136 -171q0 -88 -74 -146t-180 -58q-108 0 -207 70v137
q105 -76 210 -76q44 0 73 17t29 49q0 42 -78 70l-103 40q-73 28 -103 75t-30 111q0 60 33.5 107t87.5 71.5t117 24.5z" />
    <glyph glyph-name="scaron" unicode="&#x161;" horiz-adv-x="442" 
d="M63 715h107l60 -68l60 68h107l-130 -144h-74zM241 518q45 0 85.5 -13t63.5 -33v-112q-68 46 -130 46q-35 0 -56.5 -15.5t-21.5 -38.5q0 -35 58 -53l57 -19q115 -34 115 -133q0 -69 -57 -115.5t-139 -46.5q-48 0 -96 15.5t-76 35.5v111q30 -21 75 -36.5t80 -15.5
q79 0 79 52q0 18 -15 29t-52 23l-62 22q-102 34 -102 137q0 71 54 115.5t140 44.5z" />
    <glyph glyph-name="uni0162" unicode="&#x162;" horiz-adv-x="621" 
d="M594 670v-125h-214v-542h-138v542h-214v125h566zM336 -58q40 3 66.5 -20.5t26.5 -60.5q0 -46 -31 -73.5t-83 -27.5q-17 0 -41 6.5t-38 18.5l7 64q44 -23 72 -23q9 0 17 3t13 9.5t5 15.5q0 8 -4.5 14.5t-12 9.5t-17.5 3q-16 0 -33 -9l-20 12l13 118h64z" />
    <glyph glyph-name="uni0163" unicode="&#x163;" horiz-adv-x="458" 
d="M323 108q45 0 83 23v-101q-41 -41 -105 -45l-3 -43q40 3 66.5 -20.5t26.5 -60.5q0 -46 -31 -73.5t-83 -27.5q-11 0 -24.5 2.5t-29 8.5t-25.5 14l7 64q44 -23 72 -23q9 0 17 3t13 9.5t5 15.5q0 13 -9.5 20t-24.5 7q-16 0 -33 -9l-20 12l12 108q-48 14 -75.5 55t-27.5 101
v251h-91v65q50 18 90 65.5t63 122.5h65v-147h140v-106h-140v-218q0 -34 16 -53.5t46 -19.5z" />
    <glyph glyph-name="Tcaron" unicode="&#x164;" horiz-adv-x="621" 
d="M348 736h-74l-130 144h107l60 -68l60 68h107zM594 670v-125h-214v-542h-138v542h-214v125h566z" />
    <glyph glyph-name="tcaron" unicode="&#x165;" horiz-adv-x="492" 
d="M325 718h115l-30 -173h-95zM261 652v-147h140v-106h-140v-218q0 -34 16 -53.5t46 -19.5q45 0 83 23v-101q-45 -45 -119 -45q-68 0 -110.5 44t-42.5 119v251h-91v65q106 38 153 188h65z" />
    <glyph glyph-name="Tbar" unicode="&#x166;" horiz-adv-x="621" 
d="M491 879v-95h-360v95h360zM594 670v-125h-214v-542h-138v542h-214v125h566z" />
    <glyph glyph-name="tbar" unicode="&#x167;" horiz-adv-x="438" 
d="M323 108q45 0 83 23v-101q-45 -45 -119 -45q-68 0 -110.5 44t-42.5 119v78h-100v80h100v93h-91v65q50 18 90 65.5t63 122.5h65v-147h140v-106h-140v-93h124v-80h-124v-45q0 -34 16 -53.5t46 -19.5z" />
    <glyph glyph-name="Umacron" unicode="&#x16a;" horiz-adv-x="759" 
d="M560 879v-95h-360v95h360zM669 672v-407q0 -128 -82 -203.5t-207 -75.5t-207.5 75.5t-82.5 203.5v407h139v-399q0 -75 41 -114.5t110 -38.5q70 1 110.5 40t40.5 113v399h138z" />
    <glyph glyph-name="umacron" unicode="&#x16b;" horiz-adv-x="591" 
d="M482 714v-95h-360v95h360zM524 505v-301q0 -99 -64 -158t-164 -59t-164 59t-64 158v301h128l1 -278q0 -57 26.5 -87t72.5 -30t72.5 30t26.5 87v278h129z" />
    <glyph glyph-name="Uring" unicode="&#x16e;" horiz-adv-x="759" 
d="M380 894q38 0 63.5 -25.5t25.5 -61.5t-25.5 -61.5t-63.5 -25.5q-37 0 -63.5 25.5t-26.5 61.5t26.5 61.5t63.5 25.5zM380 846q-16 0 -28 -11.5t-12 -27.5t11.5 -27.5t28.5 -11.5q10 0 19 5t14.5 14t5.5 20q0 16 -11.5 27.5t-27.5 11.5zM669 672v-407q0 -128 -82 -203.5
t-207 -75.5t-207.5 75.5t-82.5 203.5v407h139v-399q0 -75 41 -114.5t110 -38.5q70 1 110.5 40t40.5 113v399h138z" />
    <glyph glyph-name="uring" unicode="&#x16f;" horiz-adv-x="591" 
d="M302 729q38 0 63.5 -25.5t25.5 -61.5t-25.5 -61.5t-63.5 -25.5q-37 0 -63.5 25.5t-26.5 61.5t26.5 61.5t63.5 25.5zM302 681q-16 0 -28 -11.5t-12 -27.5t11.5 -27.5t28.5 -11.5q16 0 27.5 11.5t11.5 27.5t-11.5 27.5t-27.5 11.5zM524 505v-301q0 -99 -64 -158t-164 -59
t-164 59t-64 158v301h128l1 -278q0 -57 26.5 -87t72.5 -30t72.5 30t26.5 87v278h129z" />
    <glyph glyph-name="Uhungarumlaut" unicode="&#x170;" horiz-adv-x="759" 
d="M448 880l-137 -142h-102l105 142h134zM626 880l-137 -142h-102l105 142h134zM669 672v-407q0 -128 -82 -203.5t-207 -75.5t-207.5 75.5t-82.5 203.5v407h139v-399q0 -75 41 -114.5t110 -38.5q70 1 110.5 40t40.5 113v399h138z" />
    <glyph glyph-name="uhungarumlaut" unicode="&#x171;" horiz-adv-x="591" 
d="M370 715l-137 -142h-102l105 142h134zM548 715l-137 -142h-102l105 142h134zM524 505v-301q0 -99 -64 -158t-164 -59t-164 59t-64 158v301h128l1 -278q0 -57 26.5 -87t72.5 -30t72.5 30t26.5 87v278h129z" />
    <glyph glyph-name="Uogonek" unicode="&#x172;" horiz-adv-x="759" 
d="M531 672h138v-407q0 -69 -26 -125t-70.5 -91.5t-104.5 -51.5q-39 -14 -67 -37.5t-28 -45.5q0 -19 12 -31t32 -12q27 0 54 18v-91q-46 -23 -94 -23q-49 0 -85.5 26t-36.5 73q0 38 24 67.5t59 46.5q-110 13 -179 86.5t-69 190.5v407h139v-399q0 -75 41 -114.5t110 -38.5
q70 1 110.5 40t40.5 113v399z" />
    <glyph glyph-name="uogonek" unicode="&#x173;" horiz-adv-x="591" 
d="M395 505h129v-301q0 -76 -38.5 -128.5t-103.5 -74.5h7q-42 -13 -74 -38t-32 -49q0 -19 12 -31t32 -12q27 0 54 18v-91q-46 -23 -94 -23q-49 0 -85.5 26t-36.5 73q0 27 13.5 51t32 39.5t41.5 26.5q-83 12 -133.5 68.5t-50.5 144.5v301h128l1 -278q0 -57 26.5 -87t72.5 -30
t72.5 30t26.5 87v278z" />
    <glyph glyph-name="Wcircumflex" unicode="&#x174;" horiz-adv-x="959" 
d="M517 880l130 -144h-107l-60 68l-60 -68h-107l130 144h74zM949 670l-226 -670h-96l-149 431l-149 -431h-96l-223 670h158l124 -423l141 423h93l139 -423l126 423h158z" />
    <glyph glyph-name="wcircumflex" unicode="&#x175;" horiz-adv-x="790" 
d="M428 715l130 -144h-107l-60 68l-60 -68h-107l130 144h74zM780 505l-175 -505h-92l-118 327l-118 -327h-93l-174 505h138l93 -299l109 299h91l108 -299l93 299h138z" />
    <glyph glyph-name="Ycircumflex" unicode="&#x176;" horiz-adv-x="681" 
d="M341 804l-60 -68h-107l130 144h74l130 -144h-107zM671 670l-259 -417v-253h-142v246l-260 424h163l167 -282l168 282h163z" />
    <glyph glyph-name="ycircumflex" unicode="&#x177;" horiz-adv-x="597" 
d="M296 639l-60 -68h-107l130 144h74l130 -144h-107zM442 505h145l-367 -745h-144l152 277l-218 468h148l144 -322z" />
    <glyph glyph-name="Ydieresis" unicode="&#x178;" horiz-adv-x="681" 
d="M237 748q-28 0 -48.5 20.5t-20.5 49t20 49t49 20.5t49.5 -20.5t20.5 -49t-21 -49t-49 -20.5zM447 748q-28 0 -48.5 20.5t-20.5 49t20 49t49 20.5t49.5 -20.5t20.5 -49t-21 -49t-49 -20.5zM671 670l-259 -417v-253h-142v246l-260 424h163l167 -282l168 282h163z" />
    <glyph glyph-name="Zacute" unicode="&#x179;" horiz-adv-x="691" 
d="M525 880l-137 -142h-102l105 142h134zM627 670v-36l-344 -509h344v-125h-563v36l338 509h-316v125h541z" />
    <glyph glyph-name="zacute" unicode="&#x17a;" horiz-adv-x="557" 
d="M451 715l-137 -142h-102l105 142h134zM497 505v-31l-261 -365h271v-109h-454v32l250 365h-235v108h429z" />
    <glyph glyph-name="Zdotaccent" unicode="&#x17b;" horiz-adv-x="691" 
d="M354.5 880q28.5 0 49 -20.5t20.5 -49t-21 -49t-49 -20.5t-48.5 20.5t-20.5 49t20.5 49t49 20.5zM627 670v-36l-344 -509h344v-125h-563v36l338 509h-316v125h541z" />
    <glyph glyph-name="zdotaccent" unicode="&#x17c;" horiz-adv-x="557" 
d="M280 715q29 0 49.5 -20.5t20.5 -48.5t-21 -49t-49 -21q-19 0 -35 9.5t-25 25.5t-9 35q0 28 20 48.5t49 20.5zM497 505v-31l-261 -365h271v-109h-454v32l250 365h-235v108h429z" />
    <glyph glyph-name="Zcaron" unicode="&#x17d;" horiz-adv-x="691" 
d="M187 880h107l60 -68l60 68h107l-130 -144h-74zM627 670v-36l-344 -509h344v-125h-563v36l338 509h-316v125h541z" />
    <glyph glyph-name="zcaron" unicode="&#x17e;" horiz-adv-x="557" 
d="M113 715h107l60 -68l60 68h107l-130 -144h-74zM497 505v-31l-261 -365h271v-109h-454v32l250 365h-235v108h429z" />
    <glyph glyph-name="circumflex" unicode="&#x2c6;" horiz-adv-x="494" 
d="M284 715l130 -144h-107l-60 68l-60 -68h-107l130 144h74z" />
    <glyph glyph-name="caron" unicode="&#x2c7;" horiz-adv-x="474" 
d="M70 715h107l60 -68l60 68h107l-130 -144h-74z" />
    <glyph glyph-name="breve" unicode="&#x2d8;" horiz-adv-x="484" 
d="M404 715q-2 -68 -47.5 -109t-114.5 -41t-114.5 41t-47.5 109h87q10 -62 75 -62q31 0 50.5 18t24.5 44h87z" />
    <glyph glyph-name="dotaccent" unicode="&#x2d9;" horiz-adv-x="306" 
d="M153 715q29 0 49.5 -20.5t20.5 -48.5t-21 -49t-49 -21q-11 0 -21.5 3.5t-19 10t-15 15.5t-10 19.5t-3.5 21.5q0 28 20 48.5t49 20.5z" />
    <glyph glyph-name="ring" unicode="&#x2da;" horiz-adv-x="333" 
d="M167 729q38 0 63.5 -25.5t25.5 -61.5t-25.5 -61.5t-63.5 -25.5q-37 0 -63.5 25.5t-26.5 61.5q0 24 12 44t32.5 31.5t45.5 11.5zM167 681q-16 0 -28 -11.5t-12 -27.5q0 -11 5.5 -20t14.5 -14t20 -5q10 0 19 5t14.5 14t5.5 20q0 16 -11.5 27.5t-27.5 11.5z" />
    <glyph glyph-name="ogonek" unicode="&#x2db;" horiz-adv-x="600" 
d="M272 1h110q-42 -14 -74 -38.5t-32 -48.5q0 -19 12 -31t32 -12q27 0 54 18v-91q-46 -23 -94 -23q-49 0 -85.5 26t-36.5 73q0 48 35.5 81t78.5 46z" />
    <glyph glyph-name="tilde" unicode="&#x2dc;" horiz-adv-x="460" 
d="M413 703q0 -56 -33 -88.5t-83 -32.5q-39 0 -73.5 23t-47.5 23q-16 0 -25.5 -12t-9.5 -30h-81q0 56 33 88.5t83 32.5q39 0 74 -23t48 -23q34 0 34 42h81z" />
    <glyph glyph-name="hungarumlaut" unicode="&#x2dd;" horiz-adv-x="512" 
d="M299 715l-137 -142h-102l105 142h134zM477 715l-137 -142h-102l105 142h134z" />
    <glyph glyph-name="uni0326" unicode="&#x326;" horiz-adv-x="0" 
d="M-168 -22q45 0 76.5 -26t31.5 -70q0 -50 -31.5 -78.5t-71.5 -28.5q-31 0 -57 18v68q23 -17 50 -17q19 0 30.5 9.5t11.5 26.5q0 16 -12 25t-28 9v64z" />
    <glyph glyph-name="Wgrave" unicode="&#x1e80;" horiz-adv-x="959" 
d="M373 880l107 -75l-6 -67l-107 75zM949 670l-226 -670h-96l-149 431l-149 -431h-96l-223 670h158l124 -423l141 423h93l139 -423l126 423h158z" />
    <glyph glyph-name="wgrave" unicode="&#x1e81;" horiz-adv-x="790" 
d="M284 715l107 -75l-6 -67l-107 75zM780 505l-175 -505h-92l-118 327l-118 -327h-93l-174 505h138l93 -299l109 299h91l108 -299l93 299h138z" />
    <glyph glyph-name="Wacute" unicode="&#x1e82;" horiz-adv-x="959" 
d="M651 880l-137 -142h-102l105 142h134zM949 670l-226 -670h-96l-149 431l-149 -431h-96l-223 670h158l124 -423l141 423h93l139 -423l126 423h158z" />
    <glyph glyph-name="wacute" unicode="&#x1e83;" horiz-adv-x="790" 
d="M562 715l-137 -142h-102l105 142h134zM780 505l-175 -505h-92l-118 327l-118 -327h-93l-174 505h138l93 -299l109 299h91l108 -299l93 299h138z" />
    <glyph glyph-name="Wdieresis" unicode="&#x1e84;" horiz-adv-x="959" 
d="M375 887q29 0 49.5 -20.5t20.5 -48.5t-20.5 -49t-49.5 -21q-28 0 -48.5 20.5t-20.5 49.5q0 28 20 48.5t49 20.5zM585 887q29 0 49.5 -20.5t20.5 -48.5t-20.5 -49t-49.5 -21q-28 0 -48.5 20.5t-20.5 49.5q0 28 20 48.5t49 20.5zM949 670l-226 -670h-96l-149 431l-149 -431
h-96l-223 670h158l124 -423l141 423h93l139 -423l126 423h158z" />
    <glyph glyph-name="wdieresis" unicode="&#x1e85;" horiz-adv-x="790" 
d="M287 722q29 0 49.5 -20.5t20.5 -49t-20.5 -49t-49.5 -20.5q-19 0 -35 9.5t-25 25.5t-9 35q0 28 20 48.5t49 20.5zM497 722q19 0 35 -9t25.5 -25t9.5 -35q0 -29 -20.5 -49.5t-49 -20.5t-49 20.5t-20.5 49t20 49t49 20.5zM780 505l-175 -505h-92l-118 327l-118 -327h-93
l-174 505h138l93 -299l109 299h91l108 -299l93 299h138z" />
    <glyph glyph-name="Ygrave" unicode="&#x1ef2;" horiz-adv-x="681" 
d="M341 805l-6 -67l-107 75l6 67zM671 670l-259 -417v-253h-142v246l-260 424h163l167 -282l168 282h163z" />
    <glyph glyph-name="ygrave" unicode="&#x1ef3;" horiz-adv-x="597" 
d="M296 640l-6 -67l-107 75l6 67zM442 505h145l-367 -745h-144l152 277l-218 468h148l144 -322z" />
    <glyph glyph-name="endash" unicode="&#x2013;" horiz-adv-x="605" 
d="M550 318v-120h-490v120h490z" />
    <glyph glyph-name="emdash" unicode="&#x2014;" horiz-adv-x="888" 
d="M828 318v-120h-768v120h768z" />
    <glyph glyph-name="quoteleft" unicode="&#x2018;" horiz-adv-x="262" 
d="M150 688l92 -16l-90 -259l-112 28z" />
    <glyph glyph-name="quoteright" unicode="&#x2019;" horiz-adv-x="252" 
d="M115 688l112 -28l-110 -247l-92 16z" />
    <glyph glyph-name="quotesinglbase" unicode="&#x201a;" horiz-adv-x="346" 
d="M135 115l112 -28l-100 -252l-92 16z" />
    <glyph glyph-name="quotedblleft" unicode="&#x201c;" horiz-adv-x="472" 
d="M150 706l92 -16l-90 -259l-112 28zM350 706l92 -16l-90 -259l-112 28z" />
    <glyph glyph-name="quotedblright" unicode="&#x201d;" horiz-adv-x="452" 
d="M117 426l-92 16l90 259l112 -28zM317 426l-92 16l90 259l112 -28z" />
    <glyph glyph-name="quotedblbase" unicode="&#x201e;" horiz-adv-x="452" 
d="M117 -153l-92 16l90 259l112 -28zM317 -153l-92 16l90 259l112 -28z" />
    <glyph glyph-name="dagger" unicode="&#x2020;" horiz-adv-x="453" 
d="M413 520v-110h-123v-510h-127v510h-123v110h123v150h127v-150h123z" />
    <glyph glyph-name="daggerdbl" unicode="&#x2021;" horiz-adv-x="600" 
d="M413 410h-123v-155h123v-110h-123v-245h-127v245h-123v110h123v155h-123v110h123v150h127v-150h123v-110z" />
    <glyph glyph-name="bullet" unicode="&#x2022;" horiz-adv-x="451" 
d="M225 449q60 0 103 -42.5t43 -103.5q0 -59 -43 -102t-103 -43t-102.5 43t-42.5 102q0 61 42.5 103.5t102.5 42.5z" />
    <glyph glyph-name="ellipsis" unicode="&#x2026;" horiz-adv-x="820" 
d="M140 142q33 0 56.5 -23.5t23.5 -56.5q0 -22 -10.5 -40.5t-29 -29.5t-40.5 -11t-40.5 11t-29 29.5t-10.5 40.5q0 33 23.5 56.5t56.5 23.5zM410 142q33 0 56.5 -23.5t23.5 -56.5t-23.5 -57t-56.5 -24t-56.5 24t-23.5 57t23.5 56.5t56.5 23.5zM680 142q33 0 56.5 -23.5
t23.5 -56.5t-23.5 -57t-56.5 -24t-56.5 24t-23.5 57t23.5 56.5t56.5 23.5z" />
    <glyph glyph-name="Euro" unicode="&#x20ac;" horiz-adv-x="622" 
d="M436 554q-58 0 -100.5 -32.5t-63.5 -87.5h209v-80h-225q-1 -6 -1 -19q0 -18 1 -26h225v-80h-206q21 -52 63 -82t98 -30q76 0 136 51v-133q-64 -50 -150 -50q-106 0 -187 66.5t-109 177.5h-81v80h69q-1 9 -1 26v19h-68v80h79q27 114 108.5 182.5t189.5 68.5q28 0 58.5 -8
t56 -21t40.5 -28v-138q-68 64 -141 64z" />
    <glyph glyph-name="trademark" unicode="&#x2122;" horiz-adv-x="531" 
d="M40 619v52h200v-52h-69v-152h-62v152h-69zM455 670h36v-203h-63v84l-37 -50h-18l-41 50v-84h-63v203h37l76 -102z" />
    <glyph glyph-name="minus" unicode="&#x2212;" horiz-adv-x="541" 
d="M461 373v-120h-381v120h381z" />
    <glyph glyph-name="approxequal" unicode="&#x2248;" horiz-adv-x="569" 
d="M509 504q0 -68 -39.5 -111.5t-101.5 -43.5q-30 0 -55.5 9.5t-40 21.5t-32.5 21.5t-34 9.5q-20 0 -32 -16t-12 -40h-102q0 68 39.5 111.5t101.5 43.5q21 0 39 -4.5t31 -11.5t25.5 -15t22 -15t21 -11.5t23.5 -4.5q21 0 32.5 16t11.5 40h102zM509 289q0 -45 -18 -80t-50 -55
t-73 -20q-30 0 -55.5 9.5t-40 21.5t-32.5 21.5t-34 9.5q-20 0 -32 -16t-12 -40h-102q0 68 39.5 111.5t101.5 43.5q30 0 55.5 -9.5t40 -21.5t32.5 -21.5t34 -9.5q21 0 32.5 16t11.5 40h102z" />
    <glyph glyph-name="notequal" unicode="&#x2260;" horiz-adv-x="551" 
d="M471 351h-128l-40 -80h168v-120h-229l-45 -89h-93l44 89h-68v120h128l40 80h-168v120h228l30 59h96l-30 -59h67v-120z" />
    <glyph glyph-name="lessequal" unicode="&#x2264;" horiz-adv-x="556" 
d="M476 620v-111l-248 -128l248 -139v-111l-396 228v42zM80 102h396v-102h-396v102z" />
    <glyph glyph-name="greaterequal" unicode="&#x2265;" horiz-adv-x="549" 
d="M80 620l396 -219v-42l-396 -228v111l248 139l-248 128v111zM476 102v-102h-396v102h396z" />
    <glyph glyph-name="dotlessi" horiz-adv-x="338" 
d="M261 505v-505h-127v397h-81v108h208z" />
    </font>
</defs>
</svg>
