<svg data-v-423bf9ae="" xmlns="http://www.w3.org/2000/svg" viewBox="0 0 503 112" class="iconLeftSlogan"><!----><!----><!----><g data-v-423bf9ae="" id="341eab79-cb72-44bd-90f0-4ffbf1724b72" fill="black" transform="matrix(6.153846153846154,0,0,6.153846153846154,118.32387293302094,-22.092308631310097)"><path d="M6.26 13.15L8.06 13.15L4.99 9.07C6.21 8.79 7.29 7.95 7.29 6.52C7.29 4.86 5.88 3.82 4.14 3.82L1.17 3.82L1.17 13.15L2.65 13.15L2.65 9.17L3.41 9.17ZM2.65 5.00L3.73 5.00C5.06 5.00 5.75 5.57 5.75 6.53C5.75 7.50 5.06 8.01 3.85 8.01L2.65 8.01ZM15.12 9.70C15.12 7.73 13.80 6.36 11.87 6.36C9.89 6.36 8.46 7.89 8.46 9.84C8.46 11.80 9.87 13.31 12.05 13.31C13.18 13.31 14.15 12.92 14.74 12.25L13.77 11.46C13.34 11.94 12.78 12.19 12.03 12.19C10.79 12.19 10.05 11.33 9.95 10.15L15.12 10.15ZM11.87 7.50C12.91 7.50 13.58 8.12 13.72 9.17L10.00 9.17C10.21 8.17 10.89 7.50 11.87 7.50ZM23.83 6.36C22.66 6.36 22.08 6.80 21.66 7.41C21.23 6.66 20.50 6.36 19.75 6.36C18.99 6.36 18.30 6.72 17.92 7.38L17.76 6.53L16.52 6.53L16.52 13.15L17.94 13.15L17.94 9.26C18.02 8.15 18.55 7.57 19.40 7.57C20.30 7.57 20.66 8.31 20.66 9.39L20.66 13.15L22.08 13.15L22.08 9.60C22.08 8.30 22.60 7.57 23.52 7.57C24.44 7.57 24.81 8.31 24.81 9.38L24.81 13.15L26.22 13.15L26.22 9.28C26.22 7.12 25.08 6.36 23.83 6.36ZM30.79 13.33C32.23 13.33 33.75 12.67 33.75 10.31L33.75 6.53L32.33 6.53L32.33 10.32C32.33 11.43 31.79 12.12 30.79 12.12C29.78 12.12 29.24 11.43 29.24 10.32L29.24 6.53L27.82 6.53L27.82 10.31C27.82 12.67 29.34 13.33 30.79 13.33ZM38.88 6.36C37.95 6.36 37.25 6.75 36.84 7.32L36.66 6.53L35.42 6.53L35.42 13.15L36.84 13.15L36.84 9.11C36.95 7.95 37.74 7.57 38.49 7.57C39.51 7.57 39.94 8.30 39.94 9.38L39.94 13.15L41.36 13.15L41.36 9.06C41.36 7 40.03 6.36 38.88 6.36ZM49.34 9.70C49.34 7.73 48.01 6.36 46.08 6.36C44.10 6.36 42.67 7.89 42.67 9.84C42.67 11.80 44.09 13.31 46.26 13.31C47.40 13.31 48.36 12.92 48.96 12.25L47.98 11.46C47.56 11.94 46.99 12.19 46.24 12.19C45.00 12.19 44.26 11.33 44.16 10.15L49.34 10.15ZM46.08 7.50C47.12 7.50 47.79 8.12 47.94 9.17L44.22 9.17C44.42 8.17 45.11 7.50 46.08 7.50ZM53.83 6.36C53.04 6.36 52.51 6.74 52.14 7.41L51.96 6.53L50.74 6.53L50.74 13.15L52.15 13.15L52.15 9.70C52.15 8.62 52.72 7.66 53.75 7.66C53.99 7.66 54.21 7.70 54.40 7.79L54.82 6.58C54.64 6.47 54.26 6.36 53.83 6.36ZM60.64 8.11C61.47 7.74 62.04 7.07 62.04 6.04C62.04 4.72 60.89 3.59 59.00 3.59C57.14 3.59 55.99 4.72 55.99 6.04C55.99 7.07 56.55 7.74 57.37 8.11C56.29 8.49 55.59 9.39 55.59 10.53C55.59 11.89 56.61 13.34 59.00 13.34C61.40 13.34 62.43 11.89 62.43 10.53C62.43 9.39 61.73 8.50 60.64 8.11ZM59.00 4.75C59.92 4.75 60.65 5.31 60.65 6.15C60.65 7 59.92 7.58 59.00 7.58C58.10 7.58 57.37 7 57.37 6.15C57.37 5.31 58.10 4.75 59.00 4.75ZM59.00 12.18C57.92 12.18 57.05 11.48 57.05 10.47C57.05 9.46 57.95 8.76 59.00 8.76C60.05 8.76 60.97 9.46 60.97 10.47C60.97 11.48 60.08 12.18 59.00 12.18Z"></path></g><!----><g data-v-423bf9ae="" id="93bb7f0e-6eb2-4292-9cd6-dda0f31fa7ad" transform="matrix(1.1111021253797744,0,0,1.1111021253797744,-2.041292265476379,0.4453648804580439)" stroke="none" fill="black"><path d="M37.039 20.894h26.345l2.408-3.436c1.967-2.965 4.134-5.805 6.009-8.83.89-1.437 2.558-3.789 1.901-5.609-.469-1.3-1.669-1.743-2.955-1.969-.93-.163-5.684-1.364-7.603-.972-1.703.349-3.276 1.157-4.91 1.725-2.301.8-4.848 1.471-7.372 1.333-2.181-.119-4.659-.398-6.715-1.141-1.704-.617-3.35-1.525-5.153-1.834-1.557-.267-7.228.519-8.369.715-8.031 1.382-2.192 7.493 4.006 16.582l2.408 3.436zm58.042 48.181c-6.754-15.562-18.983-32.532-31.794-40.719h-26.58C23.899 36.545 11.672 53.516 4.92 69.075c-6.77 15.598 1.351 30.924 16.825 30.924h56.511c15.474 0 23.595-15.326 16.825-30.924zM52.47 83.203v6.316h-5.029v-5.948c-3.863-.122-7.726-1.226-9.935-2.698l1.657-5.765c2.392 1.411 5.826 2.698 9.567 2.698 3.863 0 6.5-1.901 6.5-4.844 0-2.76-2.147-4.539-6.685-6.194-6.44-2.331-10.61-5.274-10.61-10.978 0-5.274 3.679-9.321 9.873-10.425v-6.01h5.029v5.703c3.863.123 6.5 1.042 8.463 2.024l-1.655 5.641c-1.473-.675-4.171-2.085-8.341-2.085-4.292 0-5.825 2.208-5.825 4.294 0 2.514 2.208 3.923 7.419 6.009 6.869 2.576 9.936 5.888 9.936 11.345 0 5.215-3.618 9.814-10.364 10.917z"></path></g><!----><g data-v-423bf9ae="" id="4c2cc3c8-570f-4b08-874a-81324b42613f" fill="black" transform="matrix(1.9081790382867385,0,0,1.9081790382867385,122.24180553045471,51.33686860679467)"><path d="M1.72 13.78L7.41 13.78L7.41 13.06L2.56 13.06L2.56 9.25L6.52 9.25L6.52 8.53L2.56 8.53L2.56 5.24L7.27 5.24L7.27 4.54L1.72 4.54ZM32.38 13.78L33.21 13.78L33.21 9.91L35 9.91C37.04 9.91 38.32 9.03 38.32 7.15C38.32 5.21 37.04 4.54 35 4.54L32.38 4.54ZM33.21 9.21L33.21 5.21L34.83 5.21C36.61 5.21 37.48 5.67 37.48 7.15C37.48 8.61 36.62 9.21 34.83 9.21ZM46.77 13.78L47.61 13.78L48.62 10.71L52.16 10.71L53.16 13.78L54.03 13.78L50.85 4.54L49.95 4.54ZM48.87 10.02L49.39 8.41C49.74 7.34 50.05 6.37 50.37 5.25L50.43 5.25C50.74 6.37 51.04 7.34 51.41 8.41L51.93 10.02ZM65.38 13.78L66.22 13.78L66.22 10.40L69.36 4.54L68.50 4.54L67.02 7.45C66.65 8.16 66.25 8.90 65.86 9.65L65.80 9.65C65.39 8.90 65.04 8.19 64.67 7.49L63.11 4.54L62.24 4.54L65.38 10.40ZM93.52 13.78L94.35 13.78L94.35 7.76C94.35 7.08 94.28 6.06 94.23 5.42L94.28 5.42L94.93 7.18L96.64 11.26L97.19 11.26L98.88 7.18L99.48 5.42L99.54 5.42C99.51 6.06 99.46 7.08 99.46 7.76L99.46 13.78L100.30 13.78L100.30 4.54L99.18 4.54L97.51 8.71L96.95 10.29L96.89 10.29L96.29 8.71L94.63 4.54L93.52 4.54ZM110.14 13.78L115.82 13.78L115.82 13.06L110.98 13.06L110.98 9.25L114.94 9.25L114.94 8.53L110.98 8.53L110.98 5.24L115.68 5.24L115.68 4.54L110.14 4.54ZM128.02 13.94C128.52 13.94 128.97 13.55 128.97 12.94C128.97 12.31 128.52 11.93 128.02 11.93C127.51 11.93 127.06 12.31 127.06 12.94C127.06 13.55 127.51 13.94 128.02 13.94ZM143.42 13.94C143.92 13.94 144.37 13.55 144.37 12.94C144.37 12.31 143.92 11.93 143.42 11.93C142.91 11.93 142.46 12.31 142.46 12.94C142.46 13.55 142.91 13.94 143.42 13.94ZM158.82 13.94C159.32 13.94 159.77 13.55 159.77 12.94C159.77 12.31 159.32 11.93 158.82 11.93C158.31 11.93 157.86 12.31 157.86 12.94C157.86 13.55 158.31 13.94 158.82 13.94Z"></path></g></svg>