<svg data-v-fde0c5aa="" xmlns="http://www.w3.org/2000/svg" viewBox="0 0 300 300" class="font"><!----><defs data-v-fde0c5aa=""><!----></defs><rect data-v-fde0c5aa="" fill="#0B173D" x="0" y="0" width="300px" height="300px" class="logo-background-square"></rect><defs data-v-fde0c5aa=""><!----></defs><g data-v-fde0c5aa="" id="d536992d-6bcb-4fed-b911-cffdb8a28905" fill="#D1A103" transform="matrix(3.5912502828642134,0,0,3.5912502828642134,35.79823689505822,119.60006580757313)"><path d="M6.26 13.15L8.06 13.15L4.99 9.07C6.21 8.79 7.29 7.95 7.29 6.52C7.29 4.86 5.88 3.82 4.14 3.82L1.17 3.82L1.17 13.15L2.65 13.15L2.65 9.17L3.41 9.17ZM2.65 5.00L3.73 5.00C5.06 5.00 5.75 5.57 5.75 6.53C5.75 7.50 5.06 8.01 3.85 8.01L2.65 8.01ZM15.12 9.70C15.12 7.73 13.80 6.36 11.87 6.36C9.89 6.36 8.46 7.89 8.46 9.84C8.46 11.80 9.87 13.31 12.05 13.31C13.18 13.31 14.15 12.92 14.74 12.25L13.77 11.46C13.34 11.94 12.78 12.19 12.03 12.19C10.79 12.19 10.05 11.33 9.95 10.15L15.12 10.15ZM11.87 7.50C12.91 7.50 13.58 8.12 13.72 9.17L10.00 9.17C10.21 8.17 10.89 7.50 11.87 7.50ZM23.83 6.36C22.66 6.36 22.08 6.80 21.66 7.41C21.23 6.66 20.50 6.36 19.75 6.36C18.99 6.36 18.30 6.72 17.92 7.38L17.76 6.53L16.52 6.53L16.52 13.15L17.94 13.15L17.94 9.26C18.02 8.15 18.55 7.57 19.40 7.57C20.30 7.57 20.66 8.31 20.66 9.39L20.66 13.15L22.08 13.15L22.08 9.60C22.08 8.30 22.60 7.57 23.52 7.57C24.44 7.57 24.81 8.31 24.81 9.38L24.81 13.15L26.22 13.15L26.22 9.28C26.22 7.12 25.08 6.36 23.83 6.36ZM30.79 13.33C32.23 13.33 33.75 12.67 33.75 10.31L33.75 6.53L32.33 6.53L32.33 10.32C32.33 11.43 31.79 12.12 30.79 12.12C29.78 12.12 29.24 11.43 29.24 10.32L29.24 6.53L27.82 6.53L27.82 10.31C27.82 12.67 29.34 13.33 30.79 13.33ZM38.88 6.36C37.95 6.36 37.25 6.75 36.84 7.32L36.66 6.53L35.42 6.53L35.42 13.15L36.84 13.15L36.84 9.11C36.95 7.95 37.74 7.57 38.49 7.57C39.51 7.57 39.94 8.30 39.94 9.38L39.94 13.15L41.36 13.15L41.36 9.06C41.36 7 40.03 6.36 38.88 6.36ZM49.34 9.70C49.34 7.73 48.01 6.36 46.08 6.36C44.10 6.36 42.67 7.89 42.67 9.84C42.67 11.80 44.09 13.31 46.26 13.31C47.40 13.31 48.36 12.92 48.96 12.25L47.98 11.46C47.56 11.94 46.99 12.19 46.24 12.19C45.00 12.19 44.26 11.33 44.16 10.15L49.34 10.15ZM46.08 7.50C47.12 7.50 47.79 8.12 47.94 9.17L44.22 9.17C44.42 8.17 45.11 7.50 46.08 7.50ZM53.83 6.36C53.04 6.36 52.51 6.74 52.14 7.41L51.96 6.53L50.74 6.53L50.74 13.15L52.15 13.15L52.15 9.70C52.15 8.62 52.72 7.66 53.75 7.66C53.99 7.66 54.21 7.70 54.40 7.79L54.82 6.58C54.64 6.47 54.26 6.36 53.83 6.36ZM60.64 8.11C61.47 7.74 62.04 7.07 62.04 6.04C62.04 4.72 60.89 3.59 59.00 3.59C57.14 3.59 55.99 4.72 55.99 6.04C55.99 7.07 56.55 7.74 57.37 8.11C56.29 8.49 55.59 9.39 55.59 10.53C55.59 11.89 56.61 13.34 59.00 13.34C61.40 13.34 62.43 11.89 62.43 10.53C62.43 9.39 61.73 8.50 60.64 8.11ZM59.00 4.75C59.92 4.75 60.65 5.31 60.65 6.15C60.65 7 59.92 7.58 59.00 7.58C58.10 7.58 57.37 7 57.37 6.15C57.37 5.31 58.10 4.75 59.00 4.75ZM59.00 12.18C57.92 12.18 57.05 11.48 57.05 10.47C57.05 9.46 57.95 8.76 59.00 8.76C60.05 8.76 60.97 9.46 60.97 10.47C60.97 11.48 60.08 12.18 59.00 12.18Z"></path></g><!----><!----></svg>