<svg data-v-423bf9ae="" xmlns="http://www.w3.org/2000/svg" viewBox="0 0 410.03132277123217 60" class="font"><!----><!----><!----><g data-v-423bf9ae="" id="b46f7a3b-bdf1-429e-8a11-c045d77356bf" fill="black" transform="matrix(6.269592676418792,0,0,6.269592676418792,-8.589342977046584,-26.081504577238256)"><path d="M6.69 13.52L9.19 13.52L5.76 9.98C7.25 9.84 8.54 8.91 8.54 7.33C8.54 5.30 6.79 4.36 5.09 4.36L1.37 4.36L1.37 13.52L3.27 13.52L3.27 9.76ZM3.27 6.14L4.84 6.14C5.82 6.14 6.60 6.51 6.60 7.40C6.60 8.22 5.91 8.68 4.81 8.68C4.27 8.68 3.72 8.59 3.27 8.45ZM16.46 9.87C16.46 7.86 15.24 6.44 13.21 6.44C11.18 6.44 9.71 8.13 9.71 10.14C9.71 12.22 11.38 13.73 13.41 13.73C14.46 13.73 15.20 13.38 15.59 13.10L15.59 11.53C15.16 11.80 14.49 12.15 13.48 12.15C12.43 12.15 11.65 11.54 11.46 10.60L16.46 10.60ZM11.48 9.46C11.69 8.54 12.29 7.96 13.17 7.96C13.96 7.96 14.72 8.46 14.79 9.46ZM26.14 6.44C25.18 6.44 24.46 7.04 23.91 7.78C23.49 6.89 22.65 6.44 21.68 6.44C20.75 6.44 20.21 6.96 19.78 7.48L19.78 6.62L18.05 6.62L18.05 13.52L19.78 13.52L19.78 9.02C20.15 8.53 20.60 8.13 21.18 8.13C21.96 8.13 22.48 8.59 22.48 9.52L22.49 13.52L24.23 13.52L24.23 9.08C24.61 8.56 25.02 8.13 25.62 8.13C26.40 8.13 26.93 8.59 26.93 9.52L26.95 13.52L28.68 13.52L28.68 9.28C28.68 7.40 27.55 6.44 26.14 6.44ZM36.76 6.62L35 6.62L35 10.42C35 11.48 34.45 12.02 33.65 12.02C32.84 12.02 32.29 11.48 32.29 10.42L32.28 6.62L30.53 6.62L30.53 10.73C30.53 12.58 31.86 13.70 33.65 13.70C35.44 13.70 36.76 12.58 36.76 10.73ZM42.57 6.44C41.64 6.44 40.91 7.04 40.48 7.60L40.48 6.62L38.75 6.62L38.75 13.52L40.48 13.52L40.48 9.15C40.88 8.60 41.43 8.13 42.04 8.13C42.82 8.13 43.30 8.59 43.30 9.52L43.31 13.52L45.05 13.52L45.05 9.28C45.05 7.40 43.98 6.44 42.57 6.44ZM53.32 9.87C53.32 7.86 52.10 6.44 50.07 6.44C48.04 6.44 46.57 8.13 46.57 10.14C46.57 12.22 48.23 13.73 50.27 13.73C51.32 13.73 52.06 13.38 52.45 13.10L52.45 11.53C52.02 11.80 51.35 12.15 50.34 12.15C49.29 12.15 48.51 11.54 48.32 10.60L53.32 10.60ZM48.34 9.46C48.55 8.54 49.15 7.96 50.03 7.96C50.82 7.96 51.58 8.46 51.65 9.46ZM58.58 6.48C57.76 6.48 57.12 7.10 56.64 7.92L56.64 6.62L54.91 6.62L54.91 13.52L56.64 13.52L56.64 9.67C57.05 8.90 57.54 8.31 58.34 8.31C58.75 8.31 59.09 8.44 59.40 8.65L59.40 6.67C59.16 6.55 58.90 6.48 58.58 6.48ZM63.62 4.16C62.02 4.16 60.73 5.13 60.73 6.66C60.73 7.71 61.32 8.34 61.99 8.70C61.20 9.02 60.46 9.82 60.46 10.86C60.46 12.51 61.81 13.73 63.62 13.73C65.42 13.73 66.77 12.51 66.77 10.86C66.77 9.82 66.04 9.02 65.24 8.70C65.91 8.34 66.50 7.71 66.50 6.66C66.50 5.13 65.21 4.16 63.62 4.16ZM63.62 5.74C64.23 5.74 64.82 6.22 64.82 6.93C64.82 7.64 64.23 8.11 63.62 8.11C62.99 8.11 62.41 7.64 62.41 6.93C62.41 6.22 62.99 5.74 63.62 5.74ZM63.62 9.46C64.33 9.46 65.00 10.01 65.00 10.79C65.00 11.57 64.39 12.14 63.62 12.14C62.82 12.14 62.23 11.57 62.23 10.79C62.23 10.01 62.89 9.46 63.62 9.46Z"></path></g><!----><!----></svg>